<?xml version="1.0" encoding="utf-8"?>
<!-- Generator: Adobe Illustrator 16.0.0, SVG Export Plug-In . SVG Version: 6.00 Build 0)  -->
<!DOCTYPE svg PUBLIC "-//W3C//DTD SVG 1.1//EN" "http://www.w3.org/Graphics/SVG/1.1/DTD/svg11.dtd">
<svg version="1.1" id="Layer_1" xmlns="http://www.w3.org/2000/svg" xmlns:xlink="http://www.w3.org/1999/xlink" x="0px" y="0px"
	 width="36px" height="36px" viewBox="0 0 36 36" enable-background="new 0 0 36 36" xml:space="preserve">
<g>
	<polygon fill="#FFFFF8" points="13.064,22.43 14.244,21.853 22.482,21.853 23.086,22.306 23.391,23.237 21.477,33.043 
		17.183,34.813 14.018,33.533 	"/>
	<path fill="#636358" d="M13.34,22.306c0,0-7.46,2.298-9.495,3.767c-2.035,1.47-2.901,5.427-2.901,8.14
		c0,0,11.228,1.808,13.639,1.808l-0.603-4.673L13.34,22.306z"/>
	<path fill="#636358" d="M23.086,22.306c0,0,7.461,2.298,9.494,3.767c2.035,1.47,2.902,5.427,2.902,8.14
		c0,0-11.229,1.808-13.641,1.808l0.604-4.673L23.086,22.306z"/>
	<path fill="#515147" d="M29.441,26.961c2.057,1.79,3.256,5.042,3.449,7.66c1.533-0.236,2.592-0.407,2.592-0.407
		c0-2.714-0.867-6.67-2.902-8.139c-2.033-1.47-9.494-3.768-9.494-3.768l-0.057,0.796C25.139,24.211,28.24,25.915,29.441,26.961z"/>
	<path fill="#DBB491" d="M9.487,11.956c0,0-0.577-0.088-0.691,0.139c-0.113,0.226-0.226,0.903,0.17,1.789
		c0.396,0.885,1.205,1.884,1.846,2.242c0,0,0.433,2.311,1.89,4.044c1.457,1.732,3.015,3.065,5.451,3.065
		c2.437,0,7.4-1.961,7.937-7.561c0,0,1.607-1.056,1.885-2.437c0.275-1.381,0.049-1.633-0.643-1.444
		c-0.689,0.188-0.715-5.991-0.715-5.991L17.387,5.2L9.813,7.612C9.813,7.612,10.065,11.102,9.487,11.956z"/>
	<path fill="#CCA483" d="M27.975,13.237c0.275-1.381,0.049-1.633-0.643-1.444c-0.689,0.188-0.715-5.991-0.715-5.991l-0.178-0.012
		L24.33,7.536c0,0,0.189,7.573-0.34,9.231c-0.498,1.566-1.066,3.57-4.463,6.297c2.574-0.575,6.113-2.706,6.563-7.389
		C26.09,15.674,27.697,14.619,27.975,13.237z"/>
	<path fill="#72726A" d="M13.34,22.306c0,0,0.191,2.104,0.502,3.768c0.457,2.448,1.917,6.6,2.681,8.679
		c0.285,0.78,0.472,1.268,0.472,1.268h-2.713c0,0-3.052-4.559-4.294-7.648l1.507-0.754l-1.093-0.604
		C10.401,27.014,10.853,23.286,13.34,22.306z"/>
	<path fill="#39393A" d="M20.008,25c0,0.334-0.27,0.602-0.602,0.602h-2.412c-0.333,0-0.603-0.268-0.603-0.602v-1.162
		c0-0.333,0.27-0.603,0.603-0.603h2.412c0.332,0,0.602,0.27,0.602,0.603V25z"/>
	<path fill="#72726A" d="M23.086,22.306c0,0-0.191,2.104-0.502,3.768c-0.457,2.448-1.918,6.6-2.682,8.679
		c-0.283,0.78-0.471,1.268-0.471,1.268h2.713c0,0,3.051-4.559,4.295-7.648l-1.506-0.754l1.09-0.604
		C26.023,27.014,25.572,23.286,23.086,22.306z"/>
	<path fill="#494949" d="M19.432,25.602h-1.218h-1.219l-1.19,7.144c0.578,1.706,1.19,3.274,1.19,3.274h1.219h1.218
		c0,0,0.611-1.568,1.189-3.274L19.432,25.602z"/>
	<path fill="#393C3D" d="M22.322,6.707c0,0-2.514,2.863-5.551,2.863c-3.039,0-4.345,0-4.345,0s-0.878,0.176-1.432-0.553
		c0,0-0.452,0.201-0.527,1.205c-0.076,1.005,0.125,3.015,0.125,3.015s-0.427-1.13-1.105-1.281c0,0-0.427-1.631-0.427-3.441
		c0-1.808,0.828-4.747,2.976-6.518C14.184,0.227,16.557,0,18.29,0s4.22,0.565,5.087,1.62c0.867,1.055,3.164,2.147,3.504,2.826
		c0.338,0.678,0.979,1.47,0.451,7.347c0,0-0.791,0.263-1.055,1.168c0,0,0.842-4.672,0.037-5.852c0,0-2.586,2.411-5.248,3.063
		C21.066,10.173,23.252,7.485,22.322,6.707z"/>
</g>
</svg>
