<?xml version="1.0" encoding="utf-8"?>
<!-- Generator: Adobe Illustrator 19.0.0, SVG Export Plug-In . SVG Version: 6.00 Build 0)  -->
<svg version="1.1" id="Layer_1" xmlns="http://www.w3.org/2000/svg" xmlns:xlink="http://www.w3.org/1999/xlink" x="0px" y="0px"
	 viewBox="-207 333.3 197 126.7" style="enable-background:new -207 333.3 197 126.7;" xml:space="preserve">
<style type="text/css">
	.st0{fill:#FFFFFF;}
</style>
<polygon class="st0" points="-407.5,761.7 -400,761.7 -400,768.7 -398.5,768.7 -398.5,754.2 -400,754.2 -400,760.3 -407.4,760.3 
	-407.4,754.2 -408.9,754.2 -408.9,768.7 -407.5,768.7 "/>
<path class="st0" d="M-392.9,768.2c0.8,0.5,1.8,0.8,3,0.8c1.1,0,2-0.3,2.8-0.9c0.7-0.6,1.2-1.3,1.5-2.1c0.3-0.8,0.4-1.8,0.4-3.1
	v-8.8h-1.5v8.8c0,1.2,0,1.9-0.1,2.3c-0.2,0.5-0.4,0.9-0.7,1.3s-0.7,0.7-1.1,0.9c-0.5,0.2-0.9,0.3-1.4,0.3c-0.6,0-1.2-0.1-1.7-0.4
	s-0.9-0.6-1.2-1c-0.3-0.3-0.4-0.8-0.5-1.4c-0.1-0.2-0.1-0.9-0.1-1.9v-8.8h-1.4v8.7c0,1.5,0.1,2.5,0.3,3.1
	C-394.3,766.9-393.7,767.6-392.9,768.2z"/>
<polygon class="st0" points="-366.1,768.7 -368.2,754.2 -368.4,754.2 -374.3,766.1 -380.2,754.2 -380.4,754.2 -382.5,768.7 
	-381,768.7 -379.6,758.2 -374.4,768.7 -374,768.7 -368.9,758.3 -367.5,768.7 "/>
<path class="st0" d="M-360.7,763.9h6.3l2.3,4.8h1.6l-6.8-14.5h-0.4l-6.9,14.5h1.6L-360.7,763.9z M-357.5,757.3l2.6,5.3h-5
	L-357.5,757.3z"/>
<polygon class="st0" points="-347.9,754.2 -348.2,754.2 -348.2,768.7 -346.7,768.7 -346.7,757.7 -337.1,768.7 -336.8,768.7 
	-336.8,754.2 -338.2,754.2 -338.2,765.3 "/>
<path class="st0" d="M-319.1,760.2c0.4-0.6,0.6-1.3,0.6-2.1c0-0.9-0.3-1.8-0.8-2.4c-0.5-0.7-1.2-1.1-2.1-1.3
	c-0.6-0.1-1.7-0.2-3.3-0.2h-2.9h-0.1v14.7h1.5v-6.8h0.8l5.2,6.8h1.8l-5.2-6.8c1.3,0,2.2-0.2,2.9-0.5
	C-320,761.3-319.5,760.8-319.1,760.2z M-323.6,760.6h-2.5v-5h2.5c1,0,1.8,0.1,2.3,0.2c0.4,0.2,0.7,0.5,1,0.9
	c0.3,0.4,0.4,0.8,0.4,1.3s-0.1,1-0.4,1.4c-0.3,0.4-0.6,0.7-1.1,0.9C-321.9,760.5-322.6,760.6-323.6,760.6z"/>
<polygon class="st0" points="-315.5,754.2 -315.5,768.7 -307.2,768.7 -307.2,767.3 -314,767.3 -314,761.6 -307.2,761.6 
	-307.2,760.2 -314,760.2 -314,755.6 -307.1,755.6 -307.1,754.2 -315.4,754.2 "/>
<path class="st0" d="M-300.4,767.4c-0.5,0.2-0.9,0.3-1.4,0.3c-1.1,0-2.1-0.8-3-2.4l-1.2,0.7c0.6,1.1,1.3,1.9,1.9,2.8
	c0.7,0.5,1.5,0.7,2.4,0.7c1.1,0,2.1-0.4,2.9-1.2c0.8-0.7,1.2-1.6,1.2-2.7c0-0.7-0.2-1.5-0.7-2.2s-1.3-1.6-2.6-2.5
	c-1.1-0.8-1.7-1.3-1.9-1.5c-0.3-0.4-0.6-0.7-0.7-1c-0.1-0.3-0.2-0.6-0.2-0.9c0-0.5,0.2-0.9,0.6-1.3c0.3-0.3,0.8-0.5,1.4-0.5
	c0.5,0,0.9,0.1,1.3,0.3c0.4,0.2,0.9,0.7,1.4,1.4l1.2-0.9c-0.7-0.9-1.3-1.6-1.9-1.9s-1.2-0.5-1.9-0.5c-0.7,0-1.2,0.1-1.8,0.4
	c-0.6,0.3-1,0.7-1.3,1.2c-0.3,0.5-0.5,1.1-0.5,1.7c0,0.8,0.3,1.5,0.8,2.2c0.3,0.4,1.1,1.1,2.3,2c1.2,0.9,2,1.7,2.5,2.3
	c0.3,0.4,0.5,0.9,0.5,1.4c0,0.4-0.1,0.8-0.3,1.2S-300,767.2-300.4,767.4z"/>
<path class="st0" d="M-282,756c-1.5-1.5-3.3-2.2-5.5-2.2c-1.4,0-2.6,0.4-3.8,0.9c-1.2,0.7-2.1,1.6-2.8,2.8c-0.7,1.2-1,2.5-1,3.9
	c0,2.1,0.7,3.9,2.2,5.4s3.3,2.2,5.5,2.2c2.1,0,3.9-0.7,5.4-2.2s2.2-3.3,2.2-5.4C-279.8,759.3-280.5,757.5-282,756z M-282.2,764.8
	c-0.5,0.9-1.2,1.7-2.2,2.2c-0.9,0.5-2,0.8-3.1,0.8c-1.7,0-3.1-0.6-4.3-1.8s-1.8-2.7-1.8-4.4c0-1.2,0.3-2.3,0.8-3.2
	c0.6-1,1.3-1.7,2.3-2.3c1-0.5,2-0.8,3.1-0.8s2.1,0.2,2.9,1c1,0.5,1.8,1.3,2.3,2.2s0.8,1.9,0.8,3.1
	C-281.4,762.8-281.7,763.9-282.2,764.8z"/>
<path class="st0" d="M-275.2,764.9c-0.1-0.2-0.1-0.9-0.1-1.9v-8.8h-1.4v8.7c0,1.5,0.1,2.5,0.3,3.1c0.3,0.9,0.9,1.6,1.7,2.2
	c0.8,0.5,1.8,0.8,3,0.8c1.1,0,2-0.3,2.8-0.9c0.7-0.6,1.2-1.3,1.5-2.1c0.3-0.8,0.4-1.8,0.4-3.1v-8.8h-1.5v8.8c0,1.2,0,1.9-0.1,2.3
	c-0.2,0.5-0.4,0.9-0.7,1.3c-0.3,0.4-0.7,0.7-1.1,0.9c-0.5,0.2-0.9,0.3-1.4,0.3c-0.6,0-1.2-0.1-1.7-0.4s-0.9-0.6-1.2-1
	C-275,766-275.1,765.5-275.2,764.9z"/>
<path class="st0" d="M-256.1,768.9h1.8l-5.2-6.8c1.3,0,2.2-0.2,2.9-0.5c0.7-0.3,1.2-0.8,1.6-1.4s0.6-1.3,0.6-2.1
	c0-0.9-0.3-1.8-0.8-2.4c-0.5-0.7-1.2-1.1-2.1-1.3c-0.6-0.1-1.7-0.2-3.3-0.2h-2.9h-0.1v14.7h1.5v-6.8h0.8L-256.1,768.9z M-262,755.6
	L-262,755.6l2.7-0.1c1,0,1.7,0.1,2.1,0.3c0.4,0.2,0.7,0.5,1,0.9c0.3,0.4,0.4,0.8,0.4,1.3s-0.1,1-0.4,1.4c-0.3,0.4-0.6,0.7-1.1,0.9
	s-1.2,0.3-2.2,0.3h-2.5V755.6z"/>
<path class="st0" d="M-237.7,766.2l-1.1-0.9c-1.4,1.6-3.1,2.4-5.1,2.4c-1.9,0-3.4-0.6-4.6-1.8c-1.2-1.1-1.8-2.6-1.8-4.4
	c0-1.2,0.3-2.3,0.8-3.2c0.5-0.9,1.3-1.6,2.3-2.2c1-0.5,2-0.8,3.2-0.8c1,0,2,0.2,2.9,0.6c0.9,0.5,1.7,1.1,2.3,1.9l1.1-0.9
	c-0.7-1-1.6-1.7-2.6-2.3c-1.1-0.5-2.3-0.8-3.7-0.8c-2.2,0-4.1,0.7-5.6,2.2s-2.2,3.3-2.2,5.4c0,2,0.6,3.8,1.8,5.2
	c1.4,1.7,3.5,2.5,6,2.5c1.3,0,2.5-0.3,3.6-0.8C-239.3,767.8-238.4,767.1-237.7,766.2z"/>
<polygon class="st0" points="-226.6,767.3 -233.4,767.3 -233.4,761.6 -226.6,761.6 -226.6,760.2 -233.4,760.2 -233.4,755.6 
	-226.5,755.6 -226.5,754.2 -234.8,754.2 -234.8,768.7 -226.6,768.7 "/>
<polygon class="st0" points="-399.8,777.2 -402.8,786 -405.7,777.2 -408,777.2 -410.2,789.8 -407.9,789.8 -406.5,781.8 
	-403.8,789.8 -401.8,789.8 -399.1,781.8 -397.7,789.8 -395.4,789.8 -397.5,777.2 "/>
<path class="st0" d="M-389.6,777.2l-4.8,12.6h2.5l1-2.6h5.1l1,2.6h2.5l-4.9-12.6H-389.6z M-390,784.9l1.7-4.3l1.7,4.3H-390z"/>
<polygon class="st0" points="-372.7,785.5 -378.1,777.2 -380.4,777.2 -380.4,789.8 -378,789.8 -378,781.5 -372.6,789.8 
	-370.3,789.8 -370.3,777.2 -372.7,777.2 "/>
<path class="st0" d="M-363.6,777.2l-4.8,12.6h2.5l1-2.6h5.1l1,2.6h2.5l-4.9-12.6H-363.6z M-364,784.9l1.7-4.3l1.7,4.3H-364z"/>
<path class="st0" d="M-348.3,785.8h3.7c-0.4,0.7-0.8,1.3-1.4,1.6c-0.6,0.3-1.3,0.5-2.1,0.5c-1.3,0-2.3-0.5-3.2-1.3
	c-0.9-0.8-1.3-1.9-1.3-3.1s0.5-2.2,1.3-3c0.8-0.8,1.9-1.2,3.1-1.2c1.4,0,2.6,0.6,3.7,1.7l1.7-1.7c-0.7-0.9-1.5-1.5-2.4-1.8
	c-1-0.4-2-0.6-3.1-0.6c-2.1,0-3.8,0.7-5.1,2.2c-1.1,1.3-1.7,2.7-1.7,4.4c0,1.2,0.3,2.3,0.9,3.4c0.6,1,1.4,1.8,2.4,2.4
	s2.2,0.9,3.5,0.9c1.2,0,2.3-0.3,3.2-0.8c0.9-0.6,1.6-1.4,2.2-2.3c0.6-0.9,0.9-2,0.9-3.1v-0.5h-6.3L-348.3,785.8L-348.3,785.8z"/>
<polygon class="st0" points="-339.7,789.9 -332.8,789.9 -332.8,787.5 -337.3,787.5 -337.3,784.2 -332.8,784.2 -332.8,781.9 
	-337.3,781.9 -337.3,779.6 -332.8,779.6 -332.8,777.2 -339.7,777.2 "/>
<polygon class="st0" points="-321.1,777.2 -324.1,786 -327,777.2 -329.3,777.2 -331.6,789.8 -329.3,789.8 -327.9,781.8 
	-325.2,789.8 -323.1,789.8 -320.4,781.8 -319,789.8 -316.7,789.8 -318.8,777.2 "/>
<polygon class="st0" points="-314.7,789.9 -307.8,789.9 -307.8,787.5 -312.3,787.5 -312.3,784.2 -307.8,784.2 -307.8,781.9 
	-312.3,781.9 -312.3,779.6 -307.8,779.6 -307.8,777.2 -314.7,777.2 "/>
<polygon class="st0" points="-297.9,785.5 -303.3,777.2 -305.6,777.2 -305.6,789.8 -303.2,789.8 -303.2,781.5 -297.8,789.8 
	-295.5,789.8 -295.5,777.2 -297.9,777.2 "/>
<polygon class="st0" points="-293.8,779.6 -291.5,779.6 -291.5,789.9 -289.1,789.9 -289.1,779.6 -286.8,779.6 -286.8,777.2 
	-293.8,777.2 "/>
<path class="st0" d="M-274.8,783.8c-0.2-0.3-0.8-0.7-1.7-1.5c-1-0.8-1.6-1.3-1.8-1.6c-0.1-0.2-0.2-0.4-0.2-0.6s0.1-0.4,0.3-0.6
	c0.2-0.2,0.5-0.3,0.8-0.3c0.6,0,1.3,0.4,1.9,1.3l1.8-1.6c-0.6-0.7-1.2-1.3-1.9-1.5c-0.6-0.3-1.2-0.4-1.8-0.4c-1,0-1.8,0.3-2.5,0.9
	c-0.7,0.7-1,1.4-1,2.3c0,0.6,0.2,1.2,0.6,1.8c0.4,0.6,1.3,1.5,2.7,2.6c0.7,0.6,1.2,1,1.4,1.3c0.2,0.3,0.3,0.6,0.3,0.9
	s-0.1,0.6-0.4,0.8c-0.2,0.3-0.6,0.4-1,0.4c-0.8,0-1.5-0.6-2.1-1.7l-2,1.2c0.5,1,1,1.7,1.7,2.1c0.6,0.5,1.4,0.7,2.3,0.7
	c1.2,0,2.1-0.3,2.8-1c0.7-0.7,1.1-1.6,1.1-2.6c0-0.6-0.1-1.1-0.3-1.5S-274.3,784.3-274.8,783.8z"/>
<polygon class="st0" points="-267,781.7 -269.4,777.2 -272,777.2 -268.3,784.4 -268.3,789.9 -265.9,789.9 -265.9,784.4 
	-262.2,777.2 -264.7,777.2 "/>
<path class="st0" d="M-254.7,783.8c-0.2-0.3-0.8-0.7-1.7-1.5c-1-0.8-1.6-1.3-1.8-1.6c-0.1-0.2-0.2-0.4-0.2-0.6s0.1-0.4,0.3-0.6
	c0.2-0.2,0.5-0.3,0.8-0.3c0.6,0,1.3,0.4,1.9,1.3l1.8-1.6c-0.7-0.7-1.3-1.3-1.9-1.5c-0.6-0.3-1.2-0.4-1.8-0.4c-1,0-1.8,0.3-2.5,0.9
	c-0.7,0.7-1,1.4-1,2.3c0,0.6,0.2,1.2,0.6,1.8c0.4,0.6,1.3,1.5,2.7,2.6c0.7,0.6,1.2,1,1.4,1.3c0.2,0.3,0.3,0.6,0.3,0.9
	s-0.1,0.6-0.4,0.8c-0.2,0.3-0.6,0.4-1,0.4c-0.8,0-1.5-0.6-2.1-1.7l-2,1.2c0.5,1,1,1.7,1.7,2.1c0.6,0.5,1.4,0.7,2.3,0.7
	c1.2,0,2.1-0.3,2.8-1c0.7-0.7,1.1-1.6,1.1-2.6c0-0.6-0.1-1.1-0.3-1.5C-253.9,784.8-254.2,784.3-254.7,783.8z"/>
<polygon class="st0" points="-252.3,779.6 -250.1,779.6 -250.1,789.9 -247.7,789.9 -247.7,779.6 -245.4,779.6 -245.4,777.2 
	-252.3,777.2 "/>
<polygon class="st0" points="-243.7,789.9 -236.8,789.9 -236.8,787.5 -241.3,787.5 -241.3,784.2 -236.8,784.2 -236.8,781.9 
	-241.3,781.9 -241.3,779.6 -236.8,779.6 -236.8,777.2 -243.7,777.2 "/>
<polygon class="st0" points="-222.9,777.2 -225.2,777.2 -228.2,786 -231.1,777.2 -233.4,777.2 -235.7,789.8 -233.4,789.8 
	-232,781.8 -229.3,789.8 -227.2,789.8 -224.5,781.8 -223.1,789.8 -220.8,789.8 "/>
<path class="st0" d="M-315.5,726.1c0,0,0.1,0,0.3,0c0.1,0,0.3,0,0.4,0c0.4,0,0.7,0,0.9-0.1c0.2,0,0.3-0.1,0.4-0.2
	c0.1-0.1,0.2-0.3,0.2-0.5c0-0.2-0.1-0.3-0.2-0.4c-0.1-0.1-0.2-0.2-0.4-0.3c-0.2-0.1-0.5-0.1-0.9-0.1c-0.3,0-0.5,0-0.8,0
	c0,0.4,0,0.9,0,1.3C-315.6,725.9-315.6,726-315.5,726.1C-315.6,726-315.6,726.1-315.5,726.1z"/>
<path class="st0" d="M-330.9,722.6c0.2,0,0.3-0.1,0.4-0.2s0.2-0.2,0.2-0.4c0-0.2,0-0.3,0-0.4s-0.1-0.2-0.2-0.3
	c-0.1-0.1-0.3-0.1-0.5-0.2c-0.3-0.1-0.7-0.1-1-0.2c-0.1,0.5-0.2,1-0.3,1.4c0.3,0.1,0.5,0.1,0.8,0.2
	C-331.2,722.6-331,722.6-330.9,722.6z"/>
<path class="st0" d="M-322.6,724c0.1,0,0.2-0.1,0.3-0.3c0.1-0.1,0.2-0.3,0.2-0.5s0-0.4-0.1-0.5c-0.1-0.1-0.2-0.2-0.4-0.3
	c-0.1,0-0.3-0.1-0.7-0.1c-0.2,0-0.3,0-0.5-0.1c-0.1,0.5-0.1,1.1-0.2,1.6c0.2,0,0.4,0,0.6,0.1C-322.9,724-322.7,724-322.6,724z"/>
<path class="st0" d="M-301.5,675.2c0.3,0.1,0.6,0.1,0.9,0.1l0,0C-300.8,675.3-301.1,675.2-301.5,675.2z"/>
<path class="st0" d="M-342.9,703.8c0,0,0.6-0.2,1.1-0.6c0.2,1.2,0.4,2.6,0.9,4c-0.3-0.4-2.5-3-8.7-2.6c0,0,1.6,4.4,8.7,2.7
	c0.1,0.4,0.2,0.7,0.3,1.1c-2.7-0.7-6.4-0.1-6.4-0.1c2.1,3.2,7,2.2,7,2.2l0.1-0.2c0.1,0.2,0.1,0.4,0.2,0.5c-1.5,0.1-4,0.7-4,0.7
	c1.4,1.7,4.1,1.7,5,1.6c0.1,0.2,0.2,0.3,0.2,0.5c-0.6,0.2-1.6,0.5-1.6,0.5c0.3,0.3,0.6,0.4,0.9,0.6c0.4,0.2,0.8,0.3,1,0.3
	c0.1,0,0.3,0.1,0.5,0.2c0.3,0.6,0.6,1.2,1,1.8c-0.1,0-0.2-0.1-0.3-0.1c0,0,0,1.7-0.1,3.6c-1.3-0.3-2.6-0.8-3.8-1.5
	c0,0,0.5,1.1,0.7,2.4c0.1,1.3,0,2.8-2.6,3.2c3,1.5,6.4,2.2,10,2.1l0.4,0.2l0.1-0.9h-0.1c0-0.1,0-0.1,0-0.2l-0.1-0.1
	c0.9,0.2,1.8,0.5,2.7,0.7c3.8,4.1,8.7,8.2,15,12.2c6.4-4,11.3-8.1,15-12.2c0.7-0.2,1.5-0.3,2.2-0.5c0,0.3,0.1,0.5,0.1,0.8
	c0.1,0,0.1,0,0.2,0v0.1l0.2-0.1c3.6,0.1,6.9-0.7,9.9-2.1c-2.6-0.4-2.8-1.9-2.6-3.2c0.2-1.3,0.7-2.4,0.7-2.4c-1,0.6-2.1,1-3.2,1.3
	c-0.1-1.8-0.1-3.4-0.1-3.4c-0.1,0.1-0.3,0.1-0.4,0.2c0.4-0.6,0.7-1.2,1-1.9c0.2,0,0.3-0.1,0.5-0.1c0.3-0.1,0.7-0.2,1.1-0.4
	c0.2-0.1,0.5-0.3,0.7-0.5c0,0-1-0.3-1.6-0.5c0.1-0.2,0.2-0.3,0.2-0.5c0.9,0.1,3.7,0.1,5-1.6c0,0-2.5-0.6-4.1-0.7
	c0.1-0.2,0.1-0.4,0.2-0.6l0.4,0.3c0,0,4.9,1,7-2.2c0,0-3.7-0.6-6.4,0.1c0.6-2,1-3.8,1.2-5.3c0.5,0.4,1.1,0.6,1.1,0.6
	c3.4-3-0.1-4.7-0.8-5c0-0.3,0-0.5,0-0.5v-22.1c-5.3,0-9.7-0.3-13.2-0.9l-2.1,1h7.5v1.3h-15.2v-4.9c-1.1-0.5-2.2-1.1-3.2-1.8h-0.2
	v16.8h3.3V681h15.2v1.1h-7.5l7.5,3.7v0.6l-8.7-4.4h-2.5l11.2,5.6h5.9v12c0,2.6-0.7,10-6.4,18.7c-12.4,3.9-25.7,3.9-38,0
	c-7.1-10.9-6.3-19.7-6.3-19.7v-9.3v-1.7h8.1l-0.2-0.1l1.7-1.5l7.3,0.7c0-0.2,0.1-0.4,0.1-0.6l-6.4-1l1.1-1l5.4,1.4
	c0.2-0.6,0.4-1.1,0.7-1.7l-4.6-2.8v-1.5l5.1,3.7c0.1-0.2,0.2-0.3,0.3-0.5l-5.4-4.4v-2.5l2.3,0.1l4.5,5.5c0.2-0.1,0.3-0.3,0.5-0.4
	l-3.7-5.1l1.5,0.1l2.7,4.6c0.5-0.3,1.1-0.5,1.7-0.7l-1.4-5.3l1-1l1,6.3c0.2,0,0.4-0.1,0.6-0.1l-0.7-7.2l1.5-1.6v16.6h1.2v-17.2
	c-0.4-0.4-0.6-0.6-0.6-0.6s-4.6,6.5-27.4,6.4v22.2c0,0,0,0.2,0,0.5C-342.9,699.2-346.2,700.9-342.9,703.8z M-290.5,683.1v1.6
	l-1.3-1.1l-1.2,1.1l0.1-1.6l-1.6-0.2l1.4-0.9l-0.8-1.4l1.6,0.5l0.6-1.5l0.6,1.5l1.6-0.5l-0.8,1.4l1.4,0.9L-290.5,683.1z M-314.6,736
	c-4.6-2.9-8.4-5.9-11.5-8.8c7.6,1.3,15.3,1.3,22.9,0C-306.3,730.2-310.1,733.2-314.6,736z M-298.8,721.4c0.1-0.2,0.2-0.3,0.4-0.5
	c0.2-0.1,0.4-0.2,0.7-0.3c0.2,0,0.4,0,0.6,0s0.3,0.1,0.4,0.1c0-0.1,0-0.2,0.1-0.3c0.1,0,0.1,0,0.2,0c0.2,0.4,0.4,0.7,0.6,1.1
	c-0.1,0-0.2,0.1-0.2,0.1c-0.2-0.3-0.5-0.5-0.8-0.6c-0.3-0.1-0.5-0.1-0.8-0.1c-0.2,0-0.3,0.1-0.4,0.2c-0.1,0.1-0.2,0.2-0.3,0.3
	c0,0.1-0.1,0.2,0,0.3c0,0.1,0.1,0.2,0.1,0.2c0.1,0.1,0.2,0.1,0.3,0.2c0.1,0,0.3,0.1,0.6,0.1s0.5,0,0.8,0.1c0.1,0,0.2,0,0.4,0.1
	c0.2,0,0.3,0.1,0.5,0.1c0.1,0.1,0.2,0.1,0.3,0.2s0.1,0.2,0.2,0.4c-0.1,0.4-0.2,0.7-0.5,1c-0.2,0.3-0.6,0.5-1,0.6
	c-0.2,0-0.4,0.1-0.6,0c-0.2,0-0.4-0.1-0.7-0.2c0,0.1,0,0.3-0.1,0.4c-0.1,0-0.1,0-0.2,0c-0.2-0.4-0.4-0.9-0.5-1.3
	c0.1,0,0.2-0.1,0.3-0.1c0.1,0.2,0.3,0.4,0.5,0.6c0.2,0.1,0.4,0.2,0.6,0.3c0.2,0.1,0.4,0.1,0.6,0c0.3-0.1,0.5-0.2,0.7-0.4
	c0.1-0.2,0.2-0.3,0.2-0.5s-0.1-0.3-0.3-0.4c-0.1-0.1-0.4-0.1-0.7-0.2c-0.3,0-0.5,0-0.8-0.1c-0.4,0-0.7-0.1-0.9-0.3
	c-0.2-0.1-0.3-0.3-0.4-0.6C-298.9,721.7-298.9,721.5-298.8,721.4z M-302.9,721.8c0.5-0.1,1-0.1,1.5-0.2c0,0.1,0,0.2,0,0.2
	c-0.1,0-0.1,0-0.2,0s-0.2,0-0.2,0.1v0.1c0,0,0,0.1,0.1,0.1c0,0,0,0,0,0.1c0.3,0.4,0.7,0.9,1,1.3c0.2-0.5,0.4-1.1,0.6-1.6
	c0-0.1,0-0.1,0-0.1s0,0,0-0.1c0,0,0,0,0-0.1c0,0,0,0-0.1,0c0,0-0.1,0-0.2,0h-0.1c0-0.1,0-0.2,0-0.2c0.4-0.1,0.8-0.1,1.2-0.2
	c0,0.1,0,0.2,0,0.2c-0.3,0-0.3,0-0.4,0l-0.1,0.1c0,0-0.1,0.1-0.1,0.2c-0.3,0.6-0.5,1.3-0.8,1.9c0.1,0.3,0.1,0.7,0.2,1
	c0,0.1,0.1,0.2,0.1,0.3l0.1,0.1c0.1,0,0.2,0,0.4,0c0,0.1,0,0.2,0,0.2c-0.5,0.1-1.1,0.2-1.6,0.3c0-0.1,0-0.2,0-0.2h0.1
	c0.1,0,0.2,0,0.3-0.1l0.1-0.1c0,0,0-0.1,0-0.3c0-0.3-0.1-0.6-0.1-0.9c-0.5-0.6-0.9-1.1-1.3-1.7c-0.1-0.1-0.2-0.2-0.2-0.2
	c-0.1,0-0.2,0-0.3,0C-302.9,721.9-302.9,721.8-302.9,721.8z M-303.7,724.4c-0.1-0.1-0.4-0.2-0.7-0.2c-0.2,0-0.5-0.1-0.7-0.1
	c-0.4-0.1-0.7-0.2-0.9-0.4c-0.2-0.2-0.3-0.4-0.3-0.6s0-0.4,0.1-0.5c0.1-0.2,0.2-0.3,0.5-0.4c0.2-0.1,0.4-0.2,0.7-0.2
	c0.2,0,0.4,0,0.6,0c0.1,0,0.3,0.1,0.4,0.2c0-0.1,0.1-0.2,0.1-0.3c0.1,0,0.1,0,0.2,0c0.2,0.4,0.3,0.8,0.5,1.2c-0.1,0-0.2,0.1-0.3,0.1
	c-0.2-0.3-0.5-0.6-0.8-0.7c-0.2-0.1-0.5-0.2-0.8-0.2c-0.2,0-0.3,0.1-0.4,0.1c-0.1,0.1-0.2,0.2-0.3,0.3c-0.1,0.1-0.1,0.2-0.1,0.3
	s0,0.2,0.1,0.2c0.1,0.1,0.1,0.1,0.3,0.2c0.1,0.1,0.3,0.1,0.5,0.1c0.3,0,0.5,0.1,0.8,0.1c0.1,0,0.2,0.1,0.4,0.1
	c0.2,0.1,0.3,0.1,0.4,0.2c0.1,0.1,0.2,0.2,0.3,0.3c0.1,0.1,0.1,0.2,0.1,0.4c0,0.3-0.1,0.6-0.4,0.8c-0.3,0.3-0.6,0.4-1.1,0.5
	c-0.2,0-0.4,0-0.6,0s-0.4-0.1-0.6-0.3c0,0.1-0.1,0.3-0.1,0.4c-0.1,0-0.1,0-0.2,0c-0.1-0.5-0.3-0.9-0.4-1.4c0.1,0,0.2-0.1,0.3-0.1
	c0.1,0.3,0.3,0.5,0.5,0.6c0.2,0.2,0.4,0.3,0.6,0.4s0.4,0.1,0.6,0.1c0.3,0,0.5-0.1,0.7-0.3c0.2-0.2,0.2-0.3,0.2-0.5
	C-303.5,724.6-303.6,724.5-303.7,724.4z M-308.7,722.2c0.5,0.1,1,0,1.5,0c0,0.1,0,0.2,0,0.2h-0.1c-0.1,0-0.2,0-0.2,0.1l-0.1,0.1
	c0,0.1,0,0.2,0,0.3c0.1,0.8,0.1,1.7,0.2,2.5c0,0.1,0,0.2,0.1,0.3c0,0.1,0.1,0.1,0.1,0.1s0.1,0,0.3,0h0.1c0,0.1,0,0.2,0,0.2
	c-0.5,0-1.1,0.1-1.6,0.1c0-0.1,0-0.2,0-0.2h0.1c0.1,0,0.2,0,0.2-0.1l0.1-0.1c0,0,0-0.1,0-0.3c-0.1-0.9-0.1-1.7-0.2-2.6
	c0-0.1,0-0.2-0.1-0.3l-0.1-0.1c0,0-0.1,0-0.2,0h-0.1C-308.7,722.3-308.7,722.2-308.7,722.2z M-312.1,722.6c0.4-0.2,0.9-0.2,1.4-0.2
	c0,0.1,0,0.2,0,0.2h-0.1c-0.1,0-0.2,0-0.2,0l-0.1,0.1c0,0,0,0.1,0,0.2c0,0.9,0.1,1.8,0.1,2.7c0,0.1,0,0.2,0,0.2s0,0.1,0.1,0.1
	c0,0,0.1,0,0.2,0c0.1,0,0.1,0,0.2,0c0.3,0,0.5-0.1,0.7-0.1c0.2-0.1,0.3-0.2,0.5-0.3c0.1-0.1,0.2-0.3,0.4-0.6c0.1,0,0.2,0,0.3,0.1
	c-0.1,0.4-0.3,0.8-0.4,1.3c-1,0.1-2,0.1-3,0.1c0-0.1,0-0.2,0-0.2h0.1c0.1,0,0.2,0,0.3,0l0.1-0.1c0,0,0-0.1,0-0.2
	c0-0.9-0.1-1.8-0.1-2.7c0-0.1,0-0.2,0-0.3l-0.1-0.1c0,0-0.1,0-0.3,0h-0.1C-312.1,722.7-312.1,722.6-312.1,722.6z M-316.6,726.1
	c0.1,0,0.2,0,0.3-0.1c0.1-0.1,0.1-0.1,0.1-0.3c0-0.9,0-1.8,0.1-2.7c0-0.1,0-0.2,0-0.3l-0.1-0.1c0,0-0.1,0-0.2,0h-0.1
	c0-0.1,0-0.2,0-0.2c0.6,0,1.3,0,1.9,0c0.5,0,0.8,0,0.9,0.1c0.3,0.1,0.5,0.2,0.6,0.3c0.1,0.2,0.2,0.3,0.2,0.6c0,0.2,0,0.3-0.1,0.4
	c-0.1,0.1-0.2,0.2-0.3,0.3s-0.2,0.1-0.4,0.2c0.2,0,0.4,0.1,0.5,0.1c0.2,0.1,0.3,0.2,0.4,0.3c0.1,0.1,0.2,0.3,0.2,0.5s0,0.3-0.1,0.5
	c-0.1,0.2-0.2,0.3-0.4,0.4c-0.2,0.1-0.4,0.2-0.6,0.2c-0.2,0-0.5,0-0.7,0c-0.7,0-1.4,0-2.1,0C-316.7,726.3-316.7,726.2-316.6,726.1
	L-316.6,726.1L-316.6,726.1z M-321.1,722.2c0.5,0,1,0.1,1.5,0.1c0,0.1,0,0.2,0,0.2h-0.1c-0.1,0-0.2,0-0.3,0c0,0-0.1,0-0.1,0.1
	c0,0,0,0.1,0,0.3c0,0.6-0.1,1.2-0.1,1.8c0,0.3,0,0.6,0.1,0.7c0.1,0.2,0.2,0.3,0.4,0.4c0.2,0.1,0.4,0.2,0.6,0.2c0.2,0,0.4,0,0.6-0.1
	c0.2-0.1,0.4-0.2,0.4-0.4c0.1-0.1,0.1-0.4,0.1-0.7c0-0.6,0-1.1,0.1-1.7c0-0.1,0-0.2,0-0.3s-0.1-0.1-0.1-0.1s-0.1,0-0.2,0h-0.1
	c0-0.1,0-0.2,0-0.2c0.4,0,0.9,0,1.3,0.1c0,0.1,0,0.2,0,0.2h-0.1c-0.1,0-0.3,0-0.3,0.1c-0.1,0.1-0.1,0.2-0.1,0.3c0,0.6,0,1.2-0.1,1.8
	c0,0.3-0.1,0.6-0.2,0.8c-0.1,0.2-0.3,0.4-0.6,0.5c-0.3,0.1-0.6,0.2-0.9,0.1c-0.3,0-0.6-0.1-0.8-0.2c-0.3-0.1-0.4-0.3-0.5-0.5
	c-0.2-0.3-0.2-0.6-0.2-0.9c0-0.6,0.1-1.3,0.1-1.9c0-0.1,0-0.2,0-0.3s0-0.1-0.1-0.1c0,0-0.1,0-0.2-0.1h-0.1
	C-321.1,722.4-321.1,722.3-321.1,722.2z M-324.7,725.5c0.1,0,0.1,0,0.1-0.1c0,0,0-0.1,0.1-0.3c0.1-0.9,0.2-1.8,0.3-2.7
	c0-0.1,0-0.2,0-0.3c0,0,0-0.1-0.1-0.1c0,0-0.1,0-0.3-0.1h-0.1c0-0.1,0-0.2,0-0.2c0.5,0.1,1,0.1,1.6,0.2c0.5,0,0.8,0.1,1,0.2
	c0.2,0.1,0.4,0.2,0.5,0.4c0.1,0.2,0.2,0.4,0.2,0.7c0,0.2-0.1,0.4-0.2,0.6c-0.2,0.2-0.3,0.3-0.5,0.4c-0.2,0.1-0.5,0.1-0.9,0
	c-0.2,0-0.5-0.1-0.7-0.1c0,0.3-0.1,0.7-0.1,1c0,0.1,0,0.2,0,0.3s0,0.1,0.1,0.1c0,0,0.1,0,0.2,0.1h0.1c0,0.1,0,0.2,0,0.2
	c-0.5-0.1-1.1-0.1-1.6-0.2c-0.1,0.1-0.1,0-0.1-0.1C-324.9,725.5-324.8,725.5-324.7,725.5z M-329.5,724.9h0.1c0.1,0,0.2,0,0.3,0
	s0.1,0,0.1-0.1c0,0,0-0.1,0.1-0.2c0.1-0.9,0.3-1.8,0.4-2.7c0-0.1,0-0.2,0-0.2l-0.1-0.1c0,0-0.1,0-0.3-0.1c0-0.1,0-0.2,0-0.2
	c1.1,0.2,2.1,0.3,3.2,0.5c0.1,0.4,0.2,0.7,0.2,1.1c-0.1,0-0.2,0-0.3,0.1c0-0.2-0.1-0.3-0.2-0.4c-0.1-0.1-0.1-0.2-0.2-0.3
	c-0.1-0.1-0.2-0.1-0.3-0.2c-0.1,0-0.3-0.1-0.6-0.1s-0.6-0.1-1-0.1c-0.1,0.5-0.2,0.9-0.2,1.4c0.2,0,0.3,0.1,0.5,0.1
	c0.2,0,0.3,0,0.4,0s0.2-0.1,0.2-0.2c0-0.1,0.1-0.2,0.1-0.3c0,0,0,0,0-0.1c0.1,0,0.2,0,0.3,0c-0.1,0.6-0.2,1.1-0.2,1.7
	c-0.1,0-0.2,0-0.3,0v-0.1c0-0.1,0-0.2,0-0.3c0-0.1,0-0.1-0.1-0.2c0-0.1-0.1-0.1-0.2-0.1s-0.2-0.1-0.3-0.1c-0.2,0-0.3-0.1-0.5-0.1
	c-0.1,0.4-0.1,0.8-0.2,1.3c0,0.1,0,0.2,0,0.2s0,0.1,0.1,0.1c0,0,0.1,0,0.2,0.1c0.2,0,0.4,0.1,0.6,0.1c0.3,0.1,0.6,0,0.8,0
	c0.2-0.1,0.4-0.1,0.6-0.3c0.1-0.1,0.3-0.3,0.4-0.5c0.1,0,0.2,0.1,0.3,0.1c-0.2,0.4-0.4,0.8-0.6,1.2c-1-0.4-2.1-0.6-3.3-0.8
	C-329.5,725-329.5,724.9-329.5,724.9z M-333.5,724.1L-333.5,724.1c0.2,0,0.3,0,0.3,0h0.1l0.1-0.1c0,0,0-0.1,0.1-0.3
	c0.2-0.8,0.4-1.7,0.5-2.5c0-0.1,0-0.2,0-0.2c0-0.1,0-0.1-0.1-0.1c0,0-0.1-0.1-0.2-0.1c-0.1,0-0.1,0-0.2,0c0-0.1,0-0.2,0.1-0.2
	c0.7,0.1,1.3,0.3,2,0.4c0.4,0.1,0.7,0.2,0.8,0.3c0.2,0.1,0.3,0.3,0.4,0.4c0,0,0,0.2,0,0.4s-0.1,0.4-0.3,0.5
	c-0.1,0.1-0.3,0.2-0.5,0.3s-0.5,0-0.8,0c0.3,0.5,0.5,1,0.8,1.4c0.1,0.1,0.1,0.2,0.1,0.2c0.1,0.1,0.1,0.1,0.2,0.2
	c0.1,0,0.2,0.1,0.2,0.1s0,0,0.1,0c0,0.1,0,0.2,0,0.2c-0.3-0.1-0.6-0.1-0.9-0.2c-0.4-0.7-0.8-1.4-1.1-2.1c-0.2,0-0.3-0.1-0.5-0.1
	c-0.1,0.4-0.2,0.8-0.2,1.2c0,0.1,0,0.2,0,0.3c0,0.1,0,0.1,0.1,0.2c0,0,0.1,0.1,0.3,0.1h0.1c0,0.1,0,0.2,0,0.2
	c-0.5-0.1-1-0.2-1.6-0.3C-333.6,724.2-333.6,724.1-333.5,724.1z M-336.6,681.3l0.7-1.4l0.7,1.4l1.6,0.2l-1.2,1.2l0.3,1.6l-1.4-0.7
	l-1.4,0.7l0.3-1.6l-1.2-1.1L-336.6,681.3z"/>
<path class="st0" d="M-301.5,675.2c-0.5-0.1-1-0.2-1.4-0.3C-302.4,675-301.9,675.1-301.5,675.2z"/>
<path class="st0" d="M-314.1,724.2c0.2-0.1,0.4-0.1,0.5-0.3c0.1-0.1,0.2-0.3,0.2-0.5c0-0.2-0.1-0.3-0.1-0.4
	c-0.1-0.1-0.2-0.2-0.4-0.2c-0.1,0-0.3,0-0.6,0s-0.6,0-0.9,0c0,0.5,0,1,0,1.4c0.2,0,0.5,0,0.7,0
	C-314.5,724.2-314.2,724.2-314.1,724.2z"/>
<polygon class="st0" points="-309.2,682.5 -309.2,687.6 -299,687.6 "/>
<path class="st0" d="M-306.4,676.5l3.1-1.6c-0.6-0.1-1.1-0.3-1.7-0.4l-3.9,2H-306.4z"/>
<path class="st0" d="M-309.2,673.2v2.8l3.4-1.7C-307.1,673.9-308.2,673.5-309.2,673.2z"/>
<path class="st0" d="M-325.5,737.7c0,0-1.3,0.9-0.6,1.6c0.7,0.7,3.1,0.1,4.1-0.3c1-0.5,5.2-0.6,5.2-0.6s-1.1-0.5-2-1.7
	c-0.9-1.2-2.3-0.9-2.9-1.2c-0.6-0.3-1.6-0.9-2.1-2.5c0,0,0.1,1.9,0.7,2.8c0,0-1.2-0.6-1.5-2.7c-0.3-2.1-2.5-2.4-2.5-2.4
	s0.4,0.8-0.3,0.6c0,0-1.8-4.8-7.6-2.1c0,0,1.8-0.4,3.3,4.3c0.4,1.3,3.6,2.7,3.6,2.7s-1.8,0.2-3.8-1.3c0,0,2.6,2.7,3.9,2.9
	C-326.8,738-325.5,737.7-325.5,737.7z M-331.3,730.6c0,0,3.6,1.9,5.7,4.3s5.9,2.8,5.9,2.8c-2,0.3-5-0.5-6.2-1.9
	C-327.1,734.4-331.3,730.6-331.3,730.6z"/>
<path class="st0" d="M-297.5,733.6c1.5-4.7,3.3-4.3,3.3-4.3c-5.8-2.7-7.6,2.1-7.6,2.1c-0.7,0.2-0.3-0.6-0.3-0.6s-2.2,0.2-2.5,2.4
	c-0.3,2.1-1.5,2.7-1.5,2.7c0.5-0.9,0.7-2.8,0.7-2.8c-0.6,1.6-1.5,2.2-2.1,2.5c-0.6,0.3-2,0-2.9,1.2c-1,1.1-2.1,1.6-2.1,1.6
	s4.2,0.1,5.2,0.6s3.5,1.1,4.1,0.3c0.7-0.7-0.5-1.5-0.5-1.5s1.3,0.3,2.5,0.1c1.2-0.2,3.9-2.9,3.9-2.9c-2,1.5-3.8,1.3-3.8,1.3
	S-297.9,734.9-297.5,733.6z M-303.4,735.9c-1.2,1.3-4.2,2.1-6.2,1.9c0,0,3.9-0.4,5.9-2.8c2.1-2.4,5.7-4.3,5.7-4.3
	S-302.3,734.5-303.4,735.9z"/>
<polygon class="st0" points="-319.9,729.4 -319.5,728.8 -320.2,729 -320.5,728.3 -320.8,729 -321.5,728.8 -321.1,729.4 
	-321.7,729.8 -321,730 -321,730.7 -320.5,730.2 -319.9,730.7 -320,730 -319.2,729.8 "/>
<polygon class="st0" points="-308.6,729.8 -308.7,730.3 -308.3,730 -307.9,730.3 -308,729.8 -307.4,729.7 -307.9,729.4 -307.6,729 
	-308.1,729.2 -308.3,728.7 -308.5,729.2 -309,729 -308.7,729.4 -309.1,729.7 "/>
<polygon class="st0" points="-316.2,730.3 -315.6,731.4 -316.6,732.1 -315.4,732.3 -315.5,733.6 -314.5,732.7 -313.6,733.6 
	-313.7,732.3 -312.4,732.1 -313.5,731.4 -312.9,730.3 -314.1,730.7 -314.5,729.5 -315,730.7 "/>
<path class="st0" d="M-278.8,674.2c-1.9,5.8,0.6,8.2,0.6,8.2C-275.3,678-278.8,674.2-278.8,674.2z"/>
<path class="st0" d="M-278,686.1c4.8-1.4,3.3-7.1,3.3-7.1C-278.2,680.9-278,686.1-278,686.1z"/>
<path class="st0" d="M-278.9,691.2c5.4-0.9,4.6-6.5,4.6-6.5C-278.8,686.6-278.9,691.2-278.9,691.2z"/>
<path class="st0" d="M-280.4,696c5.9-0.3,5.8-5.7,5.8-5.7C-279.6,691.4-280.4,696-280.4,696z"/>
<path class="st0" d="M-275.7,695.5c-5.7,0.8-6.9,4.8-6.9,4.8C-276.1,700.6-275.7,695.5-275.7,695.5z"/>
<path class="st0" d="M-277.4,700.3c-6.3,0.2-7.8,3.8-7.8,3.8C-278.4,705.1-277.4,700.3-277.4,700.3z"/>
<path class="st0" d="M-288.4,707.3c7.1,1.7,8.7-2.7,8.7-2.7C-286.3,704.2-288.4,707.3-288.4,707.3z"/>
<path class="st0" d="M-281.5,684.1c0.1,0.3,0.2,0.6,0.4,0.8c0.4,0.7,1,0.9,1,0.9s0.1,0,0.1,0.1c0,0,0,0,0.1,0
	c0.5,0.2,0.8,0.2,0.9,0.2c0,0,0.3-1.3,0.2-2c0-0.4,0-0.7-0.1-1c0,0-0.3-2.5-2.8-2.8c-0.1,1.6,0,2.7,0.1,3.5
	C-281.6,683.9-281.6,684-281.5,684.1z"/>
<path class="st0" d="M-279.8,691.2c1.8-5.1-2.3-5.6-2.3-5.6C-284,691.1-279.8,691.2-279.8,691.2z"/>
<path class="st0" d="M-281.5,695.9c2.6-4.7-2-5.5-2-5.5C-285.9,695.4-281.5,695.9-281.5,695.9z"/>
<path class="st0" d="M-283.7,700.2c3.2-4.2-1.6-5.3-1.6-5.3C-288.6,699.1-283.7,700.2-283.7,700.2z"/>
<path class="st0" d="M-350.5,674.2c0,0-3.5,3.8-0.6,8.2C-351,682.4-348.6,680-350.5,674.2z"/>
<path class="st0" d="M-351.2,686.1c0,0,0.2-5.2-3.3-7.1C-354.5,678.9-356,684.7-351.2,686.1z"/>
<path class="st0" d="M-350.4,691.2c0,0-0.1-4.6-4.6-6.5C-355,684.7-355.7,690.3-350.4,691.2z"/>
<path class="st0" d="M-354.7,690.3c0.1-0.1-0.1,5.3,5.8,5.7C-348.9,696-349.7,691.5-354.7,690.3z"/>
<path class="st0" d="M-346.6,700.3c0,0-1.3-4.1-6.9-4.8C-353.5,695.5-353.1,700.6-346.6,700.3z"/>
<path class="st0" d="M-344,704.1c0,0-1.6-3.5-7.8-3.8C-351.9,700.3-350.9,705.1-344,704.1z"/>
<path class="st0" d="M-350.6,684.2c-0.1,0.7,0.2,2,0.2,2c0.1,0,0.5,0,0.9-0.2c0,0,0,0,0.1,0c0.1,0,0.1,0,0.1-0.1
	c0.1,0,0.6-0.2,1-0.9c0.2-0.2,0.3-0.5,0.4-0.8c0-0.1,0-0.2,0.1-0.3c0.2-0.8,0.2-1.9,0-3.4c-2.3,0.2-2.7,2.7-2.7,2.7
	C-350.6,683.5-350.6,683.8-350.6,684.2z"/>
<path class="st0" d="M-349.4,691.2c0,0,4.1-0.1,2.3-5.6C-347.1,685.6-351.3,686.1-349.4,691.2z"/>
<path class="st0" d="M-347.8,695.9c0,0,4.4-0.5,2-5.5C-345.9,690.4-350.4,691.2-347.8,695.9z"/>
<path class="st0" d="M-345.5,700.2c0,0,4.8-1.1,1.6-5.3C-343.9,694.8-348.7,695.9-345.5,700.2z"/>
<g>
	<path class="st0" d="M-308.6,706.9c1.8,1.9,3.7,3.7,3.3,5c-0.5,1.2-2.3,1.3-2.3,1.3s1,0.5,1.8,0.3c0.8-0.3,1.8-1.4,1.6-2.8
		c-0.2-1.4-2.3-4.2-2.3-4.2l1-1.2c0,0,2.2-1.5,2.8-3.1c0,0-1.9,2.2-4.2,2.9c-2.1,0.6-1.4-1.6-1.2-1.9c-0.2,0.2-1.2,1-1.2,2.2
		C-309.3,705.8-309.1,706.3-308.6,706.9z"/>
	<path class="st0" d="M-309.3,705.4c-2.6-2.6-0.9-5.4-0.3-6.1c1.2,0.3,2.8,0.7,4.2,1.4c0,0-3.2-2.4-6.3-1.7c0,0,0.8,0.1,2,0.3
		C-313.3,702.3-310.3,704.7-309.3,705.4z"/>
	<path class="st0" d="M-306.1,695.7c2.6,2.4,1.6,6.6,1.6,6.6s0.8-0.9,0.8-3C-303.7,697.4-305.7,696-306.1,695.7z"/>
	<path class="st0" d="M-306.1,695.7L-306.1,695.7L-306.1,695.7z"/>
	<path class="st0" d="M-311.6,698.5c0,0,3.8-0.9,6.9,2.5C-304.7,701-307,696.8-311.6,698.5z"/>
	<path class="st0" d="M-306.1,695.7c0,0,1.6-2.7-7.4-4.4C-313.5,691.3-306.4,693-306.1,695.7z"/>
	<path class="st0" d="M-311,694.6L-311,694.6c-0.2,0.2-0.4,0.6-0.4,0.9c0,0.6,0.5,1.1,1.2,1.1c0.7,0,1.2-0.5,1.2-1.1
		c0-0.1,0-0.1,0-0.2c0.6,0.1,1.3,0.1,2.1,0c0,0-3.6,0.1-5.6-2.4C-312.5,692.9-312.1,693.9-311,694.6z M-310.7,695.7
		c0-0.3,0.2-0.5,0.4-0.5c0.2,0,0.4,0.2,0.4,0.5s-0.2,0.5-0.4,0.5C-310.5,696.2-310.7,696-310.7,695.7z"/>
	<path class="st0" d="M-304.3,708c1.1,1,1.3,2.2,1.2,3c-0.1,0.6-0.2,1-0.2,1.1c0.4-0.3,3.6-2.9-1.8-6.7l-1,1.1l1.6,1.3
		C-304.5,707.9-304.4,707.9-304.3,708z"/>
	<path class="st0" d="M-315.6,712.1c-0.4-1.4,2.2-4.2,3.9-5.8c0.8-0.7,1.4-1.2,1.4-1.2l-2.7-0.2c0,0-4.5,5.8-4,7.4
		c0.1,0,0.1,0,0.1,0.1c0.2,0.6,0.6,1.5,2.1,2.9c0.1,0.1,0.1,0.1,0.1,0.1c0.4,0.4,0.6,0.7,0.7,1s0.1,0.8-0.2,1.4
		c-0.2,0.3-0.3,0.6-0.3,0.8c0,0.1-0.1,0.2-0.1,0.2c-0.3,1.3,0.6,1.6,0.6,1.6c0-0.8,0.6-2.1,0.6-2.2c0.4-0.8,0.8-1,0.2-1.8
		C-313.8,715.7-315.1,713.6-315.6,712.1z"/>
	<path class="st0" d="M-326.3,696.5c-1.3,1.3-2.4,2.5-3.5,3.6c-5.3,5.2-8.1-3.4-8.5-5.5c1.1,13.7,9.8,8.3,11.7,6.9
		c1.9-1.5,3.4-1.5,4.3-1.4c0.1,0.1,0.1,0.2,0.2,0.3c0.2,0.4,0.4,0.7,0.8,1l0.1,0.1c0.4,0.3,0.8,0.6,1.3,0.9c0.6,0.4,1.1,0.8,1.5,1.1
		c0,0.1,0.1,0.1,0.1,0.1c1.2,1.3,0,4-1.2,6.8c-1.2,2.8,1.3,2.9,2.9,4.7c1.6,1.8,0.9,1.9,0.7,3.5c-0.1,0.4-0.1,0.8,0,1
		c0.1,0.6,0.6,0.6,0.6,0.6s0.1-0.2,0.6-1.9c0.6-2.2-0.5-2.5-2.3-5s-0.1-2.3,2.9-8.2c3-5.9-1.1-8.4-1.1-8.4c2.4,5.2-0.9,8.2-1.5,8.2
		c-0.1,0-0.1,0-0.2,0c0,0-1.3-1.6,1.4-5.7c0,0-3.6,0.1-3,3.4c-0.1-0.1-0.3-0.1-0.4-0.2c-0.1,0-0.1-0.1-0.2-0.1
		c-0.3-0.1-0.5-0.3-0.7-0.4c0-0.1,0-0.2,0-0.3c0.7-6.1,5.9-6.2,5.9-6.2c-5.8-0.8-7,4.4-7.1,4.9c-0.1,0.2-0.1,0.4-0.1,0.5
		c-0.8-1-1-2.1-1-2.3c0-0.5,0-1,0.1-1.5c1.6-1.2,3.2-1.9,4.4-2.3c-0.7,0.4-1.4,0.9-2.1,1.8c0,0,3.3-2.5,7.4-2.2c0,0-2.1-0.8-4.4,0
		c-2.3,0.2-3.9,1-5.1,1.8c0-0.1,0.1-0.3,0.1-0.4c2-1.9,5.3-3.9,9.9-3.4c0,0-5.2-1.7-9.4,2.2v-0.1c0.7-1,1.4-1.6,2.1-2.1
		c3.5-2.3,7.5-1.6,7.5-1.6c5.8,0.9,9.1,6.6,9.1,6.6c1.9,2.9-0.5,4.4-0.5,4.4s1.3,1.7,3.1-1.8c1.8-3.4,3.5-3.1,5-1.9
		c1.5,1.1,0.4,2.2-1,2c-1.3-0.2-1.1-1.3-1.1-1.3s-1.6-0.5-1.5,1.4c0,0.1,0,0.2,0,0.3c0.3,1.7,2.4,2.4,3.6,2.5c1.4,0.2,2.3,0.9,3.2,0
		c0.9-0.9,0-2.1,0-2.1s-0.5-0.4-1.7-3.1c-1.2-2.8-3.1-1.8-3.1-1.8s0.1-0.1,0.1-0.3c0.1-0.5,0.2-1.6-1-2.6c-0.7-0.6-1.6-0.9-1.6-0.9
		s0,0-0.1,1.7s1,2.2,1,2.2s0,0-0.3-0.7c-0.3-0.7-0.1-1.8-0.1-1.8c2.1,0.3,0.8,2.6,0.8,2.6c-0.3,0.3-0.8,0.8-1.5,1.7
		c-1.2,1.3-1.8,0.9-2.9-1.3c-1.1-2.3-3.8-6.3-8.6-7.1C-315.5,688.6-321.1,691.1-326.3,696.5z"/>
</g>
</svg>
