<?xml version="1.0" encoding="utf-8"?>
<!-- Generator: Adobe Illustrator 19.0.0, SVG Export Plug-In . SVG Version: 6.00 Build 0)  -->
<svg version="1.1" id="Layer_1" xmlns="http://www.w3.org/2000/svg" xmlns:xlink="http://www.w3.org/1999/xlink" x="0px" y="0px"
	 viewBox="4 322 620.6 150" style="enable-background:new 4 322 620.6 150;" xml:space="preserve">
<style type="text/css">
	.st0{fill:#FFFFFF;}
</style>
<path class="st0" d="M204.2,369.8h3.3v13.9h16.9v-13.9h3.3V403h-3.3v-16h-16.9v16h-3.3V369.8z"/>
<path class="st0" d="M236,369.8h3.3v20.1c0,2.4,0,3.9,0.1,4.5c0.2,1.3,0.6,2.4,1.2,3.3c0.6,0.9,1.5,1.6,2.8,2.2s2.5,0.9,3.8,0.9
	c1.1,0,2.2-0.2,3.2-0.7s1.9-1.1,2.5-1.9c0.7-0.8,1.2-1.8,1.5-3c0.2-0.8,0.3-2.6,0.3-5.2v-20.1h3.3V390c0,3-0.3,5.4-0.9,7.2
	c-0.6,1.8-1.7,3.4-3.5,4.8c-1.7,1.4-3.8,2-6.3,2c-2.7,0-5-0.6-6.9-1.9s-3.2-3-3.8-5.1c-0.4-1.3-0.6-3.6-0.6-7L236,369.8L236,369.8z"
	/>
<path class="st0" d="M264.7,403l4.8-33.2h0.5l13.5,27.3l13.4-27.3h0.5l4.8,33.2h-3.3l-3.3-23.8L283.9,403H283l-11.9-23.9l-3.3,23.9
	H264.7L264.7,403z"/>
<path class="st0" d="M322.3,369.8l15.5,33.2h-3.6l-5.2-10.9h-14.3l-5.2,10.9h-3.7l15.7-33.2H322.3z M321.9,376.9l-5.7,12h11.4
	L321.9,376.9z"/>
<path class="st0" d="M342.9,403v-33.2h0.7l22.1,25.5v-25.5h3.3V403h-0.7l-21.9-25.2V403H342.9z"/>
<path class="st0" d="M390.1,369.8h6.6c3.7,0,6.2,0.2,7.5,0.5c2,0.5,3.6,1.4,4.8,2.9c1.2,1.5,1.9,3.3,1.9,5.5c0,1.8-0.4,3.4-1.3,4.8
	s-2.1,2.4-3.6,3.1c-1.6,0.7-3.8,1.1-6.6,1.1l12,15.4h-4.1l-12-15.4h-1.9v15.4h-3.3V369.8z M393.5,373.1v11.3h5.7
	c2.2,0,3.9-0.2,4.9-0.6c1.1-0.4,1.9-1.1,2.5-2s0.9-2,0.9-3.1s-0.3-2.1-0.9-3s-1.4-1.6-2.4-2s-2.6-0.6-4.9-0.6
	C399.3,373.1,393.5,373.1,393.5,373.1z"/>
<path class="st0" d="M418.1,369.8h19v3.3h-15.7v10.4H437v3.3h-15.6v13.1H437v3.3h-18.9V369.8L418.1,369.8z"/>
<path class="st0" d="M439.4,396.9l2.8-1.7c2,3.7,4.3,5.5,6.9,5.5c1.1,0,2.2-0.3,3.1-0.8c1-0.5,1.7-1.2,2.2-2.1s0.8-1.8,0.8-2.8
	c0-1.1-0.4-2.2-1.1-3.3c-1-1.5-2.9-3.3-5.7-5.3c-2.8-2.1-4.5-3.6-5.2-4.5c-1.2-1.6-1.8-3.3-1.8-5.1c0-1.4,0.3-2.8,1-4
	s1.7-2.1,2.9-2.8c1.3-0.7,2.6-1,4.1-1c1.6,0,3,0.4,4.4,1.2c1.4,0.8,2.8,2.2,4.3,4.3l-2.7,2.1c-1.3-1.7-2.3-2.7-3.2-3.3
	c-0.9-0.5-1.8-0.8-2.9-0.8c-1.3,0-2.4,0.4-3.3,1.2c-0.9,0.8-1.3,1.8-1.3,3c0,0.7,0.1,1.4,0.5,2.1c0.3,0.7,0.9,1.4,1.6,2.2
	c0.4,0.4,1.9,1.5,4.3,3.3c2.9,2.1,4.9,4,5.9,5.7c1.1,1.7,1.6,3.3,1.6,5c0,2.4-0.9,4.5-2.7,6.3c-1.8,1.8-4.1,2.7-6.7,2.7
	c-2,0-3.9-0.5-5.5-1.6C442.3,401.2,440.8,399.4,439.4,396.9z"/>
<path class="st0" d="M481.7,369c5,0,9.2,1.7,12.6,5c3.4,3.4,5.1,7.5,5.1,12.4s-1.7,9-5.1,12.4s-7.5,5.1-12.4,5.1s-9.1-1.7-12.5-5.1
	s-5.1-7.5-5.1-12.2c0-3.2,0.8-6.1,2.3-8.9c1.5-2.7,3.7-4.9,6.3-6.4C475.7,369.7,478.6,369,481.7,369z M481.9,372.2
	c-2.5,0-4.8,0.6-7,1.9s-3.9,3-5.2,5.2c-1.2,2.2-1.9,4.6-1.9,7.3c0,4,1.4,7.3,4.1,10s6,4.1,9.9,4.1c2.6,0,5-0.6,7.2-1.9
	s3.9-3,5.1-5.1c1.2-2.2,1.8-4.6,1.8-7.2s-0.6-5-1.8-7.2c-1.2-2.1-3-3.8-5.2-5.1C486.7,372.8,484.4,372.2,481.9,372.2z"/>
<path class="st0" d="M506.2,369.8h3.3v20.1c0,2.4,0,3.9,0.1,4.5c0.2,1.3,0.6,2.4,1.2,3.3s1.5,1.6,2.8,2.2s2.5,0.9,3.8,0.9
	c1.1,0,2.2-0.2,3.2-0.7s1.9-1.1,2.5-1.9c0.7-0.8,1.2-1.8,1.5-3c0.2-0.8,0.3-2.6,0.3-5.2v-20.1h3.3V390c0,3-0.3,5.4-0.9,7.2
	c-0.6,1.8-1.7,3.4-3.5,4.8c-1.7,1.4-3.8,2-6.3,2c-2.7,0-5-0.6-6.9-1.9c-1.9-1.3-3.2-3-3.8-5.1c-0.4-1.3-0.6-3.6-0.6-7L506.2,369.8
	L506.2,369.8z"/>
<path class="st0" d="M536.6,369.8h6.6c3.7,0,6.2,0.2,7.5,0.5c2,0.5,3.6,1.4,4.8,2.9s1.8,3.3,1.8,5.5c0,1.8-0.4,3.4-1.3,4.8
	c-0.9,1.4-2.1,2.4-3.7,3.1c-1.6,0.7-3.8,1.1-6.6,1.1l12,15.4h-4.1l-11.9-15.4h-1.8v15.4h-3.3V369.8L536.6,369.8z M539.9,373.1v11.3
	h5.7c2.2,0,3.9-0.2,4.9-0.6c1.1-0.4,1.9-1.1,2.5-2s0.9-2,0.9-3.1s-0.3-2.1-0.9-3c-0.6-0.9-1.4-1.6-2.4-2s-2.6-0.6-4.9-0.6
	C545.8,373.1,539.9,373.1,539.9,373.1z"/>
<path class="st0" d="M595.4,376l-2.6,2c-1.4-1.9-3.2-3.3-5.2-4.3s-4.3-1.5-6.7-1.5c-2.7,0-5.1,0.6-7.4,1.9c-2.3,1.3-4,3-5.3,5.1
	c-1.2,2.1-1.9,4.6-1.9,7.2c0,4.1,1.4,7.4,4.2,10.1s6.3,4.1,10.5,4.1c4.7,0,8.5-1.8,11.7-5.5l2.6,2c-1.7,2.1-3.7,3.7-6.2,4.9
	c-2.5,1.2-5.2,1.7-8.3,1.7c-5.8,0-10.4-1.9-13.8-5.8c-2.8-3.3-4.2-7.2-4.2-11.8c0-4.9,1.7-9,5.1-12.3c3.4-3.3,7.7-5,12.8-5
	c3.1,0,5.9,0.6,8.4,1.8C591.8,372,593.8,373.8,595.4,376z"/>
<path class="st0" d="M602.1,369.8h19v3.3h-15.7v10.4H621v3.3h-15.6v13.1H621v3.3h-18.9L602.1,369.8L602.1,369.8z"/>
<g>
	<path class="st0" d="M94.1,442.1c0.3-0.3,0.4-0.7,0.4-1.1c0-0.3-0.1-0.7-0.3-0.9c-0.2-0.3-0.5-0.5-0.9-0.6s-1-0.2-1.9-0.2
		c-0.6,0-1.1,0-1.7,0c0,0.9,0,1.9,0,2.8c0,0.3,0,0.4,0,0.5s0.1,0.1,0.2,0.2c0.1,0,0.3,0,0.6,0c0.3,0,0.6,0,0.9,0
		c0.9,0,1.5,0,1.8-0.1C93.5,442.6,93.8,442.4,94.1,442.1z"/>
	<path class="st0" d="M57.5,432.6c-0.2-0.2-0.6-0.3-1.1-0.4c-0.7-0.1-1.5-0.3-2.2-0.4c-0.2,1-0.4,2.1-0.7,3.1
		c0.6,0.1,1.2,0.2,1.8,0.4c0.6,0.1,1,0.2,1.3,0.1c0.4,0,0.7-0.2,0.9-0.4c0.3-0.2,0.4-0.5,0.5-0.9c0.1-0.3,0-0.6-0.1-0.9
		C57.9,433,57.7,432.8,57.5,432.6z"/>
	<path class="st0" d="M74.6,438.3c0.3-0.1,0.5-0.3,0.7-0.5c0.2-0.3,0.3-0.6,0.4-1c0-0.4,0-0.8-0.2-1.1c-0.2-0.3-0.4-0.5-0.8-0.6
		c-0.2-0.1-0.7-0.2-1.4-0.2c-0.4,0-0.7-0.1-1.1-0.1c-0.1,1.2-0.3,2.3-0.4,3.5c0.4,0,0.9,0.1,1.3,0.1
		C73.8,438.4,74.3,438.4,74.6,438.3z"/>
	<path class="st0" d="M145.8,409.5c0,0,10.5,2.2,15-4.7c0,0-7.9-1.3-13.8,0.2c1.3-4.3,2.2-8.1,2.7-11.3c1.1,0.8,2.4,1.3,2.4,1.3
		c7.2-6.4-0.2-10-1.7-10.7c0-0.7,0-1,0-1v-47.6c-14.3,0.1-25.2-1.1-33.6-2.8c1.7,0.4,3.4,0.7,5.1,0.9l-4.5,2.2h16v2.5h-32.6v-10.6
		c-2.4-1.1-4.8-2.4-6.8-3.9h-0.3v36.1h7.2v-14.4h32.6v2.4h-16l16,8v1.3l-18.7-9.4h-5.4l24.1,12.1l0,0h12.7v25.7l0,0
		c-0.1,5.5-1.4,21.4-13.7,40.1c-26.6,8.4-55.1,8.3-81.7-0.1c-15.2-23.2-13.6-42.1-13.6-42.1v-19.9v-3.7h17.5l-0.3-0.3l3.7-3.3
		l15.7,1.6c0.1-0.4,0.1-0.9,0.2-1.3l-13.8-2.2l2.4-2.1l11.7,3c0.4-1.3,0.9-2.4,1.5-3.6l-10.2-6v-3.1l11,8c0.2-0.4,0.5-0.7,0.7-1
		l-11.9-9.7l-0.1-5.4l4.9,0.3l9.7,11.9c0.4-0.3,0.7-0.6,1.1-0.8l-7.9-11l3.2,0.2l5.9,10c1.1-0.7,2.4-1.2,3.7-1.5l-3-11.7l2.2-2.2
		l2.1,13.5c0.4-0.1,0.8-0.1,1.3-0.2L87,327.9l3.3-3.4v35.6h2.6v-37c-0.9-0.8-1.3-1.3-1.3-1.3s-9.9,13.9-58.8,13.7v47.6
		c0,0,0,0.4,0,1c-1.6,0.7-8.8,4.3-1.7,10.6c0,0,1.3-0.5,2.4-1.2c0.5,3.2,1.3,7,2.6,11.3c-5.9-1.4-13.7-0.1-13.7-0.1
		c4.5,6.9,15,4.7,15,4.7l0.2-0.3c0.1,0.4,0.3,0.8,0.4,1.1c-3.3,0.2-8.6,1.5-8.6,1.5c2.9,3.7,8.8,3.6,10.8,3.5
		c0.2,0.4,0.3,0.7,0.5,1.1c-1.2,0.3-3.3,1-3.3,1c0.6,0.5,1.3,1,1.9,1.3l0,0c0.8,0.4,1.6,0.6,2.1,0.7c0.3,0.1,0.7,0.2,1,0.3
		c0.7,1.3,1.4,2.5,2.1,3.8c-0.2-0.1-0.4-0.2-0.6-0.2c-0.1,0,0,3.7-0.3,7.7c-2.9-0.7-5.6-1.7-8.1-3.1c0,0.1,1.1,2.4,1.5,5.2
		c0.3,2.7,0,6-5.6,6.8c6.6,3.3,14.2,4.9,22.1,4.5c0.1-0.6,0.2-1.3,0.3-1.9c-0.1-0.1-0.1-0.1-0.2-0.2c1.9,0.5,3.9,1,5.8,1.4
		c8.1,8.8,18.6,17.7,32.3,26.3c13.7-8.5,24.2-17.5,32.2-26.2c1.6-0.3,3.1-0.7,4.7-1.1c0.1,0.6,0.2,1.2,0.2,1.8
		c7.9,0.4,15.5-1.2,22.1-4.5c-5.6-0.8-5.9-4-5.6-6.8c0.4-2.8,1.5-5.1,1.5-5.2c-2.1,1.2-4.4,2.1-6.8,2.8c-0.3-3.8-0.2-7.4-0.2-7.4
		c-0.3,0.1-0.6,0.2-0.9,0.3c0.8-1.3,1.5-2.7,2.2-4c0.4-0.1,0.7-0.2,1.1-0.3c0.6-0.1,1.5-0.4,2.5-0.9l0,0c0.5-0.3,1-0.6,1.5-1
		c0,0-2.2-0.7-3.4-1.1c0.2-0.4,0.3-0.7,0.5-1.1c1.9,0.1,7.9,0.2,10.8-3.5c0,0-5.4-1.3-8.7-1.5c0.2-0.4,0.3-0.8,0.5-1.2L145.8,409.5z
		 M143.4,353.9l-2.6-2.4l-2.6,2.4l0.3-3.5l-3.5-0.5l2.9-2l-1.8-3.1l3.4,1l1.3-3.3l1.3,3.3l3.4-1l-1.8,3.1l2.9,2l-3.5,0.5
		L143.4,353.9z M44.4,346.6l1.5-3.1l1.5,3.1l3.4,0.5l-2.4,2.4l0.6,3.4l-3-1.6l-3,1.6l0.6-3.4l-2.4-2.4L44.4,346.6z M107.5,434.4
		c0,0.2,0,0.3,0,0.5c-0.1,0-0.2,0-0.3,0c-0.2,0-0.4,0.1-0.5,0.1c-0.1,0.1-0.2,0.2-0.2,0.3c0,0.1,0,0.4,0,0.7
		c0.1,1.8,0.3,3.6,0.4,5.4c0,0.3,0.1,0.5,0.1,0.6c0.1,0.1,0.2,0.2,0.3,0.2c0.1,0,0.3,0.1,0.5,0c0.1,0,0.2,0,0.3,0c0,0.2,0,0.3,0,0.5
		c-1.1,0.1-2.3,0.2-3.4,0.3c0-0.2,0-0.3,0-0.5c0.1,0,0.2,0,0.3,0c0.3,0,0.4-0.1,0.5-0.1c0.1-0.1,0.2-0.1,0.2-0.3c0-0.1,0-0.3,0-0.6
		c-0.1-1.9-0.3-3.7-0.4-5.6c0-0.3-0.1-0.5-0.1-0.6c-0.1-0.1-0.1-0.2-0.2-0.2s-0.3-0.1-0.5,0c-0.1,0-0.2,0-0.3,0c0-0.2,0-0.3,0-0.5
		C105.3,434.6,106.4,434.5,107.5,434.4z M100.1,434.9c0,0.2,0,0.3,0,0.5c-0.1,0-0.2,0-0.3,0c-0.2,0-0.4,0-0.5,0.1
		c-0.1,0-0.2,0.1-0.2,0.2s-0.1,0.2-0.1,0.5c0.1,2,0.1,3.9,0.2,5.9c0,0.3,0,0.4,0.1,0.5c0,0.1,0.1,0.1,0.2,0.2c0.1,0,0.2,0,0.5,0
		c0.2,0,0.3,0,0.5,0c0.5,0,1-0.1,1.4-0.3c0.4-0.2,0.7-0.4,1-0.7c0.3-0.3,0.5-0.8,0.8-1.3c0.2,0.1,0.4,0.1,0.6,0.1
		c-0.3,0.9-0.5,1.8-0.8,2.7c-2.1,0.1-4.3,0.2-6.4,0.3c0-0.2,0-0.3,0-0.5c0.1,0,0.2,0,0.3,0c0.3,0,0.5,0,0.5-0.1
		c0.1,0,0.2-0.1,0.2-0.2s0.1-0.3,0.1-0.5c-0.1-1.9-0.1-3.8-0.2-5.7c0-0.3,0-0.5-0.1-0.6c0-0.1-0.1-0.2-0.2-0.2s-0.3-0.1-0.5,0
		c-0.1,0-0.2,0-0.3,0c0-0.2,0-0.3,0-0.5C97.9,435,99,434.9,100.1,434.9z M87.3,442.9c0.1,0,0.2,0,0.3,0c0.3,0,0.5,0,0.6-0.1
		c0.2-0.1,0.2-0.3,0.2-0.6c0-2,0.1-3.9,0.1-5.9c0-0.3,0-0.5-0.1-0.6c0-0.1-0.1-0.2-0.2-0.2s-0.3-0.1-0.5-0.1c-0.1,0-0.2,0-0.3,0
		c0-0.2,0-0.3,0-0.5c1.4,0,2.7,0.1,4.1,0.1c1,0,1.7,0,2,0.1c0.5,0.1,1,0.4,1.3,0.7c0.3,0.3,0.5,0.7,0.5,1.2c0,0.3-0.1,0.7-0.2,0.9
		c-0.2,0.3-0.4,0.5-0.7,0.7c-0.2,0.1-0.5,0.2-0.8,0.3c0.5,0.1,0.8,0.2,1,0.3c0.4,0.2,0.6,0.4,0.9,0.7c0.2,0.3,0.3,0.7,0.3,1.1
		s-0.1,0.7-0.3,1.1c-0.2,0.3-0.5,0.6-0.9,0.8c-0.4,0.2-0.8,0.4-1.3,0.4c-0.5,0.1-1,0.1-1.6,0.1c-1.5,0-3,0-4.5-0.1
		C87.3,443.3,87.3,443.1,87.3,442.9z M77.7,434.5c1.1,0.1,2.2,0.2,3.3,0.2c0,0.2,0,0.3,0,0.5c-0.1,0-0.1,0-0.2,0c-0.3,0-0.5,0-0.6,0
		s-0.2,0.1-0.2,0.2c-0.1,0.1-0.1,0.3-0.1,0.6c-0.1,1.3-0.2,2.5-0.3,3.8c0,0.7,0,1.2,0.2,1.5c0.1,0.3,0.4,0.6,0.8,0.9
		c0.4,0.2,0.8,0.4,1.3,0.4s1-0.1,1.4-0.3c0.4-0.2,0.8-0.5,0.9-0.8c0.2-0.3,0.3-0.8,0.3-1.5c0.1-1.2,0.1-2.4,0.1-3.7
		c0-0.3,0-0.5-0.1-0.6s-0.1-0.2-0.2-0.3c-0.1-0.1-0.3-0.1-0.5-0.1c-0.1,0-0.2,0-0.2,0c0-0.2,0-0.3,0-0.5c1,0,1.9,0.1,2.9,0.1
		c0,0.2,0,0.3,0,0.5c-0.1,0-0.1,0-0.2,0c-0.3,0-0.5,0-0.7,0.2c-0.1,0.1-0.2,0.3-0.2,0.7c0,1.3-0.1,2.6-0.1,3.9
		c0,0.7-0.2,1.3-0.5,1.8s-0.7,0.8-1.3,1.1c-0.5,0.3-1.2,0.4-1.9,0.3c-0.7,0-1.3-0.2-1.8-0.5s-0.9-0.7-1.2-1.1
		c-0.2-0.4-0.3-1-0.3-1.6c0.1-1.4,0.2-2.8,0.3-4.1c0-0.3,0-0.5,0-0.6s-0.1-0.2-0.2-0.3c-0.1-0.1-0.3-0.1-0.5-0.1c-0.1,0-0.2,0-0.3,0
		C77.6,434.8,77.7,434.7,77.7,434.5z M69.1,441.6c0.1,0,0.1,0,0.2,0c0.3,0,0.5,0,0.6,0s0.2-0.1,0.3-0.2c0.1-0.1,0.1-0.3,0.1-0.6
		c0.2-1.9,0.4-3.8,0.7-5.7c0-0.3,0-0.4,0-0.5s-0.1-0.2-0.2-0.2c-0.1-0.1-0.3-0.1-0.6-0.1c-0.1,0-0.1,0-0.2,0c0-0.2,0-0.3,0.1-0.5
		c1.1,0.1,2.2,0.3,3.4,0.4c1,0.1,1.7,0.2,2.1,0.4c0.5,0.2,0.8,0.5,1.1,0.9c0.3,0.4,0.4,0.9,0.4,1.5c0,0.5-0.2,0.9-0.5,1.2
		c-0.3,0.4-0.7,0.7-1.2,0.8c-0.4,0.1-1.1,0.2-2,0.1c-0.5-0.1-1.1-0.1-1.6-0.2c-0.1,0.7-0.2,1.4-0.2,2.2c0,0.3,0,0.5,0,0.6
		s0.1,0.2,0.2,0.3c0.1,0.1,0.3,0.1,0.5,0.1c0.1,0,0.2,0,0.3,0c0,0.2,0,0.3-0.1,0.5c-1.1-0.1-2.3-0.2-3.4-0.4
		C69,441.9,69,441.8,69.1,441.6z M59.4,434.3c-0.1,0.4-0.3,0.8-0.5,1.1c-0.3,0.3-0.7,0.5-1.1,0.6c-0.5,0.1-1,0.1-1.8,0
		c0.6,1,1.2,2.1,1.8,3.1c0.1,0.3,0.2,0.4,0.3,0.5s0.3,0.3,0.4,0.4c0.1,0.1,0.3,0.2,0.5,0.2c0.1,0,0.1,0,0.2,0c0,0.2-0.1,0.3-0.1,0.5
		c-0.7-0.1-1.3-0.2-2-0.4c-0.8-1.5-1.6-3-2.4-4.6c-0.4-0.1-0.7-0.2-1.1-0.2c-0.2,0.8-0.4,1.7-0.5,2.5c-0.1,0.3-0.1,0.5-0.1,0.5
		c0,0.1,0.1,0.3,0.2,0.3c0.1,0.1,0.3,0.1,0.6,0.2c0.1,0,0.2,0,0.2,0c0,0.2-0.1,0.3-0.1,0.5c-1.1-0.2-2.2-0.5-3.4-0.7
		c0-0.2,0.1-0.3,0.1-0.5c0.1,0,0.2,0,0.3,0.1c0.2,0.1,0.4,0.1,0.5,0.1s0.2,0,0.2-0.1c0.1-0.1,0.1-0.1,0.2-0.2c0,0,0.1-0.2,0.1-0.6
		c0.4-1.8,0.8-3.6,1.2-5.4c0.1-0.2,0.1-0.4,0-0.5c0-0.1-0.1-0.2-0.2-0.3c-0.1-0.1-0.2-0.1-0.4-0.2c-0.1,0-0.2-0.1-0.3-0.1
		c0-0.2,0.1-0.3,0.1-0.5c1.4,0.3,2.9,0.6,4.3,0.9c0.8,0.2,1.4,0.4,1.8,0.6c0.4,0.2,0.7,0.6,0.8,0.9
		C59.4,433.5,59.4,433.9,59.4,434.3z M59.7,440.7c0-0.2,0.1-0.3,0.1-0.5c0.1,0,0.2,0,0.3,0c0.3,0,0.5,0.1,0.6,0
		c0.1,0,0.2-0.1,0.3-0.2s0.1-0.2,0.1-0.5c0.3-1.9,0.6-3.8,0.9-5.7c0-0.3,0-0.4,0-0.5s-0.1-0.2-0.2-0.3c-0.1,0-0.3-0.1-0.7-0.2
		c0-0.2,0.1-0.3,0.1-0.5c2.3,0.4,4.6,0.7,6.9,1c0.2,0.8,0.3,1.5,0.5,2.3c-0.2,0-0.4,0.1-0.6,0.1c-0.1-0.4-0.2-0.7-0.3-0.9
		c-0.1-0.2-0.3-0.4-0.5-0.6s-0.4-0.3-0.6-0.4s-0.6-0.2-1.2-0.2c-0.7-0.1-1.4-0.2-2.1-0.3c-0.2,1-0.3,2-0.5,3.1
		c0.3,0.1,0.7,0.1,1,0.2c0.4,0.1,0.7,0,0.9-0.1c0.2-0.1,0.4-0.2,0.5-0.4c0.1-0.1,0.1-0.4,0.2-0.7v-0.1c0.2,0,0.4,0.1,0.6,0.1
		c-0.2,1.2-0.4,2.4-0.5,3.7c-0.2,0-0.4-0.1-0.6-0.1c0-0.1,0-0.2,0-0.3c0-0.3,0-0.5,0-0.6s-0.1-0.3-0.2-0.4c-0.1-0.1-0.2-0.2-0.3-0.3
		c-0.1-0.1-0.4-0.1-0.7-0.2s-0.7-0.1-1-0.2c-0.1,0.9-0.3,1.8-0.4,2.7c0,0.3-0.1,0.5,0,0.5c0,0.1,0.1,0.1,0.1,0.2
		c0.1,0,0.2,0.1,0.5,0.1c0.4,0.1,0.9,0.1,1.3,0.2c0.7,0.1,1.3,0.1,1.8,0c0.4-0.1,0.8-0.3,1.2-0.6c0.3-0.2,0.6-0.6,0.9-1.1
		c0.2,0.1,0.4,0.2,0.5,0.3c-0.4,0.8-0.9,1.7-1.3,2.5C64.6,441.5,62.2,441.2,59.7,440.7z M91.6,464.2c-9.9-6.2-18-12.6-24.6-18.9
		c16.3,2.7,32.9,2.7,49.2,0C109.5,451.6,101.4,458,91.6,464.2z M115.8,441.4c-0.6,0.6-1.3,0.9-2.3,1c-0.5,0.1-1,0-1.4-0.1
		s-0.9-0.3-1.4-0.6c-0.1,0.3-0.1,0.6-0.2,0.8c-0.1,0-0.3,0-0.4,0c-0.3-1-0.6-2-0.9-3c0.2-0.1,0.4-0.1,0.6-0.2c0.3,0.5,0.6,1,1,1.3
		c0.4,0.4,0.8,0.6,1.3,0.8c0.5,0.2,0.9,0.2,1.4,0.2c0.6-0.1,1.1-0.3,1.5-0.7c0.3-0.3,0.5-0.7,0.4-1.1c0-0.4-0.2-0.6-0.5-0.9
		c-0.3-0.2-0.8-0.4-1.6-0.5c-0.5-0.1-1.1-0.2-1.6-0.3c-0.9-0.1-1.5-0.4-1.9-0.8c-0.4-0.3-0.6-0.8-0.7-1.3c0-0.4,0-0.8,0.2-1.1
		c0.2-0.4,0.5-0.7,1-0.9c0.5-0.3,1-0.4,1.5-0.5s0.9,0,1.4,0.1c0.3,0.1,0.6,0.2,0.9,0.4c0.1-0.2,0.1-0.4,0.2-0.6c0.1,0,0.3,0,0.4-0.1
		c0.3,0.8,0.7,1.7,1,2.5c-0.2,0.1-0.4,0.2-0.6,0.2c-0.5-0.7-1-1.2-1.6-1.5c-0.5-0.3-1.1-0.4-1.7-0.3c-0.4,0-0.7,0.1-0.9,0.3
		c-0.3,0.2-0.5,0.3-0.6,0.6c-0.1,0.2-0.2,0.4-0.2,0.6s0.1,0.4,0.2,0.5c0.1,0.2,0.3,0.3,0.6,0.4c0.2,0.1,0.6,0.2,1.2,0.3
		c0.6,0.1,1.1,0.2,1.7,0.3c0.2,0,0.5,0.1,0.9,0.2s0.7,0.2,0.9,0.4c0.2,0.2,0.4,0.3,0.6,0.6c0.2,0.2,0.3,0.5,0.3,0.8
		C116.6,440.2,116.3,440.8,115.8,441.4z M123.7,432.8c-0.1,0.1-0.2,0.1-0.2,0.2c-0.1,0.1-0.1,0.2-0.2,0.5c-0.6,1.4-1.1,2.8-1.7,4.1
		c0.1,0.7,0.2,1.4,0.3,2.1c0.1,0.3,0.1,0.5,0.2,0.6s0.2,0.1,0.3,0.2c0.1,0,0.4,0,0.8-0.1c0,0.2,0.1,0.3,0.1,0.5
		c-1.2,0.2-2.3,0.4-3.5,0.5c0-0.2-0.1-0.3-0.1-0.5c0.1,0,0.2,0,0.3,0c0.3,0,0.5-0.1,0.6-0.2s0.2-0.1,0.2-0.3c0-0.1,0-0.3,0-0.6
		c-0.1-0.6-0.2-1.3-0.3-1.9c-1-1.2-1.9-2.4-2.9-3.6c-0.2-0.3-0.4-0.5-0.5-0.5s-0.4,0-0.7,0c0-0.2,0-0.3-0.1-0.5
		c1.1-0.1,2.1-0.3,3.2-0.5c0,0.2,0.1,0.3,0.1,0.5c-0.1,0-0.2,0-0.4,0.1c-0.2,0-0.4,0.1-0.4,0.1c-0.1,0-0.1,0.1-0.1,0.2
		s0.1,0.2,0.2,0.3l0.1,0.1c0.7,0.9,1.4,1.8,2.1,2.8c0.5-1.1,0.9-2.3,1.3-3.4c0.1-0.1,0.1-0.2,0.1-0.3v-0.1c0-0.1,0-0.1-0.1-0.1
		c0,0-0.1-0.1-0.2-0.1c0,0-0.2,0-0.3,0c-0.1,0-0.2,0-0.3,0.1c0-0.2-0.1-0.3-0.1-0.5c0.9-0.1,1.7-0.3,2.6-0.4c0,0.2,0.1,0.3,0.1,0.5
		C124,432.7,123.8,432.8,123.7,432.8z M132.6,438.5c-0.5,0.6-1.2,1-2.2,1.2c-0.5,0.1-1,0.1-1.4,0.1c-0.4-0.1-0.9-0.2-1.4-0.5
		c0,0.3-0.1,0.6-0.1,0.8c-0.1,0-0.3,0.1-0.4,0.1c-0.4-1-0.8-1.9-1.1-2.9c0.2-0.1,0.4-0.1,0.6-0.2c0.3,0.5,0.7,0.9,1.1,1.2
		c0.4,0.3,0.9,0.5,1.3,0.6c0.5,0.1,0.9,0.1,1.4,0c0.6-0.1,1.1-0.4,1.5-0.9c0.3-0.4,0.4-0.7,0.3-1.1c-0.1-0.4-0.3-0.6-0.6-0.8
		c-0.3-0.2-0.9-0.3-1.6-0.3c-0.5,0-1.1-0.1-1.6-0.1c-0.9-0.1-1.6-0.3-2-0.6c-0.4-0.3-0.7-0.7-0.8-1.2c-0.1-0.4,0-0.8,0.1-1.1
		c0.2-0.4,0.5-0.7,0.9-1s0.9-0.5,1.5-0.6c0.5-0.1,0.9-0.1,1.4,0c0.3,0,0.6,0.1,0.9,0.3c0-0.2,0.1-0.4,0.1-0.6c0.1,0,0.3-0.1,0.4-0.1
		c0.4,0.8,0.8,1.6,1.2,2.4c-0.2,0.1-0.4,0.2-0.5,0.3c-0.5-0.6-1.1-1.1-1.8-1.4c-0.6-0.2-1.1-0.3-1.7-0.2c-0.4,0.1-0.7,0.2-0.9,0.4
		c-0.3,0.2-0.4,0.4-0.5,0.6s-0.1,0.4-0.1,0.6s0.1,0.4,0.3,0.5c0.1,0.2,0.3,0.3,0.6,0.4c0.2,0.1,0.7,0.2,1.2,0.2
		c0.6,0,1.1,0.1,1.7,0.1c0.2,0,0.5,0.1,0.9,0.1c0.4,0.1,0.7,0.2,1,0.3c0.2,0.1,0.5,0.3,0.6,0.5c0.2,0.2,0.3,0.5,0.4,0.8
		C133.3,437.2,133.1,437.9,132.6,438.5z"/>
	<path class="st0" d="M92.8,438.7c0.4-0.1,0.8-0.3,1-0.6c0.2-0.3,0.3-0.6,0.3-1c0-0.3-0.1-0.6-0.3-0.9c-0.2-0.2-0.5-0.4-0.8-0.5
		c-0.2-0.1-0.7-0.1-1.4-0.1c-0.6,0-1.3,0-1.9,0c0,1,0,2.1,0,3.1c0.5,0,1.1,0,1.6,0C92,438.8,92.5,438.8,92.8,438.7z"/>
	<polygon class="st0" points="103.3,360.2 125.3,360.2 103.3,349.2 	"/>
	<path class="st0" d="M116,332.8c-1.2-0.3-2.4-0.6-3.7-0.9l-8.4,4.2h5.4L116,332.8z"/>
</g>
<path class="st0" d="M103.3,329.1v6l7.2-3.6C107.7,330.7,105.3,329.9,103.3,329.1z"/>
<path class="st0" d="M82.7,465.7c-1.8-2.5-4.8-1.9-6.2-2.6c-1.4-0.6-3.3-2-4.6-5.3c0,0,0.3,4.1,1.4,5.9c0,0-2.6-1.3-3.3-5.8
	c-0.6-4.6-5.4-5.1-5.4-5.1s0.8,1.8-0.7,1.4c0,0-4-10.3-16.4-4.4c0,0,3.9-0.8,7.2,9.3c0.9,2.7,7.8,5.7,7.8,5.7s-3.9,0.5-8.1-2.7
	c0,0,5.7,5.8,8.3,6.3c2.6,0.5,5.3-0.2,5.3-0.2s-2.6,1.5-1.2,3.2c1.4,1.6,6.7,0.3,8.9-0.7c2.2-1,11.2-1.3,11.2-1.3
	S84.6,468.2,82.7,465.7z M67.5,463.7c-2.5-3-11.7-11.2-11.7-11.2s7.7,4.1,12.2,9.3c4.4,5.2,12.7,6.1,12.7,6.1
	C76.5,468.5,70,466.7,67.5,463.7z"/>
<path class="st0" d="M96.3,469.3c0,0,9,0.3,11.2,1.3s7.5,2.3,8.9,0.7c1.4-1.6-1.2-3.2-1.2-3.2s2.7,0.7,5.3,0.2
	c2.6-0.5,8.3-6.3,8.3-6.3c-4.2,3.2-8.1,2.7-8.1,2.7s6.9-3.1,7.8-5.7c3.2-10.1,7.2-9.3,7.2-9.3c-12.4-5.9-16.4,4.4-16.4,4.4
	c-1.5,0.4-0.7-1.4-0.7-1.4s-4.7,0.5-5.4,5.1c-0.6,4.6-3.3,5.9-3.3,5.9c1.1-1.8,1.4-5.9,1.4-5.9c-1.3,3.4-3.2,4.7-4.6,5.3
	c-1.4,0.6-4.4,0.1-6.2,2.6C98.6,468.2,96.3,469.3,96.3,469.3z M102.5,467.9c0,0,8.3-0.9,12.7-6.1c4.4-5.2,12.2-9.3,12.2-9.3
	s-9.2,8.2-11.7,11.2C113.2,466.7,106.7,468.5,102.5,467.9z"/>
<polygon class="st0" points="41.6,439 53.4,444.4 53.6,442.7 "/>
<polygon class="st0" points="140.6,438.9 128.8,444.3 128.6,442.6 "/>
<polygon class="st0" points="79,447.5 79.6,449 81.2,448.6 80.4,450 81.7,450.9 80.1,451.1 80.2,452.7 79,451.6 77.8,452.7 
	77.9,451.1 76.3,450.9 77.7,450 76.9,448.6 78.4,449 "/>
<polygon class="st0" points="105.2,448.4 105.6,449.4 106.7,449.1 106.1,450 107,450.6 106,450.8 106,451.9 105.2,451.2 
	104.4,451.9 104.5,450.8 103.4,450.6 104.3,450 103.8,449.1 104.8,449.4 "/>
<polygon class="st0" points="91.8,450.1 92.8,452.7 95.4,451.9 94.1,454.2 96.3,455.8 93.6,456.2 93.8,458.9 91.8,457 89.8,458.9 
	90,456.2 87.3,455.8 89.6,454.2 88.2,451.9 90.8,452.7 "/>
<path class="st0" d="M92.8,428.7c0,0,0.3-1.4-0.7-3.7c-1.1-2.3-0.3-3.7,0.3-4.3c0.5-0.7-1.9,1-1.9,1v3.6L92.8,428.7z"/>
<path class="st0" d="M169.8,349c6.2-9.4-1.3-17.6-1.3-17.6C164.5,343.9,169.8,349,169.8,349z"/>
<path class="st0" d="M170.2,356.9c10.3-3.1,7.1-15.3,7.1-15.3C169.8,345.8,170.2,356.9,170.2,356.9z"/>
<path class="st0" d="M168.4,367.9c11.5-1.9,9.8-14,9.8-14C168.7,358,168.4,367.9,168.4,367.9z"/>
<path class="st0" d="M165.1,378.1c12.7-0.7,12.4-12.3,12.4-12.3C166.9,368.4,165.1,378.1,165.1,378.1z"/>
<path class="st0" d="M160.3,387.5c13.9,0.6,14.8-10.4,14.8-10.4C163.1,378.7,160.3,387.5,160.3,387.5z"/>
<path class="st0" d="M154.7,395.6c14.7,2.1,16.8-8.2,16.8-8.2C158.1,387.9,154.7,395.6,154.7,395.6z"/>
<path class="st0" d="M148,402.5c15.3,3.7,18.6-5.9,18.6-5.9C152.4,395.8,148,402.5,148,402.5z"/>
<path class="st0" d="M162.6,352c0,0.2,0.1,0.4,0.1,0.6l0,0l0,0l0,0c0.2,0.7,0.5,1.3,0.8,1.8c0.9,1.4,2.1,1.9,2.2,1.9c0,0,0,0,0.1,0
	c0.1,0.1,0.2,0.1,0.3,0.1h0.1h0.1c1,0.4,1.8,0.4,2,0.4l0,0l0,0c0,0,0.5-2.7,0.4-4.3l0,0c0-0.8-0.1-1.4-0.2-2.1l0,0
	c0,0-0.7-5.4-5.9-5.9l0,0C162.2,348,162.2,350.3,162.6,352L162.6,352z"/>
<path class="st0" d="M168.4,357.2L168.4,357.2C168.4,357.1,168.4,357.1,168.4,357.2L168.4,357.2z"/>
<path class="st0" d="M166.3,367.9c3.9-11-4.9-12-4.9-12C157.5,367.7,166.3,367.9,166.3,367.9z"/>
<path class="st0" d="M162.9,377.9c5.5-10.1-4.2-11.8-4.2-11.8C153.4,376.9,162.9,377.9,162.9,377.9z"/>
<path class="st0" d="M158,387.1c6.9-9.1-3.5-11.4-3.5-11.4C147.6,384.8,158,387.1,158,387.1z"/>
<path class="st0" d="M93.7,324L93.7,324l0.1,0.1C93.8,324,93.7,324,93.7,324z"/>
<path class="st0" d="M14.7,331.4c0,0-7.4,8.3-1.3,17.6C13.4,349,18.7,343.9,14.7,331.4z"/>
<path class="st0" d="M13,356.9c0,0,0.4-11.1-7.1-15.3C5.9,341.5,2.7,353.8,13,356.9z"/>
<path class="st0" d="M14.8,367.9c0,0-0.3-9.9-9.8-14C5,353.9,3.3,366,14.8,367.9z"/>
<path class="st0" d="M18.1,378.1c0,0-1.7-9.7-12.4-12.3C5.7,365.8,5.4,377.4,18.1,378.1z"/>
<path class="st0" d="M22.9,387.5c0,0-2.8-8.7-14.8-10.4C8.1,377.1,9,388.1,22.9,387.5z"/>
<path class="st0" d="M28.5,395.6c0,0-3.4-7.6-16.8-8.2C11.6,387.3,13.8,397.7,28.5,395.6z"/>
<path class="st0" d="M35.2,402.5c0,0-4.3-6.7-18.6-5.9C16.5,396.6,19.9,406.2,35.2,402.5z"/>
<path class="st0" d="M14.6,350.7c-0.1,0.6-0.2,1.3-0.2,2.1l0,0c-0.1,1.6,0.4,4.3,0.4,4.3l0,0l0,0c0.2,0,1-0.1,2-0.4h0.1H17
	c0.1-0.1,0.2-0.1,0.3-0.1c0,0,0,0,0.1,0c0.1-0.1,1.3-0.5,2.2-1.9c0.3-0.5,0.6-1.1,0.8-1.8l0,0l0,0l0,0c0.1-0.2,0.1-0.4,0.1-0.6l0,0
	c0.4-1.7,0.5-4.1,0-7.3l0,0C15.3,345.3,14.6,350.7,14.6,350.7L14.6,350.7z"/>
<path class="st0" d="M14.8,357.2L14.8,357.2C14.8,357.1,14.8,357.1,14.8,357.2L14.8,357.2z"/>
<path class="st0" d="M16.9,367.9c0,0,8.8-0.1,4.9-12C21.8,355.9,12.9,356.9,16.9,367.9z"/>
<path class="st0" d="M20.3,377.9c0,0,9.5-1,4.2-11.8C24.5,366.1,14.8,367.9,20.3,377.9z"/>
<path class="st0" d="M25.2,387.1c0,0,10.4-2.3,3.5-11.4C28.7,375.7,18.4,378,25.2,387.1z"/>
<g>
	<path class="st0" d="M104.8,401.4c3.8,3.9,7.9,7.9,7,10.6s-4.8,2.8-4.8,2.8s2.1,1.2,3.8,0.7c1.7-0.6,3.9-2.9,3.5-6s-4.9-9-4.9-9
		l2.1-2.5c0,0,4.7-3.2,6.1-6.6c0,0-4,4.8-8.9,6.2c-4.6,1.3-3.1-3.4-2.7-4.1c-0.4,0.4-2.6,2.3-2.6,4.6c-5.6-5.2-1.9-11.3-0.8-12.8
		c2.6,0.6,6,1.5,9,3c0,0-6.9-5.2-13.5-3.7c0,0,1.8,0.2,4.3,0.7c-7.6,6.3-1.3,11.5,0.9,13C103.3,399.3,103.7,400.3,104.8,401.4z"/>
	<path class="st0" d="M105.9,393.4C105.9,393.5,106,393.4,105.9,393.4C105.9,393.4,105.9,393.5,105.9,393.4z"/>
	<path class="st0" d="M110.1,377.6c5.6,4.8,3.5,14.1,3.5,14.1s1.7-1.8,1.7-6.4S110.1,377.5,110.1,377.6z"/>
	<path class="st0" d="M98.4,383.6c0,0,8.3-1.8,14.9,5.4C113.3,389,108.2,379.9,98.4,383.6z"/>
	<path class="st0" d="M94.3,368.1c0,0,15.2,3.8,15.9,9.5C110.2,377.6,113.7,371.8,94.3,368.1z"/>
	<path class="st0" d="M96.5,371.4c0,0,0.9,2.3,3.6,3.9c-0.2-0.1-0.3-0.1-0.4-0.2c-0.6,0.5-1,1.2-1,1.9c0,1.3,1.2,2.4,2.6,2.4
		s2.6-1.1,2.6-2.4c0-0.1,0-0.2,0-0.3c1.3,0.2,2.8,0.2,4.5,0C108.4,376.7,100.8,376.9,96.5,371.4z M100.3,377.5c0-0.6,0.4-1,0.9-1
		s0.9,0.5,0.9,1c0,0.6-0.4,1-0.9,1S100.3,378.1,100.3,377.5z"/>
	<path class="st0" d="M96.8,374.5c0,0-9.2-3.7-15.8,4.8C81,379.3,88.1,373.9,96.8,374.5z"/>
	<path class="st0" d="M116.1,412.7L116.1,412.7L116.1,412.7c0.9-0.6,7.6-6.1-3.9-14.3l-2.1,2.3l3.4,2.8c0.1,0.1,0.3,0.2,0.5,0.4
		c2.4,2.3,2.7,4.8,2.6,6.5C116.5,411.6,116.1,412.6,116.1,412.7z"/>
	<path class="st0" d="M92.3,427.2c-0.7,2.8,1.3,3.4,1.3,3.4c0-1.8,1.2-4.5,1.3-4.7c0.8-1.7,1.5-2.1,0.3-3.8c-1.1-1.6-4-5.9-5.1-9.2
		c-0.8-3.1,4.8-9.1,8.4-12.6c1.7-1.6,2.9-2.7,2.9-2.7l-5.7-0.5c0,0-9.7,12.4-8.6,15.9c0,0.1,0.1,0.2,0.1,0.3l0,0l0,0l0,0
		c0.5,1.2,1.4,3.2,4.5,6.2c0.1,0.1,0.1,0.1,0.1,0.1l0.1,0.1c1.5,1.6,1.7,2.9,1.6,3.9l0,0l0,0C93.3,424.8,92.2,427,92.3,427.2z"/>
	<path class="st0" d="M40.8,373.5c1.8,30.8,20.9,18.9,25.1,15.9c4.1-3.2,7.4-3.3,9.2-3c0.2,0.2,0.3,0.4,0.4,0.6
		c0.4,0.8,1,1.5,1.8,2.1c0.2,0.1,0.2,0.2,0.3,0.2c0.8,0.7,1.8,1.3,2.8,1.9c1.3,0.9,2.5,1.8,3.3,2.4c0.1,0.1,0.1,0.1,0.2,0.2
		c2.7,2.8,0,8.7-2.5,14.7s2.9,6.4,6.3,10.2c3.3,3.8,1.9,4.2,1.5,7.5c-0.1,1-0.1,1.7,0.1,2.2c0.4,1.2,1.3,1.3,1.4,1.3l0,0l0,0l0,0
		c0,0,0.3-0.5,1.3-4.1c1.4-4.6-1.1-5.3-4.9-10.7c-3.8-5.4-0.2-4.9,6.3-17.6s-2.4-18-2.4-18c5.1,11.1-1.9,17.5-3.3,17.5
		c-0.2,0-0.3,0-0.4-0.1c0-0.1-2.9-3.4,3-12.3c0,0-7.7,0.1-6.5,7.2c-0.3-0.2-0.5-0.3-0.8-0.4c-0.2-0.1-0.3-0.1-0.5-0.2
		c-0.5-0.3-1-0.5-1.4-0.8c0-0.2,0-0.4,0-0.6c1.4-13,12.6-13.3,12.6-13.3c-12.4-1.6-15,9.5-15.2,10.6c-0.1,0.4-0.2,0.7-0.2,1
		c-1.9-2.3-2.2-4.5-2.3-5c0-1,0.1-2.1,0.3-3.2c7.1-5.7,14.2-6.1,14.2-6.1c-6.4,0-10.8,1.9-13.7,4.1c0.1-0.3,0.2-0.5,0.3-0.8
		c4.2-4.1,11.3-8.4,21.2-7.3c0,0-11.2-3.7-20.2,4.7c0-0.1,0.1-0.1,0.1-0.2c1.3-2,2.9-3.4,4.4-4.4l0,0c7.4-5,16-3.5,16-3.5
		c12.5,2,19.5,14.3,19.5,14.3l0,0c4,6.2-1.1,9.5-1.1,9.5s2.7,3.5,6.6-3.9s7.6-6.6,10.8-4.1s0.7,4.8-2.2,4.3s-2.4-2.8-2.4-2.8
		s-3.4-1-3.2,3.1c0,0.2,0.1,0.4,0.1,0.6l0,0l0,0c0.6,3.6,5.2,5.1,7.7,5.4c3,0.4,5,1.8,6.9,0s0-4.4,0-4.4s-1-0.7-3.6-6.6
		c-2.5-5.9-6.6-3.8-6.6-3.8s0.1-0.2,0.2-0.7c0.3-1.1,0.4-3.5-2.2-5.6l-0.1-0.1l0,0l0,0c-1.6-1.2-3.5-1.8-3.5-1.8s0,0-0.3,3.7
		s2.2,4.8,2.2,4.8s0,0-0.7-1.6c-0.7-1.5-0.2-3.9-0.2-3.9c4.5,0.7,1.7,5.7,1.7,5.7c-0.5,0.6-1.6,1.7-3.2,3.6c-2.5,2.8-3.8,2-6.2-2.8
		c-2.4-4.7-8.4-13.4-18.6-15.1c-10.3-1.7-22.4,3.6-33.5,15.2c-2.7,2.9-5.2,5.4-7.5,7.8C46.4,399.6,40.5,373.7,40.8,373.5z"/>
</g>
<g>
	<path class="st0" d="M205.9,423.4h5.2l6.6,19.8l6.6-19.7h5.2l4.7,28.3H229l-3-17.9l-6,17.9h-4.7l-6-17.9l-3.1,17.9H201L205.9,423.4
		z"/>
	<path class="st0" d="M247.2,423.4h5.5l10.9,28.3H258l-2.2-5.8h-11.5l-2.3,5.8h-5.6L247.2,423.4z M249.9,430.9l-3.8,9.7h7.6
		L249.9,430.9z"/>
	<path class="st0" d="M267.7,423.4h5.2L285,442v-18.6h5.4v28.3h-5.2l-12.1-18.5v18.5h-5.4V423.4z"/>
	<path class="st0" d="M305.4,423.4h5.5l10.9,28.3h-5.6l-2.2-5.8h-11.5l-2.3,5.8h-5.6L305.4,423.4z M308.2,430.9l-3.8,9.7h7.6
		L308.2,430.9z"/>
	<path class="st0" d="M352,428.1l-3.8,3.7c-2.4-2.5-5.2-3.8-8.4-3.8c-2.8,0-5.1,0.9-7,2.8c-1.9,1.8-2.8,4.1-2.8,6.7
		c0,2.7,1,5,2.9,6.9c2,1.9,4.4,2.8,7.2,2.8c1.9,0,3.4-0.4,4.7-1.2s2.3-2,3.1-3.7h-8.2v-5.1h14.2v1.2c0,2.5-0.6,4.8-1.9,7
		s-2.9,3.9-5,5.1c-2,1.2-4.4,1.7-7.2,1.7c-2.9,0-5.6-0.6-7.9-1.9s-4.1-3.1-5.5-5.4s-2-4.9-2-7.6c0-3.7,1.2-7,3.7-9.8
		c2.9-3.3,6.8-4.9,11.5-4.9c2.5,0,4.8,0.5,6.9,1.4C348.5,424.9,350.3,426.2,352,428.1z"/>
	<path class="st0" d="M359,423.4h15.4v5.3h-10.1v5.1h10.1v5.2h-10.1v7.4h10.1v5.3H359V423.4z"/>
	<path class="st0" d="M382.2,423.4h5.2l6.6,19.7l6.6-19.7h5.2l4.7,28.3h-5.2l-3-17.9l-6,17.9h-4.7l-6-17.9l-3.1,17.9h-5.2
		L382.2,423.4z"/>
	<path class="st0" d="M414.9,423.4h15.4v5.3h-10.1v5.1h10.1v5.2h-10.1v7.4h10.1v5.3h-15.4V423.4z"/>
	<path class="st0" d="M435.4,423.4h5.2l12.1,18.6v-18.6h5.4v28.3h-5.2l-12.2-18.5v18.5h-5.4v-28.3H435.4z"/>
	<path class="st0" d="M461.7,423.4h15.6v5.3h-5.2v23h-5.4v-23h-5V423.4z"/>
	<path class="st0" d="M506.8,427.3l-4,3.5c-1.4-1.9-2.8-2.9-4.3-2.9c-0.7,0-1.3,0.2-1.7,0.6c-0.4,0.4-0.7,0.8-0.7,1.3
		s0.2,0.9,0.5,1.3c0.4,0.6,1.8,1.8,3.9,3.6c2.1,1.7,3.3,2.8,3.7,3.2c1.1,1.1,1.9,2.2,2.3,3.2s0.7,2.1,0.7,3.3c0,2.3-0.8,4.2-2.4,5.7
		s-3.7,2.3-6.3,2.3c-2,0-3.8-0.5-5.3-1.5s-2.8-2.5-3.8-4.7l4.5-2.7c1.4,2.5,2.9,3.7,4.7,3.7c0.9,0,1.7-0.3,2.3-0.8s0.9-1.2,0.9-1.9
		c0-0.6-0.2-1.3-0.7-1.9s-1.5-1.6-3.1-2.9c-3.1-2.5-5.1-4.4-6-5.8s-1.3-2.7-1.3-4.1c0-2,0.7-3.6,2.2-5s3.3-2.1,5.5-2.1
		c1.4,0,2.8,0.3,4,1C504,424.4,505.3,425.6,506.8,427.3z"/>
	<path class="st0" d="M510.5,423.4h5.8l5.3,10.2l5.3-10.2h5.7l-8.3,16v12.2h-5.4v-12.2L510.5,423.4z"/>
	<path class="st0" d="M551.7,427.3l-4,3.5c-1.4-1.9-2.8-2.9-4.3-2.9c-0.7,0-1.3,0.2-1.7,0.6s-0.7,0.8-0.7,1.3s0.2,0.9,0.5,1.3
		c0.4,0.6,1.8,1.8,3.9,3.6c2.1,1.7,3.3,2.8,3.7,3.2c1.1,1.1,1.9,2.2,2.3,3.2s0.7,2.1,0.7,3.3c0,2.3-0.8,4.2-2.4,5.7
		s-3.7,2.3-6.3,2.3c-2,0-3.8-0.5-5.3-1.5s-2.8-2.5-3.8-4.7l4.5-2.7c1.4,2.5,2.9,3.7,4.7,3.7c0.9,0,1.7-0.3,2.3-0.8s0.9-1.2,0.9-1.9
		c0-0.6-0.2-1.3-0.7-1.9s-1.5-1.6-3.1-2.9c-3.1-2.5-5.1-4.4-6-5.8s-1.3-2.7-1.3-4.1c0-2,0.7-3.6,2.2-5s3.3-2.1,5.5-2.1
		c1.4,0,2.8,0.3,4,1C548.8,424.4,550.2,425.6,551.7,427.3z"/>
	<path class="st0" d="M554.6,423.4h15.6v5.3H565v23h-5.5v-23h-5v-5.3H554.6z"/>
	<path class="st0" d="M573.9,423.4h15.4v5.3h-10.1v5.1h10.1v5.2h-10.1v7.4h10.1v5.3h-15.4V423.4z"/>
	<path class="st0" d="M597.1,423.4h5.2l6.6,19.7l6.6-19.7h5.2l4.7,28.3h-5.2l-3-17.9l-6,17.9h-4.7l-6-17.9l-3.1,17.9h-5.2
		L597.1,423.4z"/>
</g>
</svg>
