<?xml version="1.0" encoding="utf-8"?>
<!-- Generator: Adobe Illustrator 19.0.0, SVG Export Plug-In . SVG Version: 6.00 Build 0)  -->
<svg version="1.1" id="Layer_1" xmlns="http://www.w3.org/2000/svg" xmlns:xlink="http://www.w3.org/1999/xlink" x="0px" y="0px"
	 viewBox="-207 333.3 197 126.7" style="enable-background:new -207 333.3 197 126.7;" xml:space="preserve">
<style type="text/css">
	.st0{fill:#2494BC;}
</style>
<g id="XMLID_1_">
	<g id="XMLID_76_">
		<path id="XMLID_139_" class="st0" d="M-202.1,420.9h1.5v6.1h7.4v-6.1h1.5v14.5h-1.5v-7h-7.5v7h-1.4V420.9z"/>
		<path id="XMLID_137_" class="st0" d="M-188.2,420.9h1.5v8.8c0,1,0,1.7,0.1,1.9c0.1,0.6,0.2,1.1,0.5,1.4c0.3,0.4,0.7,0.7,1.2,1
			c0.5,0.3,1.1,0.4,1.7,0.4c0.5,0,0.9-0.1,1.4-0.3c0.4-0.2,0.8-0.5,1.1-0.9s0.5-0.8,0.7-1.3c0.1-0.4,0.1-1.1,0.1-2.3v-8.8h1.5v8.8
			c0,1.3-0.1,2.3-0.4,3.1c-0.3,0.8-0.8,1.5-1.5,2.1c-0.8,0.6-1.7,0.9-2.8,0.9c-1.2,0-2.2-0.3-3-0.8c-0.8-0.6-1.4-1.3-1.7-2.2
			c-0.2-0.6-0.3-1.6-0.3-3.1v-8.7H-188.2z"/>
		<path id="XMLID_135_" class="st0" d="M-175.7,435.4l2.1-14.5h0.2l5.9,11.9l5.9-11.9h0.2l2.1,14.5h-1.4l-1.4-10.4l-5.1,10.4h-0.4
			l-5.2-10.5l-1.4,10.5H-175.7z"/>
		<path id="XMLID_132_" class="st0" d="M-150.5,420.9l6.8,14.5h-1.6l-2.3-4.8h-6.3l-2.3,4.8h-1.6l6.9-14.5H-150.5z M-150.7,424
			l-2.4,5.3h5L-150.7,424z"/>
		<path id="XMLID_130_" class="st0" d="M-141.4,435.4v-14.5h0.3l9.7,11.1v-11.1h1.4v14.5h-0.3l-9.6-11v11H-141.4z"/>
		<path id="XMLID_127_" class="st0" d="M-120.8,420.9h2.9c1.6,0,2.7,0.1,3.3,0.2c0.9,0.2,1.6,0.6,2.1,1.3c0.5,0.6,0.8,1.5,0.8,2.4
			c0,0.8-0.2,1.5-0.6,2.1s-0.9,1.1-1.6,1.4s-1.6,0.5-2.9,0.5l5.2,6.8h-1.8l-5.2-6.8h-0.8v6.8h-1.5L-120.8,420.9L-120.8,420.9z
			 M-119.3,422.3v5h2.5c1,0,1.7-0.1,2.2-0.3c0.5-0.2,0.8-0.5,1.1-0.9c0.3-0.4,0.4-0.9,0.4-1.4s-0.1-0.9-0.4-1.3
			c-0.3-0.4-0.6-0.7-1-0.9c-0.5-0.1-1.3-0.2-2.3-0.2H-119.3z"/>
		<path id="XMLID_125_" class="st0" d="M-108.6,420.9h8.3v1.4h-6.9v4.6h6.8v1.4h-6.8v5.7h6.8v1.4h-8.3L-108.6,420.9L-108.6,420.9z"
			/>
		<path id="XMLID_123_" class="st0" d="M-99.2,432.7l1.2-0.7c0.9,1.6,1.9,2.4,3,2.4c0.5,0,0.9-0.1,1.4-0.3c0.4-0.2,0.8-0.5,1-0.9
			s0.3-0.8,0.3-1.2c0-0.5-0.2-1-0.5-1.4c-0.5-0.6-1.3-1.4-2.5-2.3s-2-1.6-2.3-2c-0.5-0.7-0.8-1.4-0.8-2.2c0-0.6,0.2-1.2,0.5-1.7
			s0.7-0.9,1.3-1.2c0.6-0.3,1.1-0.4,1.8-0.4c0.7,0,1.3,0.2,1.9,0.5c0.6,0.3,1.2,1,1.9,1.9l-1.2,0.9c-0.5-0.7-1-1.2-1.4-1.4
			c-0.4-0.2-0.8-0.3-1.3-0.3c-0.6,0-1.1,0.2-1.4,0.5c-0.4,0.4-0.6,0.8-0.6,1.3c0,0.3,0.1,0.6,0.2,0.9c0.1,0.3,0.4,0.6,0.7,1
			c0.2,0.2,0.8,0.7,1.9,1.5c1.3,0.9,2.1,1.8,2.6,2.5c0.5,0.7,0.7,1.5,0.7,2.2c0,1.1-0.4,2-1.2,2.7c-0.8,0.8-1.8,1.2-2.9,1.2
			c-0.9,0-1.7-0.2-2.4-0.7C-97.9,434.6-98.6,433.8-99.2,432.7z"/>
		<path id="XMLID_120_" class="st0" d="M-80.7,420.5c2.2,0,4,0.7,5.5,2.2s2.2,3.3,2.2,5.4c0,2.1-0.7,3.9-2.2,5.4s-3.3,2.2-5.4,2.2
			c-2.2,0-4-0.7-5.5-2.2s-2.2-3.3-2.2-5.4c0-1.4,0.3-2.7,1-3.9c0.7-1.2,1.6-2.1,2.8-2.8C-83.3,420.9-82.1,420.5-80.7,420.5z
			 M-80.6,422c-1.1,0-2.1,0.3-3.1,0.8c-1,0.6-1.7,1.3-2.3,2.3c-0.5,0.9-0.8,2-0.8,3.2c0,1.7,0.6,3.2,1.8,4.4
			c1.2,1.2,2.6,1.8,4.3,1.8c1.1,0,2.2-0.3,3.1-0.8c1-0.5,1.7-1.3,2.2-2.2c0.5-0.9,0.8-2,0.8-3.2c0-1.2-0.3-2.2-0.8-3.1
			c-0.5-0.9-1.3-1.7-2.3-2.2C-78.5,422.2-79.5,422-80.6,422z"/>
		<path id="XMLID_118_" class="st0" d="M-70,420.9h1.5v8.8c0,1,0,1.7,0.1,1.9c0.1,0.6,0.2,1.1,0.5,1.4c0.3,0.4,0.7,0.7,1.2,1
			c0.5,0.3,1.1,0.4,1.7,0.4c0.5,0,0.9-0.1,1.4-0.3c0.4-0.2,0.8-0.5,1.1-0.9s0.5-0.8,0.7-1.3c0.1-0.4,0.1-1.1,0.1-2.3v-8.8h1.5v8.8
			c0,1.3-0.1,2.3-0.4,3.1c-0.3,0.8-0.8,1.5-1.5,2.1c-0.8,0.6-1.7,0.9-2.8,0.9c-1.2,0-2.2-0.3-3-0.8c-0.8-0.6-1.4-1.3-1.7-2.2
			c-0.2-0.6-0.3-1.6-0.3-3.1v-8.7H-70z"/>
		<path id="XMLID_115_" class="st0" d="M-56.7,420.9h2.9c1.6,0,2.7,0.1,3.3,0.2c0.9,0.2,1.6,0.6,2.1,1.3c0.5,0.6,0.8,1.5,0.8,2.4
			c0,0.8-0.2,1.5-0.6,2.1s-0.9,1.1-1.6,1.4c-0.7,0.3-1.6,0.5-2.9,0.5l5.2,6.8h-1.8l-5.2-6.8h-0.8v6.8h-1.5v-14.7H-56.7z
			 M-55.2,422.3v5h2.5c1,0,1.7-0.1,2.2-0.3c0.5-0.2,0.8-0.5,1.1-0.9c0.3-0.4,0.4-0.9,0.4-1.4s-0.1-0.9-0.4-1.3
			c-0.3-0.4-0.6-0.7-1-0.9c-0.4-0.2-1.1-0.3-2.1-0.3h-2.7V422.3z"/>
		<path id="XMLID_113_" class="st0" d="M-30.9,423.6l-1.1,0.9c-0.6-0.8-1.4-1.4-2.3-1.9c-0.9-0.4-1.9-0.6-2.9-0.6
			c-1.2,0-2.2,0.3-3.2,0.8c-1,0.6-1.8,1.3-2.3,2.2s-0.8,2-0.8,3.2c0,1.8,0.6,3.3,1.8,4.4c1.2,1.2,2.7,1.8,4.6,1.8
			c2,0,3.7-0.8,5.1-2.4l1.1,0.9c-0.7,0.9-1.6,1.6-2.7,2.1c-1.1,0.5-2.3,0.8-3.6,0.8c-2.5,0-4.6-0.8-6-2.5c-1.2-1.4-1.8-3.2-1.8-5.2
			c0-2.1,0.7-3.9,2.2-5.4s3.4-2.2,5.6-2.2c1.4,0,2.6,0.3,3.7,0.8C-32.5,421.9-31.6,422.6-30.9,423.6z"/>
		<path id="XMLID_111_" class="st0" d="M-28,420.9h8.3v1.4h-6.9v4.6h6.8v1.4h-6.8v5.7h6.8v1.4H-28V420.9z"/>
		<path id="XMLID_109_" class="st0" d="M-201.2,443.9h2.3l2.9,8.8l3-8.8h2.3l2.1,12.6h-2.3l-1.4-8l-2.7,8h-2l-2.7-8l-1.4,8h-2.3
			L-201.2,443.9z"/>
		<path id="XMLID_106_" class="st0" d="M-182.8,443.9h2.4l4.9,12.6h-2.5l-1-2.6h-5.1l-1,2.6h-2.5L-182.8,443.9z M-181.5,447.3
			l-1.7,4.3h3.4L-181.5,447.3z"/>
		<path id="XMLID_104_" class="st0" d="M-173.6,443.9h2.3l5.4,8.3v-8.3h2.4v12.6h-2.3l-5.4-8.3v8.3h-2.4V443.9z"/>
		<path id="XMLID_101_" class="st0" d="M-156.8,443.9h2.4l4.9,12.6h-2.5l-1-2.6h-5.1l-1,2.6h-2.5L-156.8,443.9z M-155.5,447.3
			l-1.7,4.3h3.4L-155.5,447.3z"/>
		<path id="XMLID_99_" class="st0" d="M-136,446l-1.7,1.7c-1.1-1.1-2.3-1.7-3.7-1.7c-1.2,0-2.3,0.4-3.1,1.2c-0.8,0.8-1.3,1.8-1.3,3
			s0.4,2.3,1.3,3.1c0.9,0.8,1.9,1.3,3.2,1.3c0.8,0,1.5-0.2,2.1-0.5c0.6-0.3,1-0.9,1.4-1.6h-3.7v-2.3h6.3v0.5c0,1.1-0.3,2.2-0.9,3.1
			c-0.6,0.9-1.3,1.7-2.2,2.3c-0.9,0.5-2,0.8-3.2,0.8c-1.3,0-2.5-0.3-3.5-0.9c-1-0.6-1.8-1.4-2.4-2.4c-0.6-1.1-0.9-2.2-0.9-3.4
			c0-1.7,0.6-3.1,1.7-4.4c1.3-1.5,3-2.2,5.1-2.2c1.1,0,2.1,0.2,3.1,0.6C-137.5,444.5-136.7,445.1-136,446z"/>
		<path id="XMLID_97_" class="st0" d="M-132.9,443.9h6.9v2.4h-4.5v2.3h4.5v2.3h-4.5v3.3h4.5v2.4h-6.9V443.9z"/>
		<path id="XMLID_95_" class="st0" d="M-122.5,443.9h2.3l2.9,8.8l3-8.8h2.3l2.1,12.6h-2.3l-1.4-8l-2.7,8h-2.1l-2.7-8l-1.4,8h-2.3
			L-122.5,443.9z"/>
		<path id="XMLID_93_" class="st0" d="M-107.9,443.9h6.9v2.4h-4.5v2.3h4.5v2.3h-4.5v3.3h4.5v2.4h-6.9V443.9z"/>
		<path id="XMLID_91_" class="st0" d="M-98.8,443.9h2.3l5.4,8.3v-8.3h2.4v12.6H-91l-5.4-8.3v8.3h-2.4V443.9z"/>
		<path id="XMLID_89_" class="st0" d="M-87,443.9h7v2.4h-2.3v10.3h-2.4v-10.3H-87V443.9z"/>
		<path id="XMLID_87_" class="st0" d="M-66.9,445.6l-1.8,1.6c-0.6-0.9-1.3-1.3-1.9-1.3c-0.3,0-0.6,0.1-0.8,0.3
			c-0.2,0.2-0.3,0.4-0.3,0.6s0.1,0.4,0.2,0.6c0.2,0.3,0.8,0.8,1.8,1.6c0.9,0.8,1.5,1.2,1.7,1.5c0.5,0.5,0.8,1,1,1.4s0.3,0.9,0.3,1.5
			c0,1-0.4,1.9-1.1,2.6c-0.7,0.7-1.6,1-2.8,1c-0.9,0-1.7-0.2-2.3-0.7c-0.7-0.4-1.2-1.1-1.7-2.1l2-1.2c0.6,1.1,1.3,1.7,2.1,1.7
			c0.4,0,0.8-0.1,1-0.4c0.3-0.2,0.4-0.5,0.4-0.8c0-0.3-0.1-0.6-0.3-0.9c-0.2-0.3-0.7-0.7-1.4-1.3c-1.4-1.1-2.3-2-2.7-2.6
			s-0.6-1.2-0.6-1.8c0-0.9,0.3-1.6,1-2.3c0.7-0.6,1.5-0.9,2.5-0.9c0.6,0,1.2,0.1,1.8,0.4C-68.1,444.3-67.5,444.9-66.9,445.6z"/>
		<path id="XMLID_85_" class="st0" d="M-65.2,443.9h2.6l2.4,4.5l2.3-4.5h2.5l-3.7,7.2v5.5h-2.4v-5.5L-65.2,443.9z"/>
		<path id="XMLID_83_" class="st0" d="M-46.8,445.6l-1.8,1.6c-0.6-0.9-1.3-1.3-1.9-1.3c-0.3,0-0.6,0.1-0.8,0.3
			c-0.2,0.2-0.3,0.4-0.3,0.6s0.1,0.4,0.2,0.6c0.2,0.3,0.8,0.8,1.8,1.6c0.9,0.8,1.5,1.2,1.7,1.5c0.5,0.5,0.8,1,1,1.4s0.3,0.9,0.3,1.5
			c0,1-0.4,1.9-1.1,2.6c-0.7,0.7-1.6,1-2.8,1c-0.9,0-1.7-0.2-2.3-0.7c-0.7-0.4-1.2-1.1-1.7-2.1l2-1.2c0.6,1.1,1.3,1.7,2.1,1.7
			c0.4,0,0.8-0.1,1-0.4c0.3-0.2,0.4-0.5,0.4-0.8c0-0.3-0.1-0.6-0.3-0.9c-0.2-0.3-0.7-0.7-1.4-1.3c-1.4-1.1-2.3-2-2.7-2.6
			s-0.6-1.2-0.6-1.8c0-0.9,0.3-1.6,1-2.3c0.7-0.6,1.5-0.9,2.5-0.9c0.6,0,1.2,0.1,1.8,0.4C-48.1,444.3-47.5,444.9-46.8,445.6z"/>
		<path id="XMLID_81_" class="st0" d="M-45.6,443.9h7v2.4h-2.3v10.3h-2.4v-10.3h-2.2v-2.4H-45.6z"/>
		<path id="XMLID_79_" class="st0" d="M-36.9,443.9h6.9v2.4h-4.5v2.3h4.5v2.3h-4.5v3.3h4.5v2.4h-6.9V443.9z"/>
		<path id="XMLID_77_" class="st0" d="M-26.6,443.9h2.3l2.9,8.8l3-8.8h2.3l2.1,12.6h-2.3l-1.4-8l-2.7,8h-2.1l-2.7-8l-1.4,8h-2.3
			L-26.6,443.9z"/>
	</g>
	<g id="XMLID_2_">
		<g id="XMLID_54_">
			<path id="XMLID_75_" class="st0" d="M-106.7,392.5c0.1-0.1,0.2-0.3,0.2-0.5c0-0.2-0.1-0.3-0.2-0.4c-0.1-0.1-0.2-0.2-0.4-0.3
				c-0.2-0.1-0.5-0.1-0.9-0.1c-0.3,0-0.5,0-0.8,0c0,0.4,0,0.9,0,1.3c0,0.1,0,0.2,0,0.2s0,0.1,0.1,0.1c0,0,0.1,0,0.3,0
				c0.1,0,0.3,0,0.4,0c0.4,0,0.7,0,0.9-0.1C-106.9,392.7-106.8,392.6-106.7,392.5z"/>
			<path id="XMLID_74_" class="st0" d="M-123.7,388c-0.1-0.1-0.3-0.1-0.5-0.2c-0.3-0.1-0.7-0.1-1-0.2c-0.1,0.5-0.2,1-0.3,1.4
				c0.3,0.1,0.5,0.1,0.8,0.2s0.5,0.1,0.6,0.1c0.2,0,0.3-0.1,0.4-0.2c0.1-0.1,0.2-0.2,0.2-0.4c0-0.2,0-0.3,0-0.4
				S-123.6,388.1-123.7,388z"/>
			<path id="XMLID_73_" class="st0" d="M-115.8,390.7c0.1,0,0.2-0.1,0.3-0.3c0.1-0.1,0.2-0.3,0.2-0.5c0-0.2,0-0.4-0.1-0.5
				s-0.2-0.2-0.4-0.3c-0.1,0-0.3-0.1-0.7-0.1c-0.2,0-0.3,0-0.5-0.1c-0.1,0.5-0.1,1.1-0.2,1.6c0.2,0,0.4,0,0.6,0.1
				C-116.1,390.7-115.9,390.7-115.8,390.7z"/>
			<path id="XMLID_58_" class="st0" d="M-82.6,377.3c0,0,4.9,1,7-2.2c0,0-3.7-0.6-6.4,0.1c0.6-2,1-3.8,1.2-5.3
				c0.5,0.4,1.1,0.6,1.1,0.6c3.4-3-0.1-4.7-0.8-5c0-0.3,0-0.5,0-0.5v-22.1c-6.6,0-11.7-0.5-15.6-1.3c0.8,0.2,1.6,0.3,2.4,0.4l-2.1,1
				h7.5v1.3h-15.2v-4.9c-1.1-0.5-2.2-1.1-3.2-1.8h-0.2v16.8h3.3v-6.7h15.2v1.1h-7.5l7.5,3.7v0.6l-8.7-4.4h-2.5l11.2,5.6l0,0h5.9v12
				l0,0c0,2.6-0.7,10-6.4,18.7c-12.4,3.9-25.7,3.9-38,0c-7.1-10.9-6.3-19.7-6.3-19.7V356v-1.7h8.1l-0.2-0.1l1.7-1.5l7.3,0.7
				c0-0.2,0.1-0.4,0.1-0.6l-6.4-1l1.1-1l5.4,1.4c0.2-0.6,0.4-1.1,0.7-1.7l-4.6-2.8v-1.5l5.1,3.7c0.1-0.2,0.2-0.3,0.3-0.5l-5.4-4.4
				v-2.5l2.3,0.1l4.5,5.5c0.2-0.1,0.3-0.3,0.5-0.4l-3.7-5.1l1.5,0.1l2.7,4.6c0.5-0.3,1.1-0.5,1.7-0.7l-1.4-5.3l1-1l1,6.3
				c0.2,0,0.4-0.1,0.6-0.1l-0.7-7.2l1.5-1.6v16.6h1.2v-17.2c-0.4-0.4-0.6-0.6-0.6-0.6s-4.6,6.5-27.4,6.4v22.2c0,0,0,0.2,0,0.5
				c-0.8,0.3-4.1,2-0.8,4.9c0,0,0.6-0.2,1.1-0.6c0.2,1.5,0.6,3.3,1.2,5.2c-2.7-0.7-6.4-0.1-6.4-0.1c2.1,3.2,7,2.2,7,2.2l0.1-0.2
				c0.1,0.2,0.1,0.4,0.2,0.5c-1.5,0.1-4,0.7-4,0.7c1.4,1.7,4.1,1.7,5,1.6c0.1,0.2,0.2,0.3,0.2,0.5c-0.6,0.2-1.6,0.5-1.6,0.5
				c0.3,0.3,0.6,0.4,0.9,0.6l0,0c0.4,0.2,0.8,0.3,1,0.3c0.1,0,0.3,0.1,0.5,0.2c0.3,0.6,0.6,1.2,1,1.8c-0.1,0-0.2-0.1-0.3-0.1
				c0,0,0,1.7-0.1,3.6c-1.3-0.3-2.6-0.8-3.8-1.5c0,0,0.5,1.1,0.7,2.4c0.1,1.3,0,2.8-2.6,3.2c3.1,1.5,6.6,2.3,10.3,2.1
				c0-0.3,0.1-0.6,0.1-0.9l-0.1-0.1c0.9,0.2,1.8,0.5,2.7,0.7c3.8,4.1,8.7,8.2,15,12.2c6.4-4,11.3-8.1,15-12.2
				c0.7-0.2,1.5-0.3,2.2-0.5c0,0.3,0.1,0.5,0.1,0.8c3.7,0.2,7.2-0.6,10.3-2.1c-2.6-0.4-2.8-1.9-2.6-3.2c0.2-1.3,0.7-2.4,0.7-2.4
				c-1,0.6-2.1,1-3.2,1.3c-0.1-1.8-0.1-3.4-0.1-3.4c-0.1,0.1-0.3,0.1-0.4,0.2c0.4-0.6,0.7-1.2,1-1.9c0.2,0,0.3-0.1,0.5-0.1
				c0.3-0.1,0.7-0.2,1.1-0.4l0,0c0.2-0.1,0.5-0.3,0.7-0.5c0,0-1-0.3-1.6-0.5c0.1-0.2,0.2-0.3,0.2-0.5c0.9,0.1,3.7,0.1,5-1.6
				c0,0-2.5-0.6-4.1-0.7c0.1-0.2,0.1-0.4,0.2-0.6L-82.6,377.3z M-83.7,351.4l-1.3-1.1l-1.2,1.1l0.1-1.6l-1.6-0.2l1.4-0.9l-0.8-1.4
				l1.6,0.5l0.6-1.5l0.6,1.5l1.6-0.5l-0.8,1.4l1.4,0.9l-1.6,0.2L-83.7,351.4z M-129.8,348l0.7-1.4l0.7,1.4l1.6,0.2l-1.2,1.2l0.3,1.6
				l-1.4-0.7l-1.4,0.7l0.3-1.6l-1.2-1.1L-129.8,348z M-100.4,388.9c0,0.1,0,0.2,0,0.2h-0.1c-0.1,0-0.2,0-0.2,0.1l-0.1,0.1
				c0,0.1,0,0.2,0,0.3c0.1,0.8,0.1,1.7,0.2,2.5c0,0.1,0,0.2,0.1,0.3c0,0.1,0.1,0.1,0.1,0.1s0.1,0,0.3,0h0.1c0,0.1,0,0.2,0,0.2
				c-0.5,0-1.1,0.1-1.6,0.1c0-0.1,0-0.2,0-0.2h0.1c0.1,0,0.2,0,0.2-0.1l0.1-0.1c0,0,0-0.1,0-0.3c-0.1-0.9-0.1-1.7-0.2-2.6
				c0-0.1,0-0.2-0.1-0.3l-0.1-0.1c0,0-0.1,0-0.2,0h-0.1c0-0.1,0-0.2,0-0.2C-101.4,389-100.9,388.9-100.4,388.9z M-103.9,389.1
				c0,0.1,0,0.2,0,0.2h-0.1c-0.1,0-0.2,0-0.2,0l-0.1,0.1c0,0,0,0.1,0,0.2c0,0.9,0.1,1.8,0.1,2.7c0,0.1,0,0.2,0,0.2s0,0.1,0.1,0.1
				c0,0,0.1,0,0.2,0s0.1,0,0.2,0c0.3,0,0.5-0.1,0.7-0.1c0.2-0.1,0.3-0.2,0.5-0.3c0.1-0.1,0.2-0.3,0.4-0.6c0.1,0,0.2,0,0.3,0.1
				c-0.1,0.4-0.3,0.8-0.4,1.3c-1,0.1-2,0.1-3,0.1c0-0.1,0-0.2,0-0.2h0.1c0.1,0,0.2,0,0.3,0l0.1-0.1c0,0,0-0.1,0-0.2
				c0-0.9-0.1-1.8-0.1-2.7c0-0.1,0-0.2,0-0.3l-0.1-0.1c0,0-0.1,0-0.3,0h-0.1c0-0.1,0-0.2,0-0.2
				C-104.9,389.1-104.4,389.1-103.9,389.1z M-109.9,392.8L-109.9,392.8c0.2,0,0.3,0,0.4-0.1c0.1-0.1,0.1-0.1,0.1-0.3
				c0-0.9,0-1.8,0.1-2.7c0-0.1,0-0.2,0-0.3l-0.1-0.1c0,0-0.1,0-0.2,0h-0.1c0-0.1,0-0.2,0-0.2c0.6,0,1.3,0,1.9,0c0.5,0,0.8,0,0.9,0.1
				c0.3,0.1,0.5,0.2,0.6,0.3c0.1,0.2,0.2,0.3,0.2,0.6c0,0.2,0,0.3-0.1,0.4c-0.1,0.1-0.2,0.2-0.3,0.3c-0.1,0.1-0.2,0.1-0.4,0.2
				c0.2,0,0.4,0.1,0.5,0.1c0.2,0.1,0.3,0.2,0.4,0.3s0.2,0.3,0.2,0.5c0,0.2,0,0.3-0.1,0.5c-0.1,0.2-0.2,0.3-0.4,0.4
				c-0.2,0.1-0.4,0.2-0.6,0.2s-0.5,0-0.7,0c-0.7,0-1.4,0-2.1,0C-109.9,393-109.9,392.9-109.9,392.8z M-114.3,388.9
				c0.5,0,1,0.1,1.5,0.1c0,0.1,0,0.2,0,0.2h-0.1c-0.1,0-0.2,0-0.3,0c0,0-0.1,0-0.1,0.1c0,0,0,0.1,0,0.3c0,0.6-0.1,1.2-0.1,1.8
				c0,0.3,0,0.6,0.1,0.7c0.1,0.2,0.2,0.3,0.4,0.4c0.2,0.1,0.4,0.2,0.6,0.2s0.4,0,0.6-0.1c0.2-0.1,0.4-0.2,0.4-0.4
				c0.1-0.1,0.1-0.4,0.1-0.7c0-0.6,0-1.1,0.1-1.7c0-0.1,0-0.2,0-0.3c0-0.1-0.1-0.1-0.1-0.1s-0.1,0-0.2,0h-0.1c0-0.1,0-0.2,0-0.2
				c0.4,0,0.9,0,1.3,0.1c0,0.1,0,0.2,0,0.2h-0.1c-0.1,0-0.3,0-0.3,0.1c-0.1,0.1-0.1,0.2-0.1,0.3c0,0.6,0,1.2-0.1,1.8
				c0,0.3-0.1,0.6-0.2,0.8c-0.1,0.2-0.3,0.4-0.6,0.5c-0.3,0.1-0.6,0.2-0.9,0.1c-0.3,0-0.6-0.1-0.8-0.2c-0.3-0.1-0.4-0.3-0.5-0.5
				c-0.2-0.3-0.2-0.6-0.2-0.9c0-0.6,0.1-1.3,0.1-1.9c0-0.1,0-0.2,0-0.3s0-0.1-0.1-0.1c0,0-0.1,0-0.2-0.1h-0.1
				C-114.3,389.1-114.3,389-114.3,388.9z M-118.3,392.2L-118.3,392.2c0.2,0,0.3,0,0.4,0s0.1,0,0.1-0.1c0,0,0-0.1,0.1-0.3
				c0.1-0.9,0.2-1.8,0.3-2.7c0-0.1,0-0.2,0-0.3c0,0,0-0.1-0.1-0.1c0,0-0.1,0-0.3-0.1h-0.1c0-0.1,0-0.2,0-0.2c0.5,0.1,1,0.1,1.6,0.2
				c0.5,0,0.8,0.1,1,0.2s0.4,0.2,0.5,0.4c0.1,0.2,0.2,0.4,0.2,0.7c0,0.2-0.1,0.4-0.2,0.6c-0.2,0.2-0.3,0.3-0.5,0.4s-0.5,0.1-0.9,0
				c-0.2,0-0.5-0.1-0.7-0.1c0,0.3-0.1,0.7-0.1,1c0,0.1,0,0.2,0,0.3s0,0.1,0.1,0.1c0,0,0.1,0,0.2,0.1h0.1c0,0.1,0,0.2,0,0.2
				c-0.5-0.1-1.1-0.1-1.6-0.2C-118.3,392.4-118.3,392.3-118.3,392.2z M-122.8,388.8c0,0.2-0.1,0.4-0.3,0.5c-0.1,0.1-0.3,0.2-0.5,0.3
				c-0.2,0.1-0.5,0-0.8,0c0.3,0.5,0.5,1,0.8,1.4c0.1,0.1,0.1,0.2,0.1,0.2c0.1,0.1,0.1,0.1,0.2,0.2c0.1,0,0.2,0.1,0.2,0.1s0,0,0.1,0
				c0,0.1,0,0.2,0,0.2c-0.3-0.1-0.6-0.1-0.9-0.2c-0.4-0.7-0.8-1.4-1.1-2.1c-0.2,0-0.3-0.1-0.5-0.1c-0.1,0.4-0.2,0.8-0.2,1.2
				c0,0.1,0,0.2,0,0.3s0,0.1,0.1,0.2c0,0,0.1,0.1,0.3,0.1h0.1c0,0.1,0,0.2,0,0.2c-0.5-0.1-1-0.2-1.6-0.3c0-0.1,0-0.2,0.1-0.2h0.1
				c0.1,0,0.2,0,0.2,0h0.1l0.1-0.1c0,0,0-0.1,0.1-0.3c0.2-0.8,0.4-1.7,0.5-2.5c0-0.1,0-0.2,0-0.2c0-0.1,0-0.1-0.1-0.1
				c0,0-0.1-0.1-0.2-0.1s-0.1,0-0.2,0c0-0.1,0-0.2,0.1-0.2c0.7,0.1,1.3,0.3,2,0.4c0.4,0.1,0.7,0.2,0.8,0.3c0.2,0.1,0.3,0.3,0.4,0.4
				C-122.8,388.4-122.8,388.6-122.8,388.8z M-122.7,391.8c0-0.1,0-0.2,0-0.2h0.1c0.1,0,0.2,0,0.3,0c0.1,0,0.1,0,0.1-0.1
				c0,0,0-0.1,0.1-0.2c0.1-0.9,0.3-1.8,0.4-2.7c0-0.1,0-0.2,0-0.2l-0.1-0.1c0,0-0.1,0-0.3-0.1c0-0.1,0-0.2,0-0.2
				c1.1,0.2,2.1,0.3,3.2,0.5c0.1,0.4,0.2,0.7,0.2,1.1c-0.1,0-0.2,0-0.3,0.1c0-0.2-0.1-0.3-0.2-0.4s-0.1-0.2-0.2-0.3
				c-0.1-0.1-0.2-0.1-0.3-0.2c-0.1,0-0.3-0.1-0.6-0.1c-0.3,0-0.6-0.1-1-0.1c-0.1,0.5-0.2,0.9-0.2,1.4c0.2,0,0.3,0.1,0.5,0.1
				s0.3,0,0.4,0s0.2-0.1,0.2-0.2s0.1-0.2,0.1-0.3c0,0,0,0,0-0.1c0.1,0,0.2,0,0.3,0c-0.1,0.6-0.2,1.1-0.2,1.7c-0.1,0-0.2,0-0.3,0
				v-0.1c0-0.1,0-0.2,0-0.3s0-0.1-0.1-0.2c0-0.1-0.1-0.1-0.2-0.1s-0.2-0.1-0.3-0.1c-0.2,0-0.3-0.1-0.5-0.1c-0.1,0.4-0.1,0.8-0.2,1.3
				c0,0.1,0,0.2,0,0.2s0,0.1,0.1,0.1c0,0,0.1,0,0.2,0.1c0.2,0,0.4,0.1,0.6,0.1c0.3,0.1,0.6,0,0.8,0c0.2-0.1,0.4-0.1,0.6-0.3
				c0.1-0.1,0.3-0.3,0.4-0.5c0.1,0,0.2,0.1,0.3,0.1c-0.2,0.4-0.4,0.8-0.6,1.2C-120.4,392.2-121.5,392-122.7,391.8z M-107.8,402.7
				c-4.6-2.9-8.4-5.9-11.5-8.8c7.6,1.3,15.3,1.3,22.9,0C-99.5,396.9-103.3,399.9-107.8,402.7z M-96.6,392.1
				c-0.3,0.3-0.6,0.4-1.1,0.5c-0.2,0-0.4,0-0.6,0s-0.4-0.1-0.6-0.3c0,0.1-0.1,0.3-0.1,0.4c-0.1,0-0.1,0-0.2,0
				c-0.1-0.5-0.3-0.9-0.4-1.4c0.1,0,0.2-0.1,0.3-0.1c0.1,0.3,0.3,0.5,0.5,0.6c0.2,0.2,0.4,0.3,0.6,0.4s0.4,0.1,0.6,0.1
				c0.3,0,0.5-0.1,0.7-0.3c0.2-0.2,0.2-0.3,0.2-0.5c0-0.2-0.1-0.3-0.2-0.4c-0.1-0.1-0.4-0.2-0.7-0.2c-0.2,0-0.5-0.1-0.7-0.1
				c-0.4-0.1-0.7-0.2-0.9-0.4c-0.2-0.2-0.3-0.4-0.3-0.6s0-0.4,0.1-0.5c0.1-0.2,0.2-0.3,0.5-0.4c0.2-0.1,0.4-0.2,0.7-0.2
				c0.2,0,0.4,0,0.6,0c0.1,0,0.3,0.1,0.4,0.2c0-0.1,0.1-0.2,0.1-0.3c0.1,0,0.1,0,0.2,0c0.2,0.4,0.3,0.8,0.5,1.2
				c-0.1,0-0.2,0.1-0.3,0.1c-0.2-0.3-0.5-0.6-0.8-0.7c-0.2-0.1-0.5-0.2-0.8-0.2c-0.2,0-0.3,0.1-0.4,0.1c-0.1,0.1-0.2,0.2-0.3,0.3
				c-0.1,0.1-0.1,0.2-0.1,0.3s0,0.2,0.1,0.2c0.1,0.1,0.1,0.1,0.3,0.2c0.1,0.1,0.3,0.1,0.5,0.1c0.3,0,0.5,0.1,0.8,0.1
				c0.1,0,0.2,0.1,0.4,0.1c0.2,0.1,0.3,0.1,0.4,0.2s0.2,0.2,0.3,0.3c0.1,0.1,0.1,0.2,0.1,0.4C-96.2,391.6-96.3,391.9-96.6,392.1z
				 M-92.9,388.1l-0.1,0.1c0,0-0.1,0.1-0.1,0.2c-0.3,0.6-0.5,1.3-0.8,1.9c0.1,0.3,0.1,0.7,0.2,1c0,0.1,0.1,0.2,0.1,0.3l0.1,0.1
				c0.1,0,0.2,0,0.4,0c0,0.1,0,0.2,0,0.2c-0.5,0.1-1.1,0.2-1.6,0.3c0-0.1,0-0.2,0-0.2h0.1c0.1,0,0.2,0,0.3-0.1l0.1-0.1
				c0,0,0-0.1,0-0.3c0-0.3-0.1-0.6-0.1-0.9c-0.5-0.6-0.9-1.1-1.3-1.7c-0.1-0.1-0.2-0.2-0.2-0.2c-0.1,0-0.2,0-0.3,0
				c0-0.1,0-0.2,0-0.2c0.5-0.1,1-0.1,1.5-0.2c0,0.1,0,0.2,0,0.2c-0.1,0-0.1,0-0.2,0s-0.2,0-0.2,0.1v0.1c0,0,0,0.1,0.1,0.1
				c0,0,0,0,0,0.1c0.3,0.4,0.7,0.9,1,1.3c0.2-0.5,0.4-1.1,0.6-1.6c0-0.1,0-0.1,0-0.1s0,0,0-0.1c0,0,0,0,0-0.1c0,0,0,0-0.1,0
				c0,0-0.1,0-0.2,0h-0.1c0-0.1,0-0.2,0-0.2c0.4-0.1,0.8-0.1,1.2-0.2c0,0.1,0,0.2,0,0.2C-92.8,388.1-92.8,388.1-92.9,388.1z
				 M-88.8,390.8c-0.2,0.3-0.6,0.5-1,0.6c-0.2,0-0.4,0.1-0.6,0c-0.2,0-0.4-0.1-0.7-0.2c0,0.1,0,0.3-0.1,0.4c-0.1,0-0.1,0-0.2,0
				c-0.2-0.4-0.4-0.9-0.5-1.3c0.1,0,0.2-0.1,0.3-0.1c0.1,0.2,0.3,0.4,0.5,0.6c0.2,0.1,0.4,0.2,0.6,0.3c0.2,0.1,0.4,0.1,0.6,0
				c0.3-0.1,0.5-0.2,0.7-0.4c0.1-0.2,0.2-0.3,0.2-0.5c0-0.2-0.1-0.3-0.3-0.4c-0.1-0.1-0.4-0.1-0.7-0.2c-0.3,0-0.5,0-0.8-0.1
				c-0.4,0-0.7-0.1-0.9-0.3c-0.2-0.1-0.3-0.3-0.4-0.6c0-0.2,0-0.4,0.1-0.5c0.1-0.2,0.2-0.3,0.4-0.5c0.2-0.1,0.4-0.2,0.7-0.3
				c0.2,0,0.4,0,0.6,0s0.3,0.1,0.4,0.1c0-0.1,0-0.2,0.1-0.3c0.1,0,0.1,0,0.2,0c0.2,0.4,0.4,0.7,0.6,1.1c-0.1,0-0.2,0.1-0.2,0.1
				c-0.2-0.3-0.5-0.5-0.8-0.6s-0.5-0.1-0.8-0.1c-0.2,0-0.3,0.1-0.4,0.2s-0.2,0.2-0.3,0.3c0,0.1-0.1,0.2,0,0.3c0,0.1,0.1,0.2,0.1,0.2
				c0.1,0.1,0.2,0.1,0.3,0.2c0.1,0,0.3,0.1,0.6,0.1c0.3,0,0.5,0,0.8,0.1c0.1,0,0.2,0,0.4,0.1c0.2,0,0.3,0.1,0.5,0.1
				c0.1,0.1,0.2,0.1,0.3,0.2c0.1,0.1,0.1,0.2,0.2,0.4C-88.4,390.2-88.5,390.5-88.8,390.8z"/>
			<path id="XMLID_57_" class="st0" d="M-107.3,390.9c0.2-0.1,0.4-0.1,0.5-0.3c0.1-0.1,0.2-0.3,0.2-0.5c0-0.2-0.1-0.3-0.1-0.4
				c-0.1-0.1-0.2-0.2-0.4-0.2c-0.1,0-0.3,0-0.6,0c-0.3,0-0.6,0-0.9,0c0,0.5,0,1,0,1.4c0.2,0,0.5,0,0.7,0
				C-107.7,390.9-107.4,390.9-107.3,390.9z"/>
			<polygon id="XMLID_56_" class="st0" points="-102.4,354.3 -92.2,354.3 -102.4,349.2 			"/>
			<path id="XMLID_55_" class="st0" d="M-96.5,341.6c-0.6-0.1-1.1-0.3-1.7-0.4l-3.9,2h2.5L-96.5,341.6z"/>
		</g>
		<path id="XMLID_53_" class="st0" d="M-102.4,339.9v2.8l3.4-1.7C-100.3,340.6-101.4,340.2-102.4,339.9z"/>
		<path id="XMLID_50_" class="st0" d="M-112,403.4c-0.9-1.2-2.3-0.9-2.9-1.2c-0.6-0.3-1.6-0.9-2.1-2.5c0,0,0.1,1.9,0.7,2.8
			c0,0-1.2-0.6-1.5-2.7c-0.3-2.1-2.5-2.4-2.5-2.4s0.4,0.8-0.3,0.6c0,0-1.8-4.8-7.6-2.1c0,0,1.8-0.4,3.3,4.3c0.4,1.3,3.6,2.7,3.6,2.7
			s-1.8,0.2-3.8-1.3c0,0,2.6,2.7,3.9,2.9c1.2,0.2,2.5-0.1,2.5-0.1s-1.3,0.9-0.6,1.6c0.7,0.7,3.1,0.1,4.1-0.3c1-0.5,5.2-0.6,5.2-0.6
			S-111.1,404.6-112,403.4z M-119.1,402.5c-1.2-1.4-5.4-5.2-5.4-5.2s3.6,1.9,5.7,4.3c2.1,2.4,5.9,2.8,5.9,2.8
			C-114.9,404.7-117.9,403.9-119.1,402.5z"/>
		<path id="XMLID_47_" class="st0" d="M-105.7,405.1c0,0,4.2,0.1,5.2,0.6s3.5,1.1,4.1,0.3c0.7-0.7-0.5-1.5-0.5-1.5s1.3,0.3,2.5,0.1
			c1.2-0.2,3.9-2.9,3.9-2.9c-2,1.5-3.8,1.3-3.8,1.3s3.2-1.4,3.6-2.7c1.5-4.7,3.3-4.3,3.3-4.3c-5.8-2.7-7.6,2.1-7.6,2.1
			c-0.7,0.2-0.3-0.6-0.3-0.6s-2.2,0.2-2.5,2.4c-0.3,2.1-1.5,2.7-1.5,2.7c0.5-0.9,0.7-2.8,0.7-2.8c-0.6,1.6-1.5,2.2-2.1,2.5
			c-0.6,0.3-2,0-2.9,1.2C-104.6,404.6-105.7,405.1-105.7,405.1z M-102.8,404.5c0,0,3.9-0.4,5.9-2.8c2.1-2.4,5.7-4.3,5.7-4.3
			s-4.3,3.8-5.4,5.2C-97.8,403.9-100.8,404.7-102.8,404.5z"/>
		<polygon id="XMLID_46_" class="st0" points="-131.1,391 -125.6,393.6 -125.5,392.7 		"/>
		<polygon id="XMLID_45_" class="st0" points="-85,391 -90.5,393.5 -90.6,392.7 		"/>
		<polygon id="XMLID_44_" class="st0" points="-113.7,395 -113.4,395.7 -112.7,395.5 -113.1,396.1 -112.4,396.5 -113.2,396.7 
			-113.1,397.4 -113.7,396.9 -114.2,397.4 -114.2,396.7 -114.9,396.5 -114.3,396.1 -114.7,395.5 -114,395.7 		"/>
		<polygon id="XMLID_43_" class="st0" points="-101.5,395.4 -101.3,395.9 -100.8,395.7 -101.1,396.1 -100.6,396.4 -101.2,396.5 
			-101.1,397 -101.5,396.7 -101.9,397 -101.8,396.5 -102.3,396.4 -101.9,396.1 -102.2,395.7 -101.7,395.9 		"/>
		<polygon id="XMLID_42_" class="st0" points="-107.7,396.2 -107.3,397.4 -106.1,397 -106.7,398.1 -105.6,398.8 -106.9,399 
			-106.8,400.3 -107.7,399.4 -108.7,400.3 -108.6,399 -109.8,398.8 -108.8,398.1 -109.4,397 -108.2,397.4 		"/>
		<path id="XMLID_41_" class="st0" d="M-107.3,386.2c0,0,0.2-0.6-0.3-1.7c-0.5-1.1-0.1-1.7,0.1-2c0.2-0.3-0.9,0.5-0.9,0.5v1.7
			L-107.3,386.2z"/>
		<path id="XMLID_40_" class="st0" d="M-71.4,349.1c2.9-4.4-0.6-8.2-0.6-8.2C-73.9,346.7-71.4,349.1-71.4,349.1z"/>
		<path id="XMLID_39_" class="st0" d="M-71.2,352.8c4.8-1.4,3.3-7.1,3.3-7.1C-71.4,347.6-71.2,352.8-71.2,352.8z"/>
		<path id="XMLID_38_" class="st0" d="M-72.1,357.9c5.4-0.9,4.6-6.5,4.6-6.5C-72,353.3-72.1,357.9-72.1,357.9z"/>
		<path id="XMLID_37_" class="st0" d="M-73.6,362.7c5.9-0.3,5.8-5.7,5.8-5.7C-72.8,358.1-73.6,362.7-73.6,362.7z"/>
		<path id="XMLID_36_" class="st0" d="M-75.8,367c6.5,0.3,6.9-4.8,6.9-4.8C-74.6,363-75.8,367-75.8,367z"/>
		<path id="XMLID_35_" class="st0" d="M-78.4,370.8c6.8,1,7.8-3.8,7.8-3.8C-76.9,367.2-78.4,370.8-78.4,370.8z"/>
		<path id="XMLID_34_" class="st0" d="M-81.6,374c7.1,1.7,8.7-2.7,8.7-2.7C-79.5,370.9-81.6,374-81.6,374z"/>
		<path id="XMLID_33_" class="st0" d="M-74.8,350.5c0,0.1,0,0.2,0.1,0.3l0,0l0,0l0,0c0.1,0.3,0.2,0.6,0.4,0.8c0.4,0.7,1,0.9,1,0.9
			l0,0c0,0,0.1,0,0.1,0.1c0,0,0,0,0.1,0l0,0c0.5,0.2,0.8,0.2,0.9,0.2l0,0l0,0c0,0,0.3-1.3,0.2-2l0,0c0-0.4,0-0.7-0.1-1l0,0
			c0,0-0.3-2.5-2.8-2.8l0,0C-75,348.6-74.9,349.7-74.8,350.5L-74.8,350.5z"/>
		<path id="XMLID_32_" class="st0" d="M-72.1,352.9L-72.1,352.9L-72.1,352.9L-72.1,352.9z"/>
		<path id="XMLID_31_" class="st0" d="M-73,357.9c1.8-5.1-2.3-5.6-2.3-5.6C-77.2,357.8-73,357.9-73,357.9z"/>
		<path id="XMLID_30_" class="st0" d="M-74.7,362.6c2.6-4.7-2-5.5-2-5.5C-79.1,362.1-74.7,362.6-74.7,362.6z"/>
		<path id="XMLID_29_" class="st0" d="M-76.9,366.9c3.2-4.2-1.6-5.3-1.6-5.3C-81.8,365.8-76.9,366.9-76.9,366.9z"/>
		<path id="XMLID_28_" class="st0" d="M-106.9,337.5L-106.9,337.5L-106.9,337.5C-106.8,337.5-106.8,337.5-106.9,337.5z"/>
		<path id="XMLID_27_" class="st0" d="M-143.7,340.9c0,0-3.5,3.8-0.6,8.2C-144.2,349.1-141.8,346.7-143.7,340.9z"/>
		<path id="XMLID_26_" class="st0" d="M-144.4,352.8c0,0,0.2-5.2-3.3-7.1C-147.7,345.6-149.2,351.4-144.4,352.8z"/>
		<path id="XMLID_25_" class="st0" d="M-143.6,357.9c0,0-0.1-4.6-4.6-6.5C-148.2,351.4-148.9,357-143.6,357.9z"/>
		<path id="XMLID_24_" class="st0" d="M-142.1,362.7c0,0-0.8-4.5-5.8-5.7C-147.8,356.9-148,362.3-142.1,362.7z"/>
		<path id="XMLID_23_" class="st0" d="M-139.8,367c0,0-1.3-4.1-6.9-4.8C-146.7,362.2-146.3,367.3-139.8,367z"/>
		<path id="XMLID_22_" class="st0" d="M-137.2,370.8c0,0-1.6-3.5-7.8-3.8C-145.1,367-144.1,371.8-137.2,370.8z"/>
		<path id="XMLID_21_" class="st0" d="M-134.1,374c0,0-2-3.1-8.7-2.7C-142.8,371.3-141.2,375.7-134.1,374z"/>
		<path id="XMLID_20_" class="st0" d="M-143.7,349.9c-0.1,0.3-0.1,0.6-0.1,1l0,0c-0.1,0.7,0.2,2,0.2,2l0,0l0,0c0.1,0,0.5,0,0.9-0.2
			l0,0c0,0,0,0,0.1,0c0.1,0,0.1,0,0.1-0.1l0,0c0.1,0,0.6-0.2,1-0.9c0.2-0.2,0.3-0.5,0.4-0.8l0,0l0,0l0,0c0-0.1,0-0.2,0.1-0.3l0,0
			c0.2-0.8,0.2-1.9,0-3.4l0,0C-143.3,347.4-143.7,349.9-143.7,349.9L-143.7,349.9z"/>
		<path id="XMLID_19_" class="st0" d="M-143.6,352.9L-143.6,352.9L-143.6,352.9L-143.6,352.9z"/>
		<path id="XMLID_18_" class="st0" d="M-142.6,357.9c0,0,4.1-0.1,2.3-5.6C-140.3,352.3-144.5,352.8-142.6,357.9z"/>
		<path id="XMLID_17_" class="st0" d="M-141,362.6c0,0,4.4-0.5,2-5.5C-139.1,357.1-143.6,357.9-141,362.6z"/>
		<path id="XMLID_16_" class="st0" d="M-138.7,366.9c0,0,4.8-1.1,1.6-5.3C-137.1,361.5-141.9,362.6-138.7,366.9z"/>
		<g id="XMLID_3_">
			<path id="XMLID_15_" class="st0" d="M-102.8,373.6c1.8,1.9,3.7,3.7,3.3,5c-0.5,1.2-2.3,1.3-2.3,1.3s1,0.5,1.8,0.3
				c0.8-0.3,1.8-1.4,1.6-2.8c-0.2-1.4-2.3-4.2-2.3-4.2l1-1.2c0,0,2.2-1.5,2.8-3.1c0,0-1.9,2.2-4.2,2.9c-2.1,0.6-1.4-1.6-1.2-1.9
				c-0.2,0.2-1.2,1-1.2,2.2c-2.6-2.6-0.9-5.4-0.3-6.1c1.2,0.3,2.8,0.7,4.2,1.4c0,0-3.2-2.4-6.3-1.7c0,0,0.8,0.1,2,0.3
				c-3.6,3-0.6,5.4,0.4,6.1C-103.5,372.5-103.3,373-102.8,373.6z"/>
			<path id="XMLID_14_" class="st0" d="M-102.3,369.8L-102.3,369.8L-102.3,369.8z"/>
			<path id="XMLID_13_" class="st0" d="M-100.3,362.4c2.6,2.3,1.6,6.6,1.6,6.6s0.8-0.9,0.8-3C-97.9,363.9-100.4,362.4-100.3,362.4z"
				/>
			<path id="XMLID_12_" class="st0" d="M-105.8,365.2c0,0,3.8-0.9,6.9,2.5C-98.9,367.7-101.2,363.5-105.8,365.2z"/>
			<path id="XMLID_11_" class="st0" d="M-107.7,358c0,0,7.1,1.7,7.4,4.4C-100.3,362.4-98.7,359.7-107.7,358z"/>
			<path id="XMLID_8_" class="st0" d="M-106.7,359.6c0,0,0.4,1.1,1.7,1.8c-0.1-0.1-0.1-0.1-0.2-0.1c-0.2,0.2-0.4,0.6-0.4,0.9
				c0,0.6,0.5,1.1,1.2,1.1s1.2-0.5,1.2-1.1c0-0.1,0-0.1,0-0.2c0.6,0.1,1.3,0.1,2.1,0C-101.1,362-104.7,362.1-106.7,359.6z
				 M-104.9,362.4c0-0.3,0.2-0.5,0.4-0.5c0.2,0,0.4,0.2,0.4,0.5c0,0.3-0.2,0.5-0.4,0.5S-104.9,362.7-104.9,362.4z"/>
			<path id="XMLID_7_" class="st0" d="M-106.5,361c0,0-4.3-1.8-7.4,2.2C-113.9,363.2-110.6,360.7-106.5,361z"/>
			<path id="XMLID_6_" class="st0" d="M-97.5,378.8L-97.5,378.8L-97.5,378.8c0.4-0.3,3.6-2.9-1.8-6.7l-1,1.1l1.6,1.3
				c0,0.1,0.1,0.1,0.2,0.2c1.1,1,1.3,2.2,1.2,3C-97.4,378.3-97.5,378.7-97.5,378.8z"/>
			<path id="XMLID_5_" class="st0" d="M-108.8,385.5c-0.3,1.3,0.6,1.6,0.6,1.6c0-0.8,0.6-2.1,0.6-2.2c0.4-0.8,0.8-1,0.2-1.8
				c-0.6-0.7-1.9-2.8-2.4-4.3c-0.4-1.4,2.2-4.2,3.9-5.8c0.8-0.7,1.4-1.2,1.4-1.2l-2.7-0.2c0,0-4.5,5.8-4,7.4c0.1,0,0.1,0,0.1,0.1
				l0,0l0,0l0,0c0.2,0.6,0.6,1.5,2.1,2.9l0,0c0.1,0.1,0.1,0.1,0.1,0.1c0.7,0.7,0.9,1.4,0.8,1.8l0,0l0,0
				C-108.1,384.4-108.7,385.4-108.8,385.5z"/>
			<path id="XMLID_4_" class="st0" d="M-132.5,360.8c0.9,14.3,9.8,8.8,11.7,7.4c1.9-1.5,3.4-1.5,4.3-1.4c0.1,0.1,0.1,0.2,0.2,0.3
				c0.2,0.4,0.4,0.7,0.8,1l0.1,0.1c0.4,0.3,0.8,0.6,1.3,0.9c0.6,0.4,1.1,0.8,1.5,1.1c0,0.1,0.1,0.1,0.1,0.1c1.2,1.3,0,4-1.2,6.8
				s1.3,2.9,2.9,4.7c1.6,1.8,0.9,1.9,0.7,3.5c-0.1,0.4-0.1,0.8,0,1c0.1,0.6,0.6,0.6,0.6,0.6l0,0l0,0l0,0c0,0,0.1-0.2,0.6-1.9
				c0.6-2.2-0.5-2.5-2.3-5c-1.8-2.5-0.1-2.3,2.9-8.2c3-5.9-1.1-8.4-1.1-8.4c2.4,5.2-0.9,8.2-1.5,8.2c-0.1,0-0.1,0-0.2,0
				c0,0-1.3-1.6,1.4-5.7c0,0-3.6,0.1-3,3.4c-0.1-0.1-0.3-0.1-0.4-0.2c-0.1,0-0.1-0.1-0.2-0.1c-0.3-0.1-0.5-0.3-0.7-0.4
				c0-0.1,0-0.2,0-0.3c0.7-6.1,5.9-6.2,5.9-6.2c-5.8-0.8-7,4.4-7.1,4.9c-0.1,0.2-0.1,0.4-0.1,0.5c-0.8-1-1-2.1-1-2.3
				c0-0.5,0-1,0.1-1.5c3.3-2.6,6.6-2.8,6.6-2.8c-3,0-5,0.9-6.4,1.9c0-0.1,0.1-0.3,0.1-0.4c2-1.9,5.3-3.9,9.9-3.4
				c0,0-5.2-1.7-9.4,2.2v-0.1c0.7-1,1.4-1.6,2.1-2.1l0,0c3.5-2.3,7.5-1.6,7.5-1.6c5.8,0.9,9.1,6.6,9.1,6.6l0,0
				c1.9,2.9-0.5,4.4-0.5,4.4s1.3,1.7,3.1-1.8c1.8-3.4,3.5-3.1,5-1.9c1.5,1.1,0.4,2.2-1,2c-1.3-0.2-1.1-1.3-1.1-1.3s-1.6-0.5-1.5,1.4
				c0,0.1,0,0.2,0,0.3l0,0l0,0c0.3,1.7,2.4,2.4,3.6,2.5c1.4,0.2,2.3,0.9,3.2,0s0-2.1,0-2.1s-0.5-0.4-1.7-3.1
				c-1.2-2.8-3.1-1.8-3.1-1.8s0.1-0.1,0.1-0.3c0.1-0.5,0.2-1.6-1-2.6l0,0l0,0l0,0c-0.7-0.6-1.6-0.9-1.6-0.9s0,0-0.1,1.7
				c-0.1,1.7,1,2.2,1,2.2s0,0-0.3-0.7c-0.3-0.7-0.1-1.8-0.1-1.8c2.1,0.3,0.8,2.6,0.8,2.6c-0.3,0.3-0.8,0.8-1.5,1.7
				c-1.2,1.3-1.8,0.9-2.9-1.3c-1.1-2.3-3.8-6.3-8.6-7.1c-4.8-0.8-10.4,1.7-15.6,7.1c-1.3,1.3-2.4,2.5-3.5,3.6
				C-130,372.7-132.8,360.6-132.5,360.8z"/>
		</g>
	</g>
</g>
</svg>
