<?xml version="1.0" encoding="utf-8"?>
<!-- Generator: Adobe Illustrator 19.0.0, SVG Export Plug-In . SVG Version: 6.00 Build 0)  -->
<svg version="1.1" id="Layer_1" xmlns="http://www.w3.org/2000/svg" xmlns:xlink="http://www.w3.org/1999/xlink" x="0px" y="0px"
	 viewBox="-218 322 173.4 150" style="enable-background:new -218 322 173.4 150;" xml:space="preserve">
<style type="text/css">
	.st0{fill:#2494BC;}
</style>
<g>
	<path class="st0" d="M-128.8,442c0.3-0.3,0.4-0.7,0.4-1.1c0-0.3-0.1-0.7-0.3-0.9c-0.2-0.3-0.5-0.5-0.9-0.6s-1-0.2-1.9-0.2
		c-0.6,0-1.1,0-1.7,0c0,0.9,0,1.9,0,2.8c0,0.3,0,0.4,0,0.5s0.1,0.1,0.2,0.2c0.1,0,0.3,0,0.6,0s0.6,0,0.9,0c0.9,0,1.5,0,1.8-0.1
		C-129.4,442.5-129.1,442.3-128.8,442z"/>
	<path class="st0" d="M-165.4,432.5c-0.2-0.2-0.6-0.3-1.1-0.4c-0.7-0.1-1.5-0.3-2.2-0.4c-0.2,1-0.4,2.1-0.7,3.1
		c0.6,0.1,1.2,0.2,1.8,0.4c0.6,0.1,1,0.2,1.3,0.1c0.4,0,0.7-0.1,0.9-0.4c0.3-0.2,0.4-0.5,0.5-0.9c0.1-0.3,0-0.6-0.1-0.9
		C-165,432.9-165.2,432.7-165.4,432.5z"/>
	<path class="st0" d="M-148.3,438.2c0.3-0.1,0.5-0.3,0.7-0.5c0.2-0.3,0.3-0.6,0.4-1c0-0.4,0-0.8-0.2-1.1c-0.2-0.3-0.4-0.5-0.8-0.6
		c-0.2-0.1-0.7-0.2-1.4-0.2c-0.4,0-0.7-0.1-1.1-0.1c-0.1,1.2-0.3,2.3-0.4,3.5c0.4,0.1,0.9,0.1,1.3,0.1
		C-149.1,438.3-148.6,438.3-148.3,438.2z"/>
	<path class="st0" d="M-77.1,409.5c0,0,10.5,2.2,15-4.7c0,0-7.9-1.3-13.8,0.2c1.3-4.3,2.2-8.1,2.7-11.3c1.1,0.8,2.4,1.3,2.4,1.3
		c7.2-6.4-0.2-10-1.7-10.7c0-0.7,0-1,0-1v-47.6c-14.3,0.1-25.2-1.1-33.6-2.8c1.7,0.4,3.4,0.7,5.1,0.9l-4.5,2.2h16v2.5h-32.6v-10.6
		c-2.4-1.1-4.8-2.4-6.8-3.9h-0.3v36.1h7.2v-14.4h32.6v2.4h-16l16,8v1.3l-18.7-9.4h-5.4l24.1,12.1l0,0h12.7v25.7l0,0
		c-0.1,5.5-1.4,21.4-13.7,40.1c-26.6,8.4-55.1,8.3-81.7-0.1c-15.2-23.2-13.6-42.1-13.6-42.1v-19.9v-3.7h17.5l-0.3-0.3l3.7-3.3
		l15.7,1.6c0.1-0.4,0.1-0.9,0.2-1.3l-13.8-2.2l2.4-2.1l11.7,3c0.4-1.3,0.9-2.4,1.5-3.6l-10.2-6v-3.1l11,8c0.2-0.4,0.5-0.7,0.7-1
		l-11.8-9.6l-0.1-5.4l4.9,0.3l9.7,11.9c0.4-0.3,0.7-0.6,1.1-0.8l-7.9-10.9l3.2,0.2l5.9,10c1.1-0.6,2.4-1.2,3.7-1.5l-3-11.6l2.2-2.2
		l2.1,13.5c0.4-0.1,0.8-0.1,1.3-0.2l-1.5-15.3l3.3-3.4v35.6h2.6v-37c-0.9-0.8-1.3-1.3-1.3-1.3s-9.9,13.9-58.8,13.7v47.6
		c0,0,0,0.4,0,1c-1.6,0.7-8.8,4.3-1.7,10.6c0,0,1.3-0.5,2.4-1.2c0.5,3.2,1.3,7,2.6,11.3c-5.9-1.4-13.7-0.1-13.7-0.1
		c4.5,6.9,15,4.7,15,4.7l0.2-0.3c0.1,0.4,0.3,0.8,0.4,1.1c-3.3,0.2-8.6,1.5-8.6,1.5c2.9,3.7,8.8,3.6,10.8,3.5
		c0.2,0.4,0.3,0.7,0.5,1.1c-1.2,0.3-3.3,1-3.3,1c0.6,0.5,1.3,1,1.9,1.3l0,0c0.8,0.4,1.6,0.6,2.1,0.7c0.3,0.1,0.7,0.2,1,0.3
		c0.7,1.3,1.4,2.5,2.1,3.8c-0.2-0.1-0.4-0.2-0.6-0.2c-0.1,0,0,3.7-0.3,7.7c-2.9-0.7-5.6-1.7-8.1-3.1c0,0.1,1.1,2.4,1.5,5.2
		c0.3,2.7,0,6-5.6,6.8c6.6,3.3,14.2,4.9,22.1,4.5c0.1-0.6,0.2-1.3,0.3-1.9c-0.1-0.1-0.1-0.1-0.2-0.2c1.9,0.5,3.9,1,5.8,1.4
		c8.1,8.8,18.6,17.7,32.3,26.3c13.7-8.5,24.2-17.5,32.2-26.2c1.6-0.3,3.1-0.7,4.7-1.1c0.1,0.6,0.2,1.2,0.2,1.8
		c7.9,0.4,15.5-1.2,22.1-4.5c-5.6-0.8-5.9-4-5.6-6.8c0.4-2.8,1.5-5.1,1.5-5.2c-2.1,1.2-4.4,2.1-6.8,2.8c-0.3-3.8-0.2-7.4-0.2-7.4
		c-0.3,0.1-0.6,0.2-0.9,0.3c0.8-1.3,1.5-2.7,2.2-4c0.4-0.1,0.7-0.2,1.1-0.3c0.6-0.1,1.5-0.4,2.5-0.9l0,0c0.5-0.3,1-0.6,1.5-1
		c0,0-2.2-0.7-3.4-1.1c0.2-0.4,0.3-0.7,0.5-1.1c1.9,0.1,7.9,0.2,10.8-3.5c0,0-5.4-1.3-8.7-1.5c0.2-0.4,0.3-0.8,0.5-1.2L-77.1,409.5z
		 M-79.5,353.9l-2.6-2.4l-2.6,2.4l0.3-3.5l-3.5-0.5l2.9-2l-1.8-3.1l3.4,1l1.3-3.3l1.3,3.3l3.4-1l-1.8,3.1l2.9,2l-3.5,0.5
		L-79.5,353.9z M-178.5,346.6l1.5-3.1l1.5,3.1l3.4,0.5l-2.4,2.4l0.6,3.4l-3-1.6l-3,1.6l0.6-3.4l-2.4-2.4L-178.5,346.6z
		 M-115.4,434.3c0,0.2,0,0.3,0,0.5c-0.1,0-0.2,0-0.3,0c-0.2,0-0.4,0.1-0.5,0.1c-0.1,0.1-0.2,0.2-0.2,0.3c0,0.1,0,0.4,0,0.7
		c0.1,1.8,0.3,3.6,0.4,5.4c0,0.3,0.1,0.5,0.1,0.6c0.1,0.1,0.2,0.2,0.3,0.2c0.1,0,0.3,0.1,0.5,0c0.1,0,0.2,0,0.3,0c0,0.2,0,0.3,0,0.5
		c-1.1,0.1-2.3,0.2-3.4,0.3c0-0.2,0-0.3,0-0.5c0.1,0,0.2,0,0.3,0c0.3,0,0.4-0.1,0.5-0.1c0.1-0.1,0.2-0.1,0.2-0.3c0-0.1,0-0.3,0-0.6
		c-0.1-1.9-0.3-3.7-0.4-5.6c0-0.3-0.1-0.5-0.1-0.6c-0.1-0.1-0.1-0.2-0.2-0.2s-0.3-0.1-0.5,0c-0.1,0-0.2,0-0.3,0c0-0.2,0-0.3,0-0.5
		C-117.6,434.5-116.5,434.4-115.4,434.3z M-122.8,434.8c0,0.2,0,0.3,0,0.5c-0.1,0-0.2,0-0.3,0c-0.2,0-0.4,0-0.5,0.1
		c-0.1,0-0.2,0.1-0.2,0.2s-0.1,0.2-0.1,0.5c0.1,2,0.1,3.9,0.2,5.9c0,0.3,0,0.4,0.1,0.5c0,0.1,0.1,0.1,0.2,0.2c0.1,0,0.2,0,0.5,0
		c0.2,0,0.3,0,0.5,0c0.5,0,1-0.1,1.4-0.3c0.4-0.2,0.7-0.4,1-0.7c0.3-0.3,0.5-0.8,0.8-1.3c0.2,0.1,0.4,0.1,0.6,0.1
		c-0.3,0.9-0.5,1.8-0.8,2.7c-2.1,0.1-4.3,0.2-6.4,0.3c0-0.2,0-0.3,0-0.5c0.1,0,0.2,0,0.3,0c0.3,0,0.5,0,0.5-0.1
		c0.1,0,0.2-0.1,0.2-0.2s0.1-0.3,0.1-0.5c-0.1-1.9-0.1-3.8-0.2-5.7c0-0.3,0-0.5-0.1-0.6c0-0.1-0.1-0.2-0.2-0.2s-0.3-0.1-0.5,0
		c-0.1,0-0.2,0-0.3,0c0-0.2,0-0.3,0-0.5C-125,434.9-123.9,434.8-122.8,434.8z M-135.6,442.8c0.1,0,0.2,0,0.3,0c0.3,0,0.5,0,0.6-0.1
		c0.2-0.1,0.2-0.3,0.2-0.6c0-2,0.1-3.9,0.1-5.9c0-0.3,0-0.5-0.1-0.6c0-0.1-0.1-0.2-0.2-0.2c-0.1,0-0.3-0.1-0.5-0.1
		c-0.1,0-0.2,0-0.3,0c0-0.2,0-0.3,0-0.5c1.4,0,2.7,0.1,4.1,0.1c1,0,1.7,0,2,0.1c0.5,0.1,1,0.4,1.3,0.7c0.3,0.3,0.5,0.7,0.5,1.2
		c0,0.3-0.1,0.7-0.2,0.9c-0.2,0.3-0.4,0.5-0.7,0.7c-0.2,0.1-0.5,0.2-0.8,0.3c0.5,0.1,0.8,0.2,1,0.3c0.4,0.2,0.6,0.4,0.9,0.7
		c0.2,0.3,0.3,0.7,0.3,1.1s-0.1,0.7-0.3,1.1c-0.2,0.3-0.5,0.6-0.9,0.8c-0.4,0.2-0.8,0.4-1.3,0.4c-0.5,0.1-1,0.1-1.6,0.1
		c-1.5,0-3,0-4.5-0.1C-135.6,443.2-135.6,443-135.6,442.8z M-145.2,434.4c1.1,0.1,2.2,0.2,3.3,0.2c0,0.2,0,0.3,0,0.5
		c-0.1,0-0.1,0-0.2,0c-0.3,0-0.5,0-0.6,0s-0.2,0.1-0.2,0.2c-0.1,0.1-0.1,0.3-0.1,0.6c-0.1,1.3-0.2,2.5-0.3,3.8c0,0.7,0,1.2,0.2,1.5
		c0.1,0.3,0.4,0.6,0.8,0.9c0.4,0.2,0.8,0.4,1.3,0.4s1-0.1,1.4-0.3c0.4-0.2,0.8-0.5,0.9-0.8c0.2-0.3,0.3-0.8,0.3-1.5
		c0.1-1.2,0.1-2.4,0.1-3.7c0-0.3,0-0.5-0.1-0.6s-0.1-0.2-0.2-0.3c-0.1-0.1-0.3-0.1-0.5-0.1c-0.1,0-0.2,0-0.2,0c0-0.2,0-0.3,0-0.5
		c1,0,1.9,0.1,2.9,0.1c0,0.2,0,0.3,0,0.5c-0.1,0-0.1,0-0.2,0c-0.3,0-0.5,0-0.7,0.2c-0.1,0.1-0.2,0.3-0.2,0.7c0,1.3-0.1,2.6-0.1,3.9
		c0,0.7-0.2,1.3-0.5,1.8s-0.7,0.8-1.3,1.1c-0.5,0.3-1.2,0.4-1.9,0.3c-0.7,0-1.3-0.2-1.8-0.5s-0.9-0.7-1.2-1.1
		c-0.2-0.4-0.3-1-0.3-1.6c0.1-1.4,0.2-2.8,0.3-4.1c0-0.3,0-0.5,0-0.6s-0.1-0.2-0.2-0.3c-0.1-0.1-0.3-0.1-0.5-0.1c-0.1,0-0.2,0-0.3,0
		C-145.3,434.7-145.2,434.6-145.2,434.4z M-153.8,441.5c0.1,0,0.1,0,0.2,0c0.3,0,0.5,0,0.6,0s0.2-0.1,0.3-0.2s0.1-0.3,0.1-0.6
		c0.2-1.9,0.4-3.8,0.7-5.7c0-0.3,0-0.4,0-0.5s-0.1-0.2-0.2-0.2c-0.1-0.1-0.3-0.1-0.6-0.1c-0.1,0-0.1,0-0.2,0c0-0.2,0-0.3,0.1-0.5
		c1.1,0.1,2.2,0.3,3.4,0.4c1,0.1,1.7,0.2,2.1,0.4c0.5,0.2,0.8,0.5,1.1,0.9s0.4,0.9,0.4,1.5c0,0.5-0.2,0.9-0.5,1.2
		c-0.3,0.4-0.7,0.7-1.2,0.8c-0.4,0.1-1.1,0.2-2,0.1c-0.5-0.1-1.1-0.1-1.6-0.2c-0.1,0.7-0.2,1.4-0.2,2.2c0,0.3,0,0.5,0,0.6
		s0.1,0.2,0.2,0.3c0.1,0.1,0.3,0.1,0.5,0.1c0.1,0,0.2,0,0.3,0c0,0.2,0,0.3-0.1,0.5c-1.1-0.1-2.3-0.2-3.4-0.4
		C-153.9,441.8-153.9,441.7-153.8,441.5z M-163.5,434.2c-0.1,0.4-0.3,0.8-0.5,1.1c-0.3,0.3-0.7,0.5-1.1,0.6c-0.5,0.1-1,0.1-1.8,0
		c0.6,1,1.2,2.1,1.8,3.1c0.1,0.3,0.2,0.4,0.3,0.5s0.3,0.3,0.4,0.4c0.1,0.1,0.3,0.2,0.5,0.2c0.1,0,0.1,0,0.2,0c0,0.2-0.1,0.3-0.1,0.5
		c-0.7-0.1-1.3-0.2-2-0.4c-0.8-1.5-1.6-3-2.4-4.6c-0.4-0.1-0.7-0.2-1.1-0.2c-0.2,0.8-0.4,1.7-0.5,2.5c-0.1,0.3-0.1,0.5-0.1,0.5
		c0,0.1,0.1,0.3,0.2,0.3c0.1,0.1,0.3,0.1,0.6,0.2c0.1,0,0.2,0,0.2,0c0,0.2-0.1,0.3-0.1,0.5c-1.1-0.2-2.2-0.5-3.4-0.7
		c0-0.2,0.1-0.3,0.1-0.5c0.1,0,0.2,0,0.3,0.1c0.2,0.1,0.4,0.1,0.5,0.1s0.2,0,0.2-0.1c0.1-0.1,0.1-0.1,0.2-0.2c0,0,0.1-0.2,0.1-0.6
		c0.4-1.8,0.8-3.6,1.2-5.4c0.1-0.2,0.1-0.4,0-0.5c0-0.1-0.1-0.2-0.2-0.3c-0.1-0.1-0.2-0.1-0.4-0.2c-0.1,0-0.2-0.1-0.3-0.1
		c0-0.2,0.1-0.3,0.1-0.5c1.4,0.3,2.9,0.6,4.3,0.9c0.8,0.2,1.4,0.4,1.8,0.6c0.4,0.2,0.7,0.6,0.8,0.9
		C-163.5,433.4-163.5,433.8-163.5,434.2z M-163.2,440.6c0-0.2,0.1-0.3,0.1-0.5c0.1,0,0.2,0,0.3,0c0.3,0.1,0.5,0.1,0.6,0
		c0.1,0,0.2-0.1,0.3-0.2s0.1-0.2,0.1-0.5c0.3-1.9,0.6-3.8,0.9-5.7c0-0.3,0-0.4,0-0.5s-0.1-0.2-0.2-0.3c-0.1,0-0.3-0.1-0.7-0.2
		c0-0.2,0.1-0.3,0.1-0.5c2.3,0.4,4.6,0.7,6.9,1c0.2,0.8,0.3,1.5,0.5,2.3c-0.2,0-0.4,0.1-0.6,0.1c-0.1-0.4-0.2-0.7-0.3-0.9
		c-0.1-0.2-0.3-0.4-0.5-0.6s-0.4-0.3-0.6-0.4c-0.2-0.1-0.6-0.2-1.2-0.2c-0.7-0.1-1.4-0.2-2.1-0.3c-0.2,1-0.3,2-0.5,3.1
		c0.3,0.1,0.7,0.1,1,0.2c0.4,0.1,0.7,0,0.9-0.1s0.4-0.2,0.5-0.4c0.1-0.1,0.1-0.4,0.2-0.7v-0.1c0.2,0,0.4,0.1,0.6,0.1
		c-0.2,1.2-0.4,2.4-0.5,3.7c-0.2,0-0.4-0.1-0.6-0.1c0-0.1,0-0.2,0-0.3c0-0.3,0-0.5,0-0.6s-0.1-0.3-0.2-0.4c-0.1-0.1-0.2-0.2-0.3-0.3
		c-0.1-0.1-0.4-0.1-0.7-0.2s-0.7-0.1-1-0.2c-0.1,0.9-0.3,1.8-0.4,2.7c0,0.3-0.1,0.5,0,0.5c0,0.1,0.1,0.1,0.1,0.2
		c0.1,0,0.2,0.1,0.5,0.1c0.4,0.1,0.9,0.1,1.3,0.2c0.7,0.1,1.3,0.1,1.8,0c0.4-0.1,0.8-0.3,1.2-0.6c0.3-0.2,0.6-0.6,0.9-1.1
		c0.2,0.1,0.4,0.2,0.5,0.3c-0.4,0.8-0.9,1.7-1.3,2.5C-158.3,441.5-160.7,441.1-163.2,440.6z M-131.3,464.1
		c-9.9-6.2-18-12.6-24.6-18.9c16.3,2.7,32.9,2.7,49.2,0C-113.4,451.5-121.5,457.9-131.3,464.1z M-107.1,441.3
		c-0.6,0.6-1.3,0.9-2.3,1c-0.5,0.1-1,0-1.4-0.1s-0.9-0.3-1.4-0.6c-0.1,0.3-0.1,0.6-0.2,0.8c-0.1,0-0.3,0-0.4,0c-0.3-1-0.6-2-0.9-3
		c0.2-0.1,0.4-0.1,0.6-0.2c0.3,0.5,0.6,1,1,1.3c0.4,0.4,0.8,0.6,1.3,0.8c0.5,0.2,0.9,0.2,1.4,0.2c0.6-0.1,1.1-0.3,1.5-0.7
		c0.3-0.3,0.5-0.7,0.4-1.1c0-0.4-0.2-0.6-0.5-0.9c-0.3-0.2-0.8-0.4-1.6-0.5c-0.5-0.1-1.1-0.2-1.6-0.3c-0.9-0.1-1.5-0.4-1.9-0.8
		c-0.4-0.3-0.6-0.8-0.7-1.3c0-0.4,0-0.8,0.2-1.1c0.2-0.4,0.5-0.7,1-0.9c0.5-0.3,1-0.4,1.5-0.5s0.9,0,1.4,0.1
		c0.3,0.1,0.6,0.2,0.9,0.4c0.1-0.2,0.1-0.4,0.2-0.6c0.1,0,0.3,0,0.4-0.1c0.3,0.8,0.7,1.7,1,2.5c-0.2,0.1-0.4,0.2-0.6,0.2
		c-0.5-0.7-1-1.2-1.6-1.5c-0.5-0.3-1.1-0.4-1.7-0.3c-0.4,0-0.7,0.1-0.9,0.3c-0.3,0.2-0.5,0.3-0.6,0.6c-0.1,0.2-0.2,0.4-0.2,0.6
		s0.1,0.4,0.2,0.5c0.1,0.2,0.3,0.3,0.6,0.4c0.2,0.1,0.6,0.2,1.2,0.3c0.6,0.1,1.1,0.2,1.7,0.3c0.2,0,0.5,0.1,0.9,0.2s0.7,0.2,0.9,0.4
		c0.2,0.2,0.4,0.3,0.6,0.6c0.2,0.2,0.3,0.5,0.3,0.8C-106.3,440.1-106.6,440.7-107.1,441.3z M-99.2,432.7c-0.1,0.1-0.2,0.1-0.2,0.2
		c-0.1,0.1-0.1,0.2-0.2,0.5c-0.6,1.4-1.1,2.8-1.7,4.1c0.1,0.7,0.2,1.4,0.3,2.1c0.1,0.3,0.1,0.5,0.2,0.6s0.2,0.1,0.3,0.2
		c0.1,0,0.4,0,0.8-0.1c0,0.2,0.1,0.3,0.1,0.5c-1.2,0.2-2.3,0.4-3.5,0.5c0-0.2-0.1-0.3-0.1-0.5c0.1,0,0.2,0,0.3,0
		c0.3,0,0.5-0.1,0.6-0.2s0.2-0.1,0.2-0.3c0-0.1,0-0.3,0-0.6c-0.1-0.6-0.2-1.3-0.3-1.9c-1-1.2-1.9-2.4-2.9-3.6
		c-0.2-0.3-0.4-0.5-0.5-0.5s-0.4-0.1-0.7,0c0-0.2,0-0.3-0.1-0.5c1.1-0.1,2.1-0.3,3.2-0.5c0,0.2,0.1,0.3,0.1,0.5
		c-0.1,0-0.2,0-0.4,0.1c-0.2,0-0.4,0.1-0.4,0.1c-0.1,0.1-0.1,0.1-0.1,0.2s0.1,0.2,0.2,0.3l0.1,0.1c0.7,0.9,1.4,1.8,2.1,2.8
		c0.5-1.1,0.9-2.3,1.3-3.4c0.1-0.1,0.1-0.2,0.1-0.3V433c0-0.1,0-0.1-0.1-0.1c0,0-0.1-0.1-0.2-0.1c0,0-0.2,0-0.3,0
		c-0.1,0-0.2,0-0.3,0.1c0-0.2-0.1-0.3-0.1-0.5c0.9-0.1,1.7-0.3,2.6-0.4c0,0.2,0.1,0.3,0.1,0.5C-98.9,432.7-99.1,432.7-99.2,432.7z
		 M-90.3,438.4c-0.5,0.6-1.2,1-2.2,1.2c-0.5,0.1-1,0.1-1.4,0.1c-0.4-0.1-0.9-0.2-1.4-0.5c0,0.3-0.1,0.6-0.1,0.8
		c-0.1,0-0.3,0.1-0.4,0.1c-0.4-1-0.8-1.9-1.1-2.9c0.2-0.1,0.4-0.1,0.6-0.2c0.3,0.5,0.7,0.9,1.1,1.2c0.4,0.3,0.9,0.5,1.3,0.6
		c0.5,0.1,0.9,0.1,1.4,0c0.6-0.1,1.1-0.4,1.5-0.9c0.3-0.4,0.4-0.7,0.3-1.1s-0.3-0.6-0.6-0.8c-0.3-0.2-0.9-0.3-1.6-0.3
		c-0.5,0-1.1-0.1-1.6-0.1c-0.9-0.1-1.6-0.3-2-0.6c-0.4-0.3-0.7-0.7-0.8-1.2c-0.1-0.4,0-0.8,0.1-1.1c0.2-0.4,0.5-0.7,0.9-1
		s0.9-0.5,1.5-0.6c0.5-0.1,0.9-0.1,1.4,0c0.3,0,0.6,0.1,0.9,0.3c0-0.2,0.1-0.4,0.1-0.6c0.1,0,0.3-0.1,0.4-0.1
		c0.4,0.8,0.8,1.6,1.2,2.4c-0.2,0.1-0.4,0.2-0.5,0.3c-0.5-0.6-1.1-1.1-1.8-1.4c-0.6-0.2-1.1-0.3-1.7-0.2c-0.4,0.1-0.7,0.2-0.9,0.4
		c-0.3,0.2-0.4,0.4-0.5,0.6s-0.1,0.4-0.1,0.6s0.1,0.4,0.3,0.5c0.1,0.2,0.3,0.3,0.6,0.4c0.2,0.1,0.7,0.2,1.2,0.2
		c0.6,0,1.1,0.1,1.7,0.1c0.2,0,0.5,0.1,0.9,0.1c0.4,0.1,0.7,0.2,1,0.3c0.2,0.1,0.5,0.3,0.6,0.5c0.2,0.2,0.3,0.5,0.4,0.8
		C-89.6,437.2-89.8,437.8-90.3,438.4z"/>
	<path class="st0" d="M-130.1,438.6c0.4-0.1,0.8-0.3,1-0.6c0.2-0.3,0.3-0.6,0.3-1c0-0.3-0.1-0.6-0.3-0.9c-0.2-0.2-0.5-0.4-0.8-0.5
		c-0.2-0.1-0.7-0.1-1.4-0.1c-0.6,0-1.3,0-1.9,0c0,1,0,2.1,0,3.1c0.5,0,1.1,0,1.6,0C-130.9,438.7-130.4,438.7-130.1,438.6z"/>
	<polygon class="st0" points="-119.6,360.1 -97.6,360.1 -119.6,349.1 	"/>
	<path class="st0" d="M-106.9,332.7c-1.2-0.3-2.4-0.6-3.7-0.9l-8.4,4.2h5.4L-106.9,332.7z"/>
</g>
<path class="st0" d="M-119.6,329v6l7.2-3.6C-115.2,330.6-117.6,329.8-119.6,329z"/>
<path class="st0" d="M-140.2,465.6c-1.8-2.5-4.8-1.9-6.2-2.6c-1.4-0.6-3.3-2-4.6-5.3c0,0,0.3,4.1,1.4,5.9c0,0-2.6-1.3-3.3-5.9
	c-0.6-4.6-5.4-5.1-5.4-5.1s0.8,1.8-0.7,1.4c0,0-4-10.3-16.4-4.4c0,0,3.9-0.8,7.2,9.3c0.9,2.7,7.8,5.7,7.8,5.7s-3.9,0.5-8.1-2.7
	c0,0,5.7,5.8,8.3,6.3s5.3-0.2,5.3-0.2s-2.6,1.5-1.2,3.2c1.4,1.6,6.7,0.3,8.9-0.7s11.2-1.3,11.2-1.3S-138.3,468.1-140.2,465.6z
	 M-155.4,463.6c-2.5-3-11.7-11.2-11.7-11.2s7.7,4.1,12.2,9.3c4.4,5.2,12.7,6.1,12.7,6.1C-146.4,468.4-152.9,466.6-155.4,463.6z"/>
<path class="st0" d="M-126.6,469.2c0,0,9,0.3,11.2,1.3s7.5,2.3,8.9,0.7c1.4-1.6-1.2-3.2-1.2-3.2s2.7,0.7,5.3,0.2
	c2.6-0.5,8.3-6.3,8.3-6.3c-4.2,3.2-8.1,2.7-8.1,2.7s6.9-3.1,7.8-5.7c3.2-10.1,7.2-9.3,7.2-9.3c-12.4-5.9-16.4,4.4-16.4,4.4
	c-1.5,0.4-0.7-1.4-0.7-1.4s-4.7,0.5-5.4,5.1c-0.6,4.6-3.3,5.9-3.3,5.9c1.1-1.8,1.4-5.9,1.4-5.9c-1.3,3.4-3.2,4.7-4.6,5.3
	s-4.4,0.1-6.2,2.6C-124.3,468.1-126.6,469.2-126.6,469.2z M-120.4,467.8c0,0,8.3-0.9,12.7-6.1c4.4-5.2,12.2-9.3,12.2-9.3
	s-9.2,8.2-11.7,11.2C-109.7,466.6-116.2,468.4-120.4,467.8z"/>
<polygon class="st0" points="-181.3,438.9 -169.5,444.4 -169.3,442.6 "/>
<polygon class="st0" points="-82.3,438.8 -94.1,444.3 -94.3,442.5 "/>
<polygon class="st0" points="-143.9,447.4 -143.3,448.9 -141.7,448.5 -142.5,449.9 -141.2,450.8 -142.8,451 -142.7,452.7 
	-143.9,451.6 -145.1,452.7 -144.9,451 -146.6,450.8 -145.2,449.9 -146,448.5 -144.5,448.9 "/>
<polygon class="st0" points="-117.7,448.3 -117.3,449.3 -116.2,449 -116.8,449.9 -115.9,450.5 -116.9,450.7 -116.9,451.8 
	-117.7,451.1 -118.5,451.8 -118.4,450.7 -119.5,450.5 -118.6,449.9 -119.1,449 -118.1,449.3 "/>
<polygon class="st0" points="-131.1,450 -130.1,452.6 -127.5,451.8 -128.8,454.1 -126.6,455.7 -129.3,456.1 -129.1,458.8 
	-131.1,456.9 -133.1,458.8 -132.9,456.1 -135.6,455.7 -133.3,454.1 -134.7,451.8 -132.1,452.6 "/>
<path class="st0" d="M-53.1,348.9c6.2-9.4-1.3-17.6-1.3-17.6C-58.4,343.8-53.1,348.9-53.1,348.9z"/>
<path class="st0" d="M-52.7,356.8c10.3-3.1,7.1-15.3,7.1-15.3C-53.1,345.7-52.7,356.8-52.7,356.8z"/>
<path class="st0" d="M-54.5,367.8c11.5-1.9,9.8-14,9.8-14C-54.2,357.9-54.5,367.8-54.5,367.8z"/>
<path class="st0" d="M-57.8,378c12.7-0.7,12.4-12.3,12.4-12.3C-56,368.3-57.8,378-57.8,378z"/>
<path class="st0" d="M-62.6,387.4C-48.7,388-47.8,377-47.8,377C-59.8,378.6-62.6,387.4-62.6,387.4z"/>
<path class="st0" d="M-68.2,395.5c14.7,2.1,16.8-8.2,16.8-8.2C-64.8,387.9-68.2,395.5-68.2,395.5z"/>
<path class="st0" d="M-74.9,402.4c15.3,3.7,18.6-5.9,18.6-5.9C-70.5,395.7-74.9,402.4-74.9,402.4z"/>
<path class="st0" d="M-60.3,352c0,0.2,0.1,0.4,0.1,0.6l0,0l0,0l0,0c0.2,0.7,0.5,1.3,0.8,1.8c0.9,1.4,2.1,1.9,2.2,1.9c0,0,0,0,0.1,0
	s0.2,0.1,0.3,0.1h0.1h0.1c1,0.4,1.8,0.4,2,0.4l0,0l0,0c0,0,0.5-2.7,0.4-4.3l0,0c0-0.8-0.1-1.4-0.2-2.1l0,0c0,0-0.7-5.4-5.9-5.9l0,0
	C-60.7,347.9-60.7,350.2-60.3,352L-60.3,352z"/>
<path class="st0" d="M-54.5,357.1L-54.5,357.1C-54.5,357-54.5,357-54.5,357.1L-54.5,357.1z"/>
<path class="st0" d="M-56.6,367.8c3.9-11-4.9-12-4.9-12C-65.4,367.6-56.6,367.8-56.6,367.8z"/>
<path class="st0" d="M-60,377.8c5.5-10.1-4.2-11.8-4.2-11.8C-69.5,376.8-60,377.8-60,377.8z"/>
<path class="st0" d="M-64.9,387c6.9-9.1-3.5-11.4-3.5-11.4C-75.3,384.8-64.9,387-64.9,387z"/>
<path class="st0" d="M-129.2,323.9L-129.2,323.9l0.1,0.1C-129.1,323.9-129.2,323.9-129.2,323.9z"/>
<path class="st0" d="M-208.2,331.3c0,0-7.4,8.3-1.3,17.6C-209.5,348.9-204.2,343.8-208.2,331.3z"/>
<path class="st0" d="M-209.9,356.8c0,0,0.4-11.1-7.1-15.3C-217,341.4-220.2,353.7-209.9,356.8z"/>
<path class="st0" d="M-208.1,367.8c0,0-0.3-9.9-9.8-14C-217.9,353.8-219.6,365.9-208.1,367.8z"/>
<path class="st0" d="M-204.8,378c0,0-1.7-9.7-12.4-12.3C-217.2,365.7-217.5,377.3-204.8,378z"/>
<path class="st0" d="M-200,387.4c0,0-2.8-8.7-14.8-10.4C-214.8,377-213.9,388-200,387.4z"/>
<path class="st0" d="M-194.4,395.5c0,0-3.4-7.6-16.8-8.2C-211.3,387.3-209.1,397.6-194.4,395.5z"/>
<path class="st0" d="M-187.7,402.4c0,0-4.3-6.7-18.6-5.9C-206.4,396.5-203,406.1-187.7,402.4z"/>
<path class="st0" d="M-208.3,350.6c-0.1,0.6-0.2,1.3-0.2,2.1l0,0c-0.1,1.6,0.4,4.3,0.4,4.3l0,0l0,0c0.2,0,1-0.1,2-0.4h0.1h0.1
	c0.1-0.1,0.2-0.1,0.3-0.1c0,0,0,0,0.1,0c0.1-0.1,1.3-0.5,2.2-1.9c0.3-0.5,0.6-1.1,0.8-1.8l0,0l0,0l0,0c0.1-0.2,0.1-0.4,0.1-0.6l0,0
	c0.4-1.7,0.5-4.1,0-7.3l0,0C-207.6,345.2-208.3,350.6-208.3,350.6L-208.3,350.6z"/>
<path class="st0" d="M-208.1,357.1L-208.1,357.1C-208.1,357-208.1,357-208.1,357.1L-208.1,357.1z"/>
<path class="st0" d="M-206,367.8c0,0,8.8-0.1,4.9-12C-201.1,355.8-210,356.8-206,367.8z"/>
<path class="st0" d="M-202.6,377.8c0,0,9.5-1,4.2-11.8C-198.4,366.1-208.1,367.8-202.6,377.8z"/>
<path class="st0" d="M-197.7,387c0,0,10.4-2.3,3.5-11.4C-194.2,375.6-204.5,377.9-197.7,387z"/>
<g>
	<path class="st0" d="M-128.5,425.2v-3.6c0,0-2.4-1.7-1.9-1c0.6,0.6,1.4,2,0.3,4.3c-1,2.3-0.7,3.7-0.7,3.7L-128.5,425.2z"/>
	<g>
		<path class="st0" d="M-118.1,401.3c3.8,3.9,7.9,7.9,7,10.6c-0.9,2.7-4.8,2.8-4.8,2.8s2.1,1.2,3.8,0.7c1.7-0.6,3.9-2.9,3.5-6
			s-4.9-9-4.9-9l2.1-2.5c0,0,4.7-3.2,6.1-6.6c0,0-4,4.8-8.9,6.2c-4.6,1.3-3.1-3.4-2.7-4.1c-0.4,0.4-2.6,2.3-2.6,4.6
			c-5.6-5.2-1.9-11.3-0.8-12.8c2.6,0.6,6,1.5,9,3c0,0-6.9-5.2-13.5-3.7c0,0,1.8,0.2,4.3,0.7c-7.6,6.3-1.3,11.5,0.9,13
			C-119.6,399.2-119.2,400.2-118.1,401.3z"/>
		<path class="st0" d="M-117,393.4C-117,393.4-116.9,393.3-117,393.4L-117,393.4z"/>
		<path class="st0" d="M-112.8,377.5c5.6,4.8,3.5,14.1,3.5,14.1s1.7-1.8,1.7-6.4S-112.8,377.4-112.8,377.5z"/>
		<path class="st0" d="M-124.5,383.5c0,0,8.3-1.8,14.9,5.4C-109.6,388.9-114.7,379.8-124.5,383.5z"/>
		<path class="st0" d="M-128.6,368c0,0,15.2,3.8,15.9,9.5C-112.7,377.5-109.2,371.7-128.6,368z"/>
		<path class="st0" d="M-126.4,371.3c0,0,0.9,2.3,3.6,3.9c-0.2-0.1-0.3-0.1-0.4-0.2c-0.6,0.5-1,1.2-1,1.9c0,1.3,1.2,2.4,2.6,2.4
			c1.4,0,2.6-1.1,2.6-2.4c0-0.1,0-0.2,0-0.3c1.3,0.2,2.8,0.2,4.5,0C-114.5,376.6-122.1,376.8-126.4,371.3z M-122.6,377.4
			c0-0.6,0.4-1,0.9-1s0.9,0.5,0.9,1c0,0.6-0.4,1-0.9,1S-122.6,378-122.6,377.4z"/>
		<path class="st0" d="M-126.1,374.4c0,0-9.2-3.7-15.8,4.8C-141.9,379.2-134.8,373.8-126.1,374.4z"/>
		<path class="st0" d="M-106.8,412.6L-106.8,412.6L-106.8,412.6c0.9-0.6,7.6-6.1-3.9-14.3l-2.1,2.3l3.4,2.8c0.1,0.1,0.3,0.2,0.5,0.4
			c2.4,2.3,2.7,4.8,2.6,6.5C-106.4,411.6-106.8,412.5-106.8,412.6z"/>
		<path class="st0" d="M-130.6,427.1c-0.7,2.8,1.3,3.4,1.3,3.4c0-1.8,1.2-4.5,1.3-4.7c0.8-1.7,1.5-2.1,0.3-3.8
			c-1.1-1.6-4-5.9-5.1-9.2c-0.8-3.1,4.8-9.1,8.4-12.6c1.7-1.6,2.9-2.7,2.9-2.7l-5.7-0.5c0,0-9.7,12.4-8.6,15.9
			c0,0.1,0.1,0.2,0.1,0.3l0,0l0,0l0,0c0.5,1.2,1.4,3.2,4.5,6.2c0.1,0.1,0.1,0.1,0.1,0.1l0.1,0.1c1.5,1.6,1.7,2.9,1.6,3.9l0,0l0,0
			C-129.6,424.7-130.7,426.9-130.6,427.1z"/>
		<path class="st0" d="M-182.1,373.5c1.8,30.8,20.9,18.9,25.1,15.9c4.1-3.2,7.4-3.3,9.2-3c0.2,0.2,0.3,0.4,0.4,0.6
			c0.4,0.8,1,1.5,1.8,2.1c0.2,0.1,0.2,0.2,0.3,0.2c0.8,0.7,1.8,1.3,2.8,1.9c1.3,0.9,2.5,1.8,3.3,2.4c0.1,0.1,0.1,0.1,0.2,0.2
			c2.7,2.8,0,8.7-2.5,14.7s2.9,6.4,6.3,10.2c3.3,3.8,1.9,4.2,1.5,7.5c-0.1,1-0.1,1.7,0.1,2.2c0.4,1.2,1.3,1.3,1.4,1.3l0,0l0,0l0,0
			c0,0,0.3-0.5,1.3-4.1c1.4-4.6-1.1-5.3-4.9-10.7c-3.8-5.4-0.2-4.9,6.3-17.6c6.5-12.7-2.4-18-2.4-18c5.1,11.1-1.9,17.5-3.3,17.5
			c-0.2,0-0.3,0-0.4-0.1c0-0.1-2.9-3.4,3-12.3c0,0-7.7,0.1-6.5,7.2c-0.3-0.2-0.5-0.3-0.8-0.4c-0.2-0.1-0.3-0.1-0.5-0.2
			c-0.5-0.3-1-0.5-1.4-0.8c0-0.2,0-0.4,0-0.6c1.4-13,12.6-13.3,12.6-13.3c-12.4-1.6-15,9.5-15.2,10.6c-0.1,0.4-0.2,0.7-0.2,1
			c-1.9-2.3-2.2-4.5-2.3-5c0-1,0.1-2.1,0.3-3.2c7.1-5.7,14.2-6.1,14.2-6.1c-6.4,0-10.8,1.9-13.7,4.1c0.1-0.3,0.2-0.5,0.3-0.8
			c4.2-4.1,11.3-8.4,21.2-7.3c0,0-11.2-3.7-20.2,4.7c0-0.1,0.1-0.1,0.1-0.2c1.3-2,2.9-3.4,4.4-4.4l0,0c7.4-5,16-3.5,16-3.5
			c12.5,2,19.5,14.3,19.5,14.3l0,0c4,6.2-1.1,9.5-1.1,9.5s2.7,3.5,6.6-3.9c3.9-7.4,7.6-6.6,10.8-4.1s0.7,4.8-2.2,4.3
			s-2.4-2.8-2.4-2.8s-3.4-1-3.2,3.1c0,0.2,0.1,0.4,0.1,0.6l0,0l0,0c0.6,3.6,5.2,5.1,7.7,5.4c3,0.4,5,1.8,6.9,0s0-4.4,0-4.4
			s-1-0.7-3.6-6.6c-2.5-5.9-6.6-3.8-6.6-3.8s0.1-0.2,0.2-0.7c0.3-1.1,0.4-3.5-2.2-5.6l-0.1-0.1l0,0l0,0c-1.6-1.2-3.5-1.8-3.5-1.8
			s0,0-0.3,3.7c-0.3,3.7,2.2,4.8,2.2,4.8s0,0-0.7-1.6c-0.7-1.5-0.2-3.9-0.2-3.9c4.5,0.7,1.7,5.7,1.7,5.7c-0.5,0.6-1.6,1.7-3.2,3.6
			c-2.5,2.8-3.8,2-6.2-2.8c-2.4-4.7-8.4-13.4-18.6-15.1c-10.3-1.7-22.4,3.6-33.5,15.2c-2.7,2.9-5.2,5.4-7.5,7.8
			C-176.5,399.5-182.4,373.6-182.1,373.5z"/>
	</g>
</g>
</svg>
